<?xml version="1.0" encoding="iso-8859-1"?>
<!-- Generator: Adobe Illustrator 19.0.0, SVG Export Plug-In . SVG Version: 6.00 Build 0)  -->
<svg version="1.1" id="Layer_1" xmlns="http://www.w3.org/2000/svg" xmlns:xlink="http://www.w3.org/1999/xlink" x="0px" y="0px"
	 viewBox="0 0 512 512" style="enable-background:new 0 0 512 512;" xml:space="preserve">
<g>
	<path style="fill:#507C5C;" d="M318.008,85.903c-7.821,0-14.163-6.342-14.163-14.163V28.327h-95.69v43.412
		c0,7.821-6.342,14.163-14.163,14.163s-14.163-6.342-14.163-14.163V14.163C179.828,6.342,186.171,0,193.992,0h124.017
		c7.821,0,14.163,6.342,14.163,14.163v57.576C332.172,79.562,325.831,85.903,318.008,85.903z"/>
	<path style="fill:#507C5C;" d="M352.383,512H159.618c-24.469,0-46.559-15.432-54.97-38.4c-2.358-6.439-3.555-13.209-3.555-20.122
		V72.933c0-7.821,6.342-14.163,14.163-14.163h201.957c7.821,0,14.163,6.342,14.163,14.163s-6.342,14.163-14.163,14.163H129.422
		v366.381c0,3.578,0.616,7.07,1.827,10.382c4.338,11.852,15.74,19.813,28.369,19.813h192.764c16.651,0,30.196-13.544,30.196-30.195
		V133.706c0-7.821,6.342-14.163,14.163-14.163s14.163,6.342,14.163,14.163v319.771C410.906,485.747,384.653,512,352.383,512z"/>
</g>
<rect x="115.858" y="141.238" style="fill:#CFF09E;" width="179.876" height="55.237"/>
<path style="fill:#507C5C;" d="M295.729,210.637H115.853c-7.821,0-14.163-6.342-14.163-14.163v-55.237
	c0-7.821,6.342-14.163,14.163-14.163h179.876c7.821,0,14.163,6.342,14.163,14.163v55.237
	C309.893,204.295,303.55,210.637,295.729,210.637z M130.017,182.31h151.549V155.4H130.017V182.31z"/>
<rect x="115.858" y="257.775" style="fill:#CFF09E;" width="280.295" height="55.237"/>
<path style="fill:#507C5C;" d="M396.148,327.167H115.853c-7.821,0-14.163-6.342-14.163-14.163v-55.237
	c0-7.821,6.342-14.163,14.163-14.163h280.295c7.821,0,14.163,6.342,14.163,14.163v55.237
	C410.311,320.826,403.97,327.167,396.148,327.167z M130.017,298.84h251.968V271.93H130.017V298.84z"/>
<rect x="115.858" y="374.297" style="fill:#CFF09E;" width="280.295" height="55.237"/>
<path style="fill:#507C5C;" d="M396.148,443.7H115.853c-7.821,0-14.163-6.342-14.163-14.163v-55.237
	c0-7.821,6.342-14.163,14.163-14.163h280.295c7.821,0,14.163,6.342,14.163,14.163v55.237
	C410.311,437.357,403.97,443.7,396.148,443.7z M130.017,415.373h251.968v-26.911H130.017V415.373z"/>
<g>
</g>
<g>
</g>
<g>
</g>
<g>
</g>
<g>
</g>
<g>
</g>
<g>
</g>
<g>
</g>
<g>
</g>
<g>
</g>
<g>
</g>
<g>
</g>
<g>
</g>
<g>
</g>
<g>
</g>
</svg>
