<?xml version="1.0" encoding="iso-8859-1"?>
<!-- Generator: Adobe Illustrator 19.0.0, SVG Export Plug-In . SVG Version: 6.00 Build 0)  -->
<svg version="1.1" id="Layer_1" xmlns="http://www.w3.org/2000/svg" xmlns:xlink="http://www.w3.org/1999/xlink" x="0px" y="0px"
	 viewBox="0 0 512 512" style="enable-background:new 0 0 512 512;" xml:space="preserve">
<path style="fill:#507C5C;" d="M411.558,469.231H100.442c-35.853,0-65.023-29.17-65.023-65.023V101.592
	c0-8.12,6.584-14.705,14.705-14.705s14.705,6.585,14.705,14.705v302.616c0,19.638,15.976,35.612,35.612,35.612h311.116
	c19.636,0,35.612-15.974,35.612-35.612V216.776c0-8.12,6.584-14.705,14.705-14.705s14.705,6.585,14.705,14.705v187.432
	C476.581,440.061,447.411,469.231,411.558,469.231z"/>
<rect x="14.705" y="57.469" style="fill:#CFF09E;" width="482.586" height="102.144"/>
<g>
	<path style="fill:#507C5C;" d="M497.295,174.325H14.705C6.584,174.325,0,167.74,0,159.619V57.474
		c0-8.12,6.584-14.705,14.705-14.705h482.589c8.122,0,14.705,6.585,14.705,14.705v102.145
		C512,167.74,505.416,174.325,497.295,174.325z M29.411,144.914h453.178V72.18H29.411V144.914z"/>
	<path style="fill:#507C5C;" d="M334.674,278.057H177.326c-8.122,0-14.705-6.585-14.705-14.705v-44.115
		c0-8.12,6.584-14.705,14.705-14.705s14.705,6.585,14.705,14.705v29.409h127.937v-29.409c0-8.12,6.584-14.705,14.705-14.705
		c8.122,0,14.705,6.585,14.705,14.705v44.115C349.379,271.471,342.796,278.057,334.674,278.057z"/>
</g>
<path style="fill:#CFF09E;" d="M50.125,395.703v8.504c0,27.789,22.527,50.317,50.317,50.317h311.117
	c27.789,0,50.317-22.527,50.317-50.317v-8.504H50.125z"/>
<path style="fill:#507C5C;" d="M411.558,469.231H100.442c-35.853,0-65.023-29.17-65.023-65.023v-8.504
	c0-8.12,6.584-14.705,14.705-14.705h411.75c8.122,0,14.705,6.585,14.705,14.705v8.504
	C476.581,440.061,447.411,469.231,411.558,469.231z M65.371,410.409c2.941,16.692,17.549,29.411,35.071,29.411h311.116
	c17.523,0,32.13-12.719,35.071-29.411H65.371z"/>
<g>
</g>
<g>
</g>
<g>
</g>
<g>
</g>
<g>
</g>
<g>
</g>
<g>
</g>
<g>
</g>
<g>
</g>
<g>
</g>
<g>
</g>
<g>
</g>
<g>
</g>
<g>
</g>
<g>
</g>
</svg>
