<?xml version="1.0" encoding="iso-8859-1"?>
<!-- Generator: Adobe Illustrator 19.0.0, SVG Export Plug-In . SVG Version: 6.00 Build 0)  -->
<svg version="1.1" id="Layer_1" xmlns="http://www.w3.org/2000/svg" xmlns:xlink="http://www.w3.org/1999/xlink" x="0px" y="0px"
	 viewBox="0 0 512 512" style="enable-background:new 0 0 512 512;" xml:space="preserve">
<g>
	<path style="fill:#507C5C;" d="M256.001,512c-8.184,0-14.818-6.634-14.818-14.818V63.019c0-8.184,6.634-14.818,14.818-14.818
		s14.818,6.634,14.818,14.818v434.163C270.819,505.366,264.185,512,256.001,512z"/>
	<path style="fill:#507C5C;" d="M473.082,294.918H38.919c-8.184,0-14.818-6.634-14.818-14.818s6.634-14.818,14.818-14.818h434.163
		c8.184,0,14.818,6.634,14.818,14.818S481.266,294.918,473.082,294.918z"/>
	<path style="fill:#507C5C;" d="M425.668,512H86.332C52.017,512,24.1,484.083,24.1,449.769V110.433
		c0-34.315,27.917-62.232,62.232-62.232h339.336c34.315,0,62.232,27.917,62.232,62.232v169.67c0,8.184-6.634,14.818-14.818,14.818
		c-8.184,0-14.818-6.634-14.818-14.818v-169.67c0-17.973-14.622-32.596-32.596-32.596H86.332c-17.973,0-32.596,14.622-32.596,32.596
		v339.336c0,17.973,14.622,32.595,32.596,32.595h339.336c17.973,0,32.596-14.622,32.596-32.595v-64.295
		c0-8.184,6.634-14.818,14.818-14.818s14.818,6.634,14.818,14.818v64.295C487.9,484.083,459.983,512,425.668,512z"/>
</g>
<path style="fill:#CFF09E;" d="M142.711,429.344c-19.825,0-35.954-16.129-35.954-35.954V166.812
	c0-19.825,16.129-35.954,35.954-35.954h226.578c19.825,0,35.954,16.129,35.954,35.954V393.39c0,19.825-16.129,35.954-35.954,35.954
	L142.711,429.344L142.711,429.344z"/>
<g>
	<path style="fill:#507C5C;" d="M369.289,444.162H142.711c-27.995,0-50.772-22.777-50.772-50.772V166.812
		c0-27.995,22.777-50.772,50.772-50.772h226.578c27.995,0,50.772,22.777,50.772,50.772V393.39
		C420.061,421.386,397.285,444.162,369.289,444.162z M142.711,145.676c-11.654,0-21.136,9.482-21.136,21.136V393.39
		c0,11.654,9.482,21.136,21.136,21.136h226.578c11.654,0,21.136-9.482,21.136-21.136V166.812c0-11.654-9.482-21.136-21.136-21.136
		H142.711z"/>
	<path style="fill:#507C5C;" d="M257.349,327.469c-3.793,0-7.584-1.446-10.478-4.34l-46.669-46.669
		c-5.786-5.786-5.786-15.169,0-20.957c5.786-5.786,15.169-5.786,20.957,0l36.191,36.191l54.616-54.616
		c5.786-5.785,15.168-5.786,20.955,0c5.786,5.786,5.786,15.169,0,20.955l-65.093,65.093
		C264.934,326.021,261.141,327.469,257.349,327.469z"/>
</g>
<path style="fill:#CFF09E;" d="M356.543,63.019H155.457V38.214c0-12.921,10.475-23.396,23.396-23.396h154.294
	c12.921,0,23.396,10.475,23.396,23.396V63.019z"/>
<path style="fill:#507C5C;" d="M356.544,77.837H155.457c-8.184,0-14.818-6.634-14.818-14.818V38.214
	C140.639,17.143,157.782,0,178.853,0h154.294c21.071,0,38.215,17.143,38.215,38.214v24.805
	C371.362,71.203,364.728,77.837,356.544,77.837z M170.275,48.201h171.452v-9.987c0-4.73-3.848-8.578-8.58-8.578H178.853
	c-4.73,0-8.58,3.848-8.58,8.578v9.987H170.275z"/>
<g>
</g>
<g>
</g>
<g>
</g>
<g>
</g>
<g>
</g>
<g>
</g>
<g>
</g>
<g>
</g>
<g>
</g>
<g>
</g>
<g>
</g>
<g>
</g>
<g>
</g>
<g>
</g>
<g>
</g>
</svg>
