<?xml version="1.0" encoding="iso-8859-1"?>
<!-- Generator: Adobe Illustrator 19.0.0, SVG Export Plug-In . SVG Version: 6.00 Build 0)  -->
<svg version="1.1" id="Layer_1" xmlns="http://www.w3.org/2000/svg" xmlns:xlink="http://www.w3.org/1999/xlink" x="0px" y="0px"
	 viewBox="0 0 512 512" style="enable-background:new 0 0 512 512;" xml:space="preserve">
<path style="fill:#507C5C;" d="M373.323,324.412c-55.17,0-100.056-44.886-100.056-100.056s44.886-100.056,100.056-100.056
	c41.561,0,79.244,26.153,93.768,65.079c2.672,7.159-0.967,15.13-8.127,17.802c-7.165,2.671-15.131-0.966-17.802-8.128
	c-10.507-28.159-37.769-47.078-67.838-47.078c-39.911,0-72.381,32.47-72.381,72.381s32.47,72.381,72.381,72.381
	c7.641,0,13.837,6.195,13.837,13.837S380.965,324.412,373.323,324.412z"/>
<path style="fill:#CFF09E;" d="M447.419,268.438c-15.041,25.228-42.589,42.136-74.095,42.136c-47.617,0-86.218-38.601-86.218-86.218
	c0-31.556,16.962-59.14,42.257-74.166c-27.049-37.688-71.241-62.241-121.17-62.241c-82.32,0-149.055,66.734-149.055,149.055
	c0,11.069,1.216,21.852,3.505,32.233c-28.638,12.433-48.805,41.017-48.805,74.091l0,0c0,44.396,36.325,80.721,80.721,80.721h322.884
	c44.396,0,80.721-36.325,80.721-80.721l0,0C498.163,309.516,477.08,280.404,447.419,268.438z"/>
<path style="fill:#507C5C;" d="M417.441,437.887H94.558C42.419,437.887,0,395.47,0,343.329c0-33.909,18.189-64.909,47.157-81.742
	c-1.233-8.125-1.856-16.356-1.856-24.582c0-89.819,73.074-162.893,162.893-162.893c52.347,0,101.846,25.424,132.41,68.008
	c2.261,3.151,3.097,7.106,2.303,10.9c-0.793,3.796-3.142,7.085-6.477,9.065c-21.888,13.003-35.487,36.864-35.487,62.268
	c0,39.911,32.47,72.381,72.381,72.381c25.358,0,49.198-13.559,62.212-35.386c3.493-5.859,10.738-8.3,17.062-5.747
	C488.683,270.16,512,304.594,512,343.327C512,395.47,469.581,437.887,417.441,437.887z M208.194,101.789
	c-74.559,0-135.218,60.658-135.218,135.218c0,9.837,1.07,19.68,3.181,29.252c1.425,6.466-1.929,13.036-8.004,15.672
	c-24.589,10.676-40.479,34.775-40.479,61.398c0,36.88,30.004,66.883,66.883,66.883h322.883c36.88,0,66.885-30.004,66.885-66.883
	c0-23.723-12.393-45.174-32.324-57.193c-18.827,23.874-47.941,38.274-78.677,38.274c-55.17,0-100.056-44.884-100.056-100.056
	c0-29.831,13.554-58.114,36.168-76.967C283.905,118.616,246.99,101.789,208.194,101.789z"/>
<g>
</g>
<g>
</g>
<g>
</g>
<g>
</g>
<g>
</g>
<g>
</g>
<g>
</g>
<g>
</g>
<g>
</g>
<g>
</g>
<g>
</g>
<g>
</g>
<g>
</g>
<g>
</g>
<g>
</g>
</svg>
