<?xml version="1.0" encoding="iso-8859-1"?>
<!-- Generator: Adobe Illustrator 19.0.0, SVG Export Plug-In . SVG Version: 6.00 Build 0)  -->
<svg version="1.1" id="Layer_1" xmlns="http://www.w3.org/2000/svg" xmlns:xlink="http://www.w3.org/1999/xlink" x="0px" y="0px"
	 viewBox="0 0 512 512" style="enable-background:new 0 0 512 512;" xml:space="preserve">
<path style="fill:#507C5C;" d="M256,512c-58.745,0-116.132-20.398-161.591-57.435c-44.81-36.507-76.242-87.538-88.506-143.69
	C1.985,292.983,0,274.519,0,256c0-18.519,1.985-36.983,5.904-54.881c5.751-26.359,15.644-51.564,29.402-74.907
	c22.044-37.426,53.481-68.861,90.908-90.907C165.412,12.208,210.291,0,256,0c58.745,0,116.132,20.398,161.591,57.435
	c44.81,36.507,76.242,87.538,88.506,143.69C510.015,219.017,512,237.481,512,256c0,7.855-6.367,14.222-14.222,14.222
	s-14.222-6.367-14.222-14.222c0-16.478-1.765-32.896-5.245-48.799C455.686,103.619,362.192,28.444,256,28.444
	c-40.634,0-80.521,10.846-115.348,31.369c-33.283,19.602-61.235,47.556-80.838,80.838c-12.224,20.74-21.012,43.127-26.122,66.542
	c-3.483,15.912-5.248,32.33-5.248,48.808s1.765,32.896,5.245,48.799C56.314,408.381,149.808,483.556,256,483.556
	c40.634,0,80.521-10.846,115.348-31.369c33.283-19.604,61.237-47.556,80.839-80.838c3.988-6.768,12.706-9.023,19.473-5.036
	c6.768,3.987,9.023,12.705,5.036,19.472c-22.046,37.429-53.481,68.865-90.91,90.91C346.588,499.792,301.709,512,256,512z"/>
<path style="fill:#CFF09E;" d="M270.936,296.154l107.631,168.287c35.399-20.85,65.024-50.475,85.874-85.874L296.154,270.936
	C291.822,282.576,282.576,291.822,270.936,296.154z"/>
<path style="fill:#507C5C;" d="M378.578,478.666c-4.699,0-9.286-2.328-11.994-6.562L258.955,303.815
	c-2.317-3.621-2.87-8.097-1.506-12.174c1.362-4.078,4.498-7.319,8.528-8.818c7.802-2.904,13.943-9.044,16.848-16.848
	c1.5-4.029,4.74-7.164,8.818-8.528c4.076-1.362,8.552-0.809,12.174,1.508l168.287,107.631c6.446,4.123,8.474,12.607,4.591,19.2
	c-22.046,37.429-53.481,68.865-90.91,90.91C383.522,478.029,381.036,478.666,378.578,478.666z M290.977,301.09l91.962,143.79
	c24.408-16.439,45.501-37.532,61.941-61.941l-143.788-91.962C298.158,294.758,294.758,298.158,290.977,301.09z"/>
<path style="fill:#CFF09E;" d="M241.067,215.845L133.433,47.559c-35.399,20.85-65.024,50.475-85.874,85.874l168.286,107.635
	C220.177,229.424,229.424,220.177,241.067,215.845z"/>
<path style="fill:#507C5C;" d="M215.846,255.289c-2.685,0-5.349-0.761-7.664-2.241L39.896,145.414
	c-6.446-4.123-8.474-12.607-4.592-19.2c22.046-37.429,53.483-68.865,90.91-90.91c6.592-3.881,15.077-1.855,19.2,4.592
	l107.635,168.287c2.317,3.622,2.87,8.098,1.506,12.176s-4.5,7.319-8.529,8.818c-7.805,2.904-13.948,9.045-16.852,16.852
	c-1.499,4.029-4.74,7.165-8.818,8.528C218.886,255.047,217.362,255.289,215.846,255.289z M67.12,129.062l143.787,91.965
	c2.934-3.786,6.335-7.184,10.119-10.119L129.061,67.122C104.653,83.558,83.56,104.651,67.12,129.062z"/>
<path style="fill:#CFF09E;" d="M354.607,256c0-54.46-44.149-98.607-98.607-98.607S157.393,201.54,157.393,256
	s44.149,98.607,98.607,98.607S354.607,310.46,354.607,256z M218.406,256c0-20.762,16.831-37.594,37.594-37.594
	s37.594,16.831,37.594,37.594S276.762,293.594,256,293.594S218.406,276.762,218.406,256z"/>
<path style="fill:#507C5C;" d="M256,368.829c-62.215,0-112.829-50.615-112.829-112.829S193.786,143.171,256,143.171
	S368.829,193.786,368.829,256S318.215,368.829,256,368.829z M256,171.615c-46.531,0-84.385,37.855-84.385,84.385
	s37.855,84.385,84.385,84.385s84.385-37.855,84.385-84.385S302.531,171.615,256,171.615z M256,307.816
	c-28.571,0-51.816-23.245-51.816-51.816s23.245-51.816,51.816-51.816s51.816,23.245,51.816,51.816S284.571,307.816,256,307.816z
	 M256,232.629c-12.887,0-23.371,10.485-23.371,23.371c0,12.887,10.485,23.371,23.371,23.371c12.887,0,23.371-10.485,23.371-23.371
	C279.371,243.113,268.887,232.629,256,232.629z"/>
<g>
</g>
<g>
</g>
<g>
</g>
<g>
</g>
<g>
</g>
<g>
</g>
<g>
</g>
<g>
</g>
<g>
</g>
<g>
</g>
<g>
</g>
<g>
</g>
<g>
</g>
<g>
</g>
<g>
</g>
</svg>
