<?xml version="1.0" encoding="iso-8859-1"?>
<!-- Generator: Adobe Illustrator 19.0.0, SVG Export Plug-In . SVG Version: 6.00 Build 0)  -->
<svg version="1.1" id="Layer_1" xmlns="http://www.w3.org/2000/svg" xmlns:xlink="http://www.w3.org/1999/xlink" x="0px" y="0px"
	 viewBox="0 0 512 512" style="enable-background:new 0 0 512 512;" xml:space="preserve">
<path style="fill:#507C5C;" d="M469.432,512H66.836c-21.589,0-39.153-17.563-39.153-39.151V208.657
	c0-21.589,17.564-39.151,39.153-39.151h378.327c21.589,0,39.153,17.563,39.153,39.151v189.678c0,8.22-6.664,14.883-14.883,14.883
	c-8.218,0-14.883-6.663-14.883-14.883V208.657c0-5.176-4.21-9.386-9.388-9.386H66.836c-5.178,0-9.388,4.212-9.388,9.386v264.191
	c0,5.176,4.21,9.386,9.388,9.386h402.597c8.218,0,14.883,6.663,14.883,14.883C484.316,505.337,477.652,512,469.432,512z"/>
<path style="fill:#CFF09E;" d="M255.999,14.882L53.566,162.732c-6.913,5.05-11,13.095-11,21.656l0,0v22.976l0,0
	c0,8.56,4.087,16.607,11,21.656l202.433,147.85l202.433-147.85c6.913-5.05,11-13.095,11-21.656l0,0v-22.976l0,0
	c0-8.56-4.087-16.607-11-21.656L255.999,14.882z"/>
<g>
	<path style="fill:#507C5C;" d="M255.999,391.753c-3.081,0-6.164-0.955-8.778-2.863L44.788,241.038
		c-10.709-7.822-17.104-20.411-17.104-33.675v-22.976c0-13.263,6.395-25.852,17.106-33.675L247.221,2.863
		c5.23-3.817,12.327-3.817,17.557,0l202.433,147.85c10.709,7.822,17.104,20.411,17.104,33.675v22.976
		c0,13.263-6.395,25.852-17.106,33.675l-202.432,147.85C262.163,390.798,259.08,391.753,255.999,391.753z M255.999,33.311
		L62.345,174.752c-3.067,2.238-4.896,5.841-4.896,9.638v22.976c0,3.797,1.829,7.398,4.895,9.638l193.656,141.44l193.654-141.44
		c3.067-2.238,4.896-5.841,4.896-9.638v-22.976c0-3.797-1.829-7.398-4.895-9.638L255.999,33.311z"/>
	<path style="fill:#507C5C;" d="M221.921,210.758H46.205c-8.218,0-14.883-6.663-14.883-14.883s6.664-14.883,14.883-14.883H221.92
		c8.218,0,14.883,6.663,14.883,14.883C236.802,204.095,230.139,210.758,221.921,210.758z"/>
	<path style="fill:#507C5C;" d="M338.75,210.758h-58.042c-8.218,0-14.883-6.663-14.883-14.883s6.664-14.883,14.883-14.883h58.042
		c8.218,0,14.883,6.663,14.883,14.883C353.633,204.095,346.968,210.758,338.75,210.758z"/>
	<path style="fill:#507C5C;" d="M455.831,210.758h-58.042c-8.218,0-14.883-6.663-14.883-14.883s6.664-14.883,14.883-14.883h58.042
		c8.218,0,14.883,6.663,14.883,14.883C470.713,204.095,464.051,210.758,455.831,210.758z"/>
</g>
<g>
</g>
<g>
</g>
<g>
</g>
<g>
</g>
<g>
</g>
<g>
</g>
<g>
</g>
<g>
</g>
<g>
</g>
<g>
</g>
<g>
</g>
<g>
</g>
<g>
</g>
<g>
</g>
<g>
</g>
</svg>
