<?xml version="1.0" encoding="iso-8859-1"?>
<!-- Generator: Adobe Illustrator 19.0.0, SVG Export Plug-In . SVG Version: 6.00 Build 0)  -->
<svg version="1.1" id="Layer_1" xmlns="http://www.w3.org/2000/svg" xmlns:xlink="http://www.w3.org/1999/xlink" x="0px" y="0px"
	 viewBox="0 0 512 512" style="enable-background:new 0 0 512 512;" xml:space="preserve">
<g>
	<path style="fill:#507C5C;" d="M496.343,324.098h-140.14c-8.647,0-15.657-7.01-15.657-15.657s7.01-15.657,15.657-15.657h124.483
		V31.314H219.216v107.261c0,8.647-7.01,15.657-15.657,15.657s-15.657-7.01-15.657-15.657V15.657C187.902,7.01,194.911,0,203.559,0
		h292.784C504.99,0,512,7.01,512,15.657v292.784C512,317.089,504.99,324.098,496.343,324.098z"/>
	<path style="fill:#507C5C;" d="M230.423,512H15.657C7.01,512,0,504.99,0,496.343V203.559c0-8.647,7.01-15.657,15.657-15.657
		h292.784c8.647,0,15.657,7.01,15.657,15.657v198.833c0,8.647-7.01,15.657-15.657,15.657s-15.657-7.01-15.657-15.657V219.216H31.314
		v261.471h199.109c8.647,0,15.657,7.01,15.657,15.657C246.08,504.99,239.07,512,230.423,512z"/>
</g>
<polygon style="fill:#CFF09E;" points="109.608,109.608 109.608,203.559 308.441,203.559 308.441,402.392 402.392,402.392 
	402.392,109.608 "/>
<path style="fill:#507C5C;" d="M402.392,418.049h-93.951c-8.647,0-15.657-7.01-15.657-15.657V219.216H109.608
	c-8.647,0-15.657-7.01-15.657-15.657v-93.951c0-8.647,7.01-15.657,15.657-15.657h292.784c8.647,0,15.657,7.01,15.657,15.657v292.784
	C418.049,411.039,411.039,418.049,402.392,418.049z M324.098,386.735h62.637V125.265H125.265v62.637h183.177
	c8.647,0,15.657,7.01,15.657,15.657V386.735z"/>
<g>
</g>
<g>
</g>
<g>
</g>
<g>
</g>
<g>
</g>
<g>
</g>
<g>
</g>
<g>
</g>
<g>
</g>
<g>
</g>
<g>
</g>
<g>
</g>
<g>
</g>
<g>
</g>
<g>
</g>
</svg>
