<?xml version="1.0" encoding="iso-8859-1"?>
<!-- Generator: Adobe Illustrator 19.0.0, SVG Export Plug-In . SVG Version: 6.00 Build 0)  -->
<svg version="1.1" id="Layer_1" xmlns="http://www.w3.org/2000/svg" xmlns:xlink="http://www.w3.org/1999/xlink" x="0px" y="0px"
	 viewBox="0 0 512 512" style="enable-background:new 0 0 512 512;" xml:space="preserve">
<g>
	<path style="fill:#507C5C;" d="M364.745,512c-1.962,0-3.938-0.379-5.823-1.158c-5.689-2.357-9.397-7.907-9.397-14.064V411.47
		c0-8.406,6.815-15.223,15.223-15.223h85.307c6.156,0,11.708,3.71,14.064,9.397c2.357,5.689,1.053,12.236-3.299,16.59
		l-85.307,85.307C372.601,510.453,368.706,512,364.745,512z M379.971,426.693v33.332l33.333-33.332H379.971z"/>
	<path style="fill:#507C5C;" d="M297.413,512H83.932c-20.519,0-37.211-16.692-37.211-37.209V37.209C46.721,16.692,63.414,0,83.932,0
		h344.136c20.519,0,37.211,16.692,37.211,37.209v374.26c0,4.037-1.604,7.908-4.459,10.764l-85.307,85.307
		c-5.945,5.943-15.584,5.943-21.53,0c-5.945-5.945-5.945-15.584,0-21.53l80.849-80.849V37.209c0-3.73-3.035-6.764-6.765-6.764
		H83.932c-3.73,0-6.765,3.034-6.765,6.764v437.58c0,3.73,3.035,6.764,6.765,6.764h213.481c8.408,0,15.223,6.817,15.223,15.223
		C312.635,505.182,305.82,512,297.413,512z"/>
</g>
<rect x="145.668" y="93.377" style="fill:#CFF09E;" width="220.671" height="60.891"/>
<path style="fill:#507C5C;" d="M366.339,169.485H145.662c-8.408,0-15.223-6.817-15.223-15.223V93.371
	c0-8.406,6.815-15.223,15.223-15.223h220.677c8.408,0,15.223,6.817,15.223,15.223v60.891
	C381.562,162.669,374.746,169.485,366.339,169.485z M160.885,139.04h190.231v-30.446H160.885V139.04z"/>
<rect x="144.892" y="218.966" style="fill:#CFF09E;" width="63.881" height="60.891"/>
<path style="fill:#507C5C;" d="M208.771,295.074h-63.88c-8.408,0-15.223-6.817-15.223-15.223V218.96
	c0-8.406,6.815-15.223,15.223-15.223h63.88c8.408,0,15.223,6.817,15.223,15.223v60.891
	C223.994,288.257,217.179,295.074,208.771,295.074z M160.115,264.628h33.434v-30.446h-33.434V264.628z"/>
<rect x="144.892" y="341.51" style="fill:#CFF09E;" width="63.881" height="60.891"/>
<g>
	<path style="fill:#507C5C;" d="M208.771,417.618h-63.88c-8.408,0-15.223-6.817-15.223-15.223v-60.891
		c0-8.406,6.815-15.223,15.223-15.223h63.88c8.408,0,15.223,6.817,15.223,15.223v60.891
		C223.994,410.801,217.179,417.618,208.771,417.618z M160.115,387.172h33.434v-30.446h-33.434V387.172z"/>
	<path style="fill:#507C5C;" d="M366.339,295.074h-63.881c-8.408,0-15.223-6.817-15.223-15.223V218.96
		c0-8.406,6.815-15.223,15.223-15.223h63.881c8.408,0,15.223,6.817,15.223,15.223v60.891
		C381.562,288.257,374.746,295.074,366.339,295.074z M317.68,264.628h33.436v-30.446H317.68V264.628z"/>
	<path style="fill:#507C5C;" d="M302.458,417.618c-8.408,0-15.223-6.817-15.223-15.223v-60.891c0-8.406,6.815-15.223,15.223-15.223
		h63.881c8.408,0,15.223,6.817,15.223,15.223c0,8.406-6.815,15.223-15.223,15.223H317.68v45.669
		C317.68,410.801,310.865,417.618,302.458,417.618z"/>
</g>
<g>
</g>
<g>
</g>
<g>
</g>
<g>
</g>
<g>
</g>
<g>
</g>
<g>
</g>
<g>
</g>
<g>
</g>
<g>
</g>
<g>
</g>
<g>
</g>
<g>
</g>
<g>
</g>
<g>
</g>
</svg>
