<?xml version="1.0" encoding="iso-8859-1"?>
<!-- Generator: Adobe Illustrator 19.0.0, SVG Export Plug-In . SVG Version: 6.00 Build 0)  -->
<svg version="1.1" id="Layer_1" xmlns="http://www.w3.org/2000/svg" xmlns:xlink="http://www.w3.org/1999/xlink" x="0px" y="0px"
	 viewBox="0 0 512 512" style="enable-background:new 0 0 512 512;" xml:space="preserve">
<g>
	<path style="fill:#507C5C;" d="M295.909,512c-4.165,0-8.256-1.626-11.317-4.686l-87.923-87.921
		c-4.576-4.576-5.946-11.458-3.469-17.437s8.31-9.877,14.782-9.877h87.923c8.837,0,16,7.163,16,16V496
		c0,6.47-3.899,12.306-9.877,14.782C300.049,511.602,297.969,512,295.909,512z M246.611,424.079l33.296,33.294v-33.294H246.611z"/>
	<path style="fill:#507C5C;" d="M461.66,512h-77.66c-8.837,0-16-7.163-16-16s7.163-16,16-16h77.66c1.278,0,2.318-1.04,2.318-2.318
		V34.318c0-1.278-1.04-2.318-2.318-2.318H223.983v369.452l83.236,83.235c6.248,6.248,6.248,16.379,0,22.627
		c-6.248,6.248-16.378,6.25-22.629,0l-87.921-87.921c-3-3-4.686-7.07-4.686-11.314V16c0-8.837,7.163-16,16-16h253.675
		c18.923,0,34.318,15.395,34.318,34.318v443.364C495.978,496.605,480.581,512,461.66,512z"/>
</g>
<polygon style="fill:#CFF09E;" points="207.984,16 207.984,408.079 295.905,496 119.985,496 119.985,16 "/>
<path style="fill:#507C5C;" d="M295.937,512c-0.01,0-0.019,0-0.032,0H119.983c-8.837,0-16-7.163-16-16V16c0-8.837,7.163-16,16-16
	h87.999c8.837,0,16,7.163,16,16v385.452l82.649,82.647c3.258,2.93,5.306,7.176,5.306,11.901
	C311.937,504.837,304.774,512,295.937,512z M135.983,480h121.295l-60.608-60.608c-3-3-4.686-7.07-4.686-11.314V32h-56v448H135.983z"
	/>
<path style="fill:#CFF09E;" d="M32.024,34.318v443.364c0,10.117,8.202,18.318,18.318,18.318h69.643V16H50.342
	C40.225,16,32.024,24.201,32.024,34.318z"/>
<path style="fill:#507C5C;" d="M119.983,512H50.342c-18.923,0-34.318-15.395-34.318-34.318V34.318C16.024,15.395,31.419,0,50.342,0
	h69.641c8.837,0,16,7.163,16,16v480C135.983,504.837,128.82,512,119.983,512z M50.342,32c-1.278,0-2.318,1.04-2.318,2.318v443.364
	c0,1.278,1.04,2.318,2.318,2.318h53.641V32H50.342z"/>
<g>
</g>
<g>
</g>
<g>
</g>
<g>
</g>
<g>
</g>
<g>
</g>
<g>
</g>
<g>
</g>
<g>
</g>
<g>
</g>
<g>
</g>
<g>
</g>
<g>
</g>
<g>
</g>
<g>
</g>
</svg>
