<?xml version="1.0" encoding="iso-8859-1"?>
<!-- Generator: Adobe Illustrator 19.0.0, SVG Export Plug-In . SVG Version: 6.00 Build 0)  -->
<svg version="1.1" id="Layer_1" xmlns="http://www.w3.org/2000/svg" xmlns:xlink="http://www.w3.org/1999/xlink" x="0px" y="0px"
	 viewBox="0 0 512 512" style="enable-background:new 0 0 512 512;" xml:space="preserve">
<g>
	<path style="fill:#507C5C;" d="M465.334,193.319c-8.399,0-15.211-6.81-15.211-15.211V87.875c0-6.891-5.608-12.497-12.499-12.497
		H287.449c-8.399,0-15.211-6.81-15.211-15.211s6.811-15.211,15.211-15.211h150.176c23.667,0,42.921,19.254,42.921,42.919v90.233
		C480.545,186.509,473.734,193.319,465.334,193.319z"/>
	<path style="fill:#507C5C;" d="M470.914,482.771H41.086C18.431,482.771,0,464.341,0,441.686V71.96
		c0-23.562,19.169-42.731,42.731-42.731h125.804c23.562,0,42.731,19.169,42.731,42.731v37.468h259.649
		c22.655,0,41.086,18.431,41.086,41.085c0,8.401-6.811,15.211-15.211,15.211c-8.4,0-15.211-6.81-15.211-15.211
		c0-5.879-4.784-10.663-10.664-10.663h-274.86c-8.399,0-15.211-6.81-15.211-15.211V71.96c0-6.787-5.522-12.309-12.309-12.309H42.731
		c-6.787,0-12.309,5.522-12.309,12.309v369.726c0,5.879,4.784,10.663,10.664,10.663h429.827c8.399,0,15.211,6.81,15.211,15.211
		C486.125,475.961,479.313,482.771,470.914,482.771z"/>
</g>
<path style="fill:#CFF09E;" d="M496.788,384.61V150.514c0-14.289-11.585-25.874-25.874-25.874h-274.86V71.96
	c0-15.199-12.321-27.52-27.52-27.52H42.731c-15.199,0-27.52,12.321-27.52,27.52v52.68v47.177v212.795h481.577V384.61z"/>
<path style="fill:#507C5C;" d="M496.789,399.821H15.211C6.811,399.821,0,393.011,0,384.61V71.96
	c0-23.562,19.169-42.731,42.731-42.731h125.804c23.562,0,42.731,19.169,42.731,42.731v37.468h259.649
	c22.655,0,41.086,18.431,41.086,41.085v234.096C512,393.011,505.189,399.821,496.789,399.821z M30.422,369.399h451.156V150.514
	c0-5.879-4.784-10.663-10.664-10.663h-274.86c-8.399,0-15.211-6.81-15.211-15.211V71.96c0-6.787-5.522-12.309-12.309-12.309H42.731
	c-6.787,0-12.309,5.522-12.309,12.309V369.399z"/>
<g>
</g>
<g>
</g>
<g>
</g>
<g>
</g>
<g>
</g>
<g>
</g>
<g>
</g>
<g>
</g>
<g>
</g>
<g>
</g>
<g>
</g>
<g>
</g>
<g>
</g>
<g>
</g>
<g>
</g>
</svg>
