<?xml version="1.0" encoding="iso-8859-1"?>
<!-- Generator: Adobe Illustrator 19.0.0, SVG Export Plug-In . SVG Version: 6.00 Build 0)  -->
<svg version="1.1" id="Layer_1" xmlns="http://www.w3.org/2000/svg" xmlns:xlink="http://www.w3.org/1999/xlink" x="0px" y="0px"
	 viewBox="0 0 512 512" style="enable-background:new 0 0 512 512;" xml:space="preserve">
<rect x="15.261" y="19.789" style="fill:#CFF09E;" width="481.481" height="96.785"/>
<g>
	<path style="fill:#507C5C;" d="M496.739,131.837H15.261C6.832,131.837,0,125.004,0,116.576V19.789
		C0,11.362,6.832,4.528,15.261,4.528h481.478c8.429,0,15.261,6.834,15.261,15.261v96.788
		C512,125.005,505.168,131.837,496.739,131.837z M30.522,101.316h450.956V35.05H30.522V101.316z"/>
	<path style="fill:#507C5C;" d="M496.739,319.655H228.913c-8.429,0-15.261-6.834-15.261-15.261c0-8.427,6.832-15.261,15.261-15.261
		h252.565v-66.267H228.913c-8.429,0-15.261-6.834-15.261-15.261c0-8.427,6.832-15.261,15.261-15.261h267.826
		c8.429,0,15.261,6.834,15.261,15.261v96.789C512,312.822,505.168,319.655,496.739,319.655z"/>
</g>
<rect x="15.261" y="395.425" style="fill:#CFF09E;" width="481.481" height="96.785"/>
<g>
	<path style="fill:#507C5C;" d="M496.739,507.472H15.261C6.832,507.472,0,500.638,0,492.211v-96.788
		c0-8.427,6.832-15.261,15.261-15.261h481.478c8.429,0,15.261,6.834,15.261,15.261v96.788
		C512,500.638,505.168,507.472,496.739,507.472z M30.522,476.95h450.956v-66.266H30.522V476.95z"/>
	<path style="fill:#507C5C;" d="M158.774,271.262H82.412c-8.429,0-15.261-6.834-15.261-15.261c0-8.427,6.832-15.261,15.261-15.261
		h76.362c8.429,0,15.261,6.834,15.261,15.261C174.035,264.429,167.203,271.262,158.774,271.262z"/>
</g>
<polygon style="fill:#CFF09E;" points="97.67,208.421 15.261,256 97.67,303.579 "/>
<path style="fill:#507C5C;" d="M97.67,318.84c-2.636,0-5.27-0.681-7.63-2.045L7.63,269.217C2.909,266.492,0,261.453,0,256.002
	s2.909-10.49,7.63-13.216l82.409-47.58c4.722-2.727,10.539-2.727,15.261,0c4.722,2.726,7.63,7.765,7.63,13.216v95.158
	c0,5.451-2.909,10.49-7.63,13.216C102.939,318.159,100.305,318.84,97.67,318.84z M45.783,256.002l36.626,21.146v-42.294
	L45.783,256.002z"/>
<g>
</g>
<g>
</g>
<g>
</g>
<g>
</g>
<g>
</g>
<g>
</g>
<g>
</g>
<g>
</g>
<g>
</g>
<g>
</g>
<g>
</g>
<g>
</g>
<g>
</g>
<g>
</g>
<g>
</g>
</svg>
