<?xml version="1.0" encoding="iso-8859-1"?>
<!-- Generator: Adobe Illustrator 19.0.0, SVG Export Plug-In . SVG Version: 6.00 Build 0)  -->
<svg version="1.1" id="Layer_1" xmlns="http://www.w3.org/2000/svg" xmlns:xlink="http://www.w3.org/1999/xlink" x="0px" y="0px"
	 viewBox="0 0 512 512" style="enable-background:new 0 0 512 512;" xml:space="preserve">
<g>
	<path style="fill:#507C5C;" d="M336,471.195c-8.835,0-16-7.165-16-16V44.322l-60.862,12.173
		c-8.648,1.744-17.093-3.885-18.827-12.552c-1.733-8.664,3.886-17.094,12.552-18.827l80-16.002
		c4.698-0.942,9.574,0.277,13.282,3.315c3.707,3.038,5.856,7.579,5.856,12.373v430.39C352,464.032,344.835,471.195,336,471.195z"/>
	<path style="fill:#507C5C;" d="M176,503.198c-3.667,0-7.259-1.261-10.144-3.627c-3.707-3.038-5.856-7.579-5.856-12.373V56.808
		c0-8.835,7.165-16,16-16s16,7.165,16,16v410.874l60.862-12.173c8.654-1.741,17.093,3.888,18.827,12.552
		c1.733,8.664-3.886,17.094-12.552,18.827l-80,16.002C178.096,503.098,177.045,503.198,176,503.198z"/>
</g>
<polygon style="fill:#CFF09E;" points="496,56.808 336,24.805 336,455.195 496,487.198 "/>
<path style="fill:#507C5C;" d="M496,503.198c-1.045,0-2.096-0.101-3.138-0.31l-160-32.003c-7.48-1.496-12.862-8.062-12.862-15.69
	V24.805c0-4.794,2.149-9.334,5.856-12.373c3.706-3.038,8.582-4.258,13.282-3.315l160,32.003C506.618,42.616,512,49.182,512,56.81
	V487.2c0,4.794-2.149,9.334-5.856,12.373C503.259,501.938,499.667,503.198,496,503.198z M352,442.078l128,25.603V69.925L352,44.322
	V442.078z"/>
<polygon style="fill:#CFF09E;" points="176,56.808 16,24.805 16,455.195 176,487.198 "/>
<path style="fill:#507C5C;" d="M176,503.198c-1.045,0-2.096-0.101-3.138-0.31l-160-32.003C5.382,469.389,0,462.822,0,455.195V24.805
	c0-4.794,2.149-9.334,5.856-12.373c3.706-3.038,8.579-4.258,13.282-3.315l160,32.003C186.618,42.616,192,49.182,192,56.81V487.2
	c0,4.794-2.149,9.334-5.856,12.373C183.259,501.938,179.667,503.198,176,503.198z M32,442.078l128,25.603V69.925L32,44.322V442.078z
	"/>
<g>
</g>
<g>
</g>
<g>
</g>
<g>
</g>
<g>
</g>
<g>
</g>
<g>
</g>
<g>
</g>
<g>
</g>
<g>
</g>
<g>
</g>
<g>
</g>
<g>
</g>
<g>
</g>
<g>
</g>
</svg>
