<?xml version="1.0" encoding="iso-8859-1"?>
<!-- Generator: Adobe Illustrator 19.0.0, SVG Export Plug-In . SVG Version: 6.00 Build 0)  -->
<svg version="1.1" id="Layer_1" xmlns="http://www.w3.org/2000/svg" xmlns:xlink="http://www.w3.org/1999/xlink" x="0px" y="0px"
	 viewBox="0 0 512 512" style="enable-background:new 0 0 512 512;" xml:space="preserve">
<path style="fill:#507C5C;" d="M495.619,456.095c-1.201,0-2.407-0.146-3.596-0.444l-184.606-46.284
	c-7.921-1.986-12.733-10.017-10.749-17.94c1.984-7.923,10.02-12.732,17.94-10.747l166.223,41.674V89.912L29.574,209.639v92.82
	l180.11,49.426c7.876,2.16,12.508,10.298,10.347,18.173c-2.162,7.876-10.299,12.507-18.173,10.347L10.874,327.996
	C4.452,326.234,0,320.396,0,313.735V198.263c0-6.706,4.513-12.572,10.996-14.293L491.828,56.397
	c4.436-1.177,9.168-0.228,12.809,2.571c3.638,2.799,5.77,7.13,5.77,11.72v370.619c0,4.556-2.1,8.856-5.692,11.658
	C502.09,455.016,498.881,456.095,495.619,456.095z"/>
<polygon style="fill:#CFF09E;" points="495.617,255.999 495.617,70.69 14.787,198.263 14.787,255.999 "/>
<g>
	<path style="fill:#507C5C;" d="M495.619,270.786H14.787C6.622,270.786,0,264.166,0,255.999v-57.735
		c0-6.706,4.513-12.572,10.996-14.293L491.828,56.397c4.439-1.177,9.169-0.226,12.809,2.571c3.638,2.799,5.77,7.13,5.77,11.72
		v185.309C510.406,264.166,503.784,270.786,495.619,270.786z M29.574,241.212h451.258v-151.3L29.574,209.639V241.212z"/>
	<path style="fill:#507C5C;" d="M497.213,491.361c-8.165,0-14.787-6.62-14.787-14.787V35.426c0-8.167,6.622-14.787,14.787-14.787
		S512,27.259,512,35.426v441.148C512,484.739,505.38,491.361,497.213,491.361z"/>
	<path style="fill:#507C5C;" d="M149.248,456.648c-39.322,0-71.312-31.99-71.312-71.312V338.81c0-8.167,6.622-14.787,14.787-14.787
		s14.787,6.62,14.787,14.787v46.526c0,23.015,18.723,41.738,41.738,41.738s41.738-18.723,41.738-41.738v-18.445
		c0-8.167,6.622-14.787,14.787-14.787s14.787,6.62,14.787,14.787v18.445C220.558,424.658,188.568,456.648,149.248,456.648z"/>
</g>
<g>
</g>
<g>
</g>
<g>
</g>
<g>
</g>
<g>
</g>
<g>
</g>
<g>
</g>
<g>
</g>
<g>
</g>
<g>
</g>
<g>
</g>
<g>
</g>
<g>
</g>
<g>
</g>
<g>
</g>
</svg>
