<?xml version="1.0" encoding="iso-8859-1"?>
<!-- Generator: Adobe Illustrator 19.0.0, SVG Export Plug-In . SVG Version: 6.00 Build 0)  -->
<svg version="1.1" id="Layer_1" xmlns="http://www.w3.org/2000/svg" xmlns:xlink="http://www.w3.org/1999/xlink" x="0px" y="0px"
	 viewBox="0 0 511.999 511.999" style="enable-background:new 0 0 511.999 511.999;" xml:space="preserve">
<path style="fill:#507C5C;" d="M457.258,511.999c-3.557,0-7.112-1.358-9.826-4.07L322.92,383.417
	c-5.426-5.426-5.426-14.225,0-19.653c5.428-5.425,14.224-5.425,19.653,0l114.685,114.685l19.964-19.964l-33.135-33.135
	c-5.426-5.426-5.426-14.225,0-19.653c5.428-5.425,14.224-5.425,19.653,0l42.961,42.961c5.426,5.426,5.426,14.225,0,19.653
	l-39.617,39.617C464.37,510.643,460.814,511.999,457.258,511.999z"/>
<polygon style="fill:#CFF09E;" points="338.649,449.286 305.186,305.187 449.286,338.649 "/>
<g>
	<path style="fill:#507C5C;" d="M338.647,463.181c-1.274,0-2.56-0.175-3.82-0.536c-4.854-1.388-8.572-5.299-9.715-10.218
		l-33.464-144.099c-1.084-4.673,0.318-9.577,3.71-12.969c3.392-3.392,8.297-4.791,12.969-3.71l144.1,33.464
		c4.918,1.142,8.829,4.861,10.218,9.715c1.388,4.852,0.035,10.077-3.534,13.647L348.476,459.111
		C345.832,461.754,342.284,463.181,338.647,463.181z M323.765,323.765l22.757,97.994l75.237-75.237L323.765,323.765z"/>
	<path style="fill:#507C5C;" d="M179.252,152.304c-3.557,0-7.112-1.358-9.826-4.07L54.741,33.549L34.777,53.514l33.135,33.135
		c5.426,5.426,5.426,14.225,0,19.653c-5.428,5.425-14.224,5.425-19.653,0L5.298,63.34c-5.426-5.426-5.426-14.225,0-19.653
		L44.916,4.069c5.428-5.425,14.224-5.425,19.653,0l124.512,124.512c5.426,5.426,5.426,14.225,0,19.653
		C186.366,150.947,182.81,152.304,179.252,152.304z"/>
</g>
<polygon style="fill:#CFF09E;" points="173.351,62.714 206.813,206.814 62.714,173.35 "/>
<g>
	<path style="fill:#507C5C;" d="M206.813,220.71c-1.046,0-2.101-0.118-3.143-0.36l-144.1-33.464
		c-4.918-1.142-8.83-4.861-10.218-9.715c-1.388-4.852-0.035-10.077,3.534-13.647L163.522,52.888
		c3.57-3.567,8.792-4.921,13.647-3.534c4.854,1.388,8.572,5.299,9.715,10.218l33.257,143.206c0.386,1.277,0.595,2.633,0.595,4.037
		c0,7.639-6.163,13.838-13.788,13.896C206.905,220.71,206.859,220.71,206.813,220.71z M90.24,165.476l97.994,22.757l-22.757-97.994
		L90.24,165.476z"/>
	<path style="fill:#507C5C;" d="M53.513,510.771c-3.557,0-7.112-1.358-9.826-4.07L4.07,467.083c-5.426-5.426-5.426-14.225,0-19.653
		l124.512-124.512c5.428-5.425,14.224-5.425,19.653,0c5.426,5.426,5.426,14.225,0,19.653L33.55,457.256l19.964,19.964l33.135-33.135
		c5.428-5.425,14.224-5.425,19.653,0c5.426,5.426,5.426,14.225,0,19.653l-42.961,42.961
		C60.625,509.414,57.07,510.771,53.513,510.771z"/>
</g>
<polygon style="fill:#CFF09E;" points="62.714,338.649 206.813,305.187 173.351,449.286 "/>
<g>
	<path style="fill:#507C5C;" d="M173.351,463.181c-3.635,0-7.184-1.427-9.827-4.07L52.888,348.475
		c-3.568-3.57-4.922-8.795-3.534-13.647c1.388-4.854,5.299-8.572,10.218-9.715l144.1-33.464c4.673-1.083,9.576,0.318,12.969,3.71
		c3.392,3.392,4.794,8.296,3.71,12.969l-33.464,144.1c-1.142,4.918-4.861,8.829-9.715,10.218
		C175.912,463.006,174.625,463.181,173.351,463.181z M90.24,346.523l75.237,75.237l22.757-97.994L90.24,346.523z"/>
	<path style="fill:#507C5C;" d="M373.592,193.149c-3.557,0-7.112-1.358-9.826-4.07c-5.426-5.426-5.426-14.225,0-19.653
		L478.451,54.741l-19.964-19.964l-33.135,33.135c-5.428,5.425-14.224,5.425-19.653,0c-5.426-5.426-5.426-14.225,0-19.653
		l42.961-42.959c5.428-5.425,14.224-5.425,19.653,0l39.617,39.617c5.426,5.426,5.426,14.225,0,19.653L383.417,189.082
		C380.704,191.793,377.148,193.149,373.592,193.149z"/>
</g>
<polygon style="fill:#CFF09E;" points="449.286,173.35 305.186,206.814 338.649,62.714 "/>
<path style="fill:#507C5C;" d="M305.184,220.71c-3.643,0-7.19-1.434-9.826-4.07c-3.392-3.392-4.794-8.296-3.71-12.969l33.464-144.1
	c1.142-4.918,4.861-8.83,9.715-10.218c4.854-1.387,10.077-0.033,13.647,3.534L459.11,163.523c3.568,3.57,4.922,8.795,3.534,13.647
	c-1.388,4.854-5.299,8.572-10.218,9.715l-144.1,33.464C307.286,220.592,306.231,220.71,305.184,220.71z M346.522,90.239
	l-22.757,97.994l97.994-22.757L346.522,90.239z"/>
<g>
</g>
<g>
</g>
<g>
</g>
<g>
</g>
<g>
</g>
<g>
</g>
<g>
</g>
<g>
</g>
<g>
</g>
<g>
</g>
<g>
</g>
<g>
</g>
<g>
</g>
<g>
</g>
<g>
</g>
</svg>
