<?xml version="1.0" encoding="iso-8859-1"?>
<!-- Generator: Adobe Illustrator 19.0.0, SVG Export Plug-In . SVG Version: 6.00 Build 0)  -->
<svg version="1.1" id="Layer_1" xmlns="http://www.w3.org/2000/svg" xmlns:xlink="http://www.w3.org/1999/xlink" x="0px" y="0px"
	 viewBox="0 0 512 512" style="enable-background:new 0 0 512 512;" xml:space="preserve">
<path style="fill:#507C5C;" d="M148.722,450.161c-7.728,0-13.993-6.266-13.993-13.993V107.486c0-6.092,3.943-11.487,9.75-13.334
	L438.327,0.659c4.251-1.353,8.897-0.597,12.501,2.039c3.605,2.635,5.734,6.831,5.734,11.295v356.671
	c0,7.727-6.265,13.993-13.993,13.993c-7.728,0-13.993-6.266-13.993-13.993V33.129l-265.862,84.589v318.45
	C162.715,443.897,156.45,450.161,148.722,450.161z"/>
<polygon style="fill:#CFF09E;" points="148.722,107.486 148.722,219.112 442.57,125.619 442.57,13.993 "/>
<g>
	<path style="fill:#507C5C;" d="M148.722,233.105c-2.934,0-5.832-0.922-8.26-2.698c-3.605-2.635-5.734-6.831-5.734-11.295V107.486
		c0-6.092,3.943-11.487,9.75-13.334L438.327,0.659c4.255-1.35,8.898-0.595,12.503,2.039c3.603,2.635,5.733,6.831,5.733,11.295
		v111.625c0,6.092-3.943,11.487-9.75,13.334l-293.848,93.493C151.575,232.888,150.145,233.105,148.722,233.105z M162.715,117.717
		v82.258l265.862-84.589V33.129L162.715,117.717z"/>
	<path style="fill:#507C5C;" d="M205.161,440.873c-7.728,0-13.993-6.266-13.993-13.993V262.231c0-7.727,6.265-13.993,13.993-13.993
		s13.993,6.266,13.993,13.993V426.88C219.153,434.608,212.889,440.873,205.161,440.873z"/>
	<path style="fill:#507C5C;" d="M386.13,316.474c-7.728,0-13.993-6.266-13.993-13.993V192.26c0-7.727,6.265-13.993,13.993-13.993
		s13.993,6.266,13.993,13.993v110.221C400.122,310.208,393.858,316.474,386.13,316.474z"/>
</g>
<circle style="fill:#CFF09E;" cx="137.297" cy="430.139" r="67.865"/>
<g>
	<path style="fill:#507C5C;" d="M137.295,512c-45.137,0-81.858-36.721-81.858-81.858s36.721-81.858,81.858-81.858
		s81.858,36.721,81.858,81.858S182.432,512,137.295,512z M137.295,376.27c-29.705,0-53.872,24.167-53.872,53.872
		s24.167,53.872,53.872,53.872s53.872-24.167,53.872-53.872S167.001,376.27,137.295,376.27z"/>
	<path style="fill:#507C5C;" d="M374.704,451.834c-45.137,0-81.858-36.721-81.858-81.858s36.721-81.858,81.858-81.858
		c4.437,0,8.891,0.358,13.236,1.066c7.627,1.241,12.805,8.431,11.564,16.06c-1.241,7.629-8.429,12.813-16.06,11.564
		c-2.863-0.466-5.804-0.702-8.741-0.702c-29.705,0-53.872,24.167-53.872,53.872c0,29.705,24.167,53.872,53.872,53.872
		s53.872-24.167,53.872-53.872c0-7.727,6.265-13.993,13.993-13.993c7.728,0,13.993,6.266,13.993,13.993
		C456.562,415.112,419.841,451.834,374.704,451.834z"/>
</g>
<g>
</g>
<g>
</g>
<g>
</g>
<g>
</g>
<g>
</g>
<g>
</g>
<g>
</g>
<g>
</g>
<g>
</g>
<g>
</g>
<g>
</g>
<g>
</g>
<g>
</g>
<g>
</g>
<g>
</g>
</svg>
