<?xml version="1.0" encoding="iso-8859-1"?>
<!-- Generator: Adobe Illustrator 19.0.0, SVG Export Plug-In . SVG Version: 6.00 Build 0)  -->
<svg version="1.1" id="Layer_1" xmlns="http://www.w3.org/2000/svg" xmlns:xlink="http://www.w3.org/1999/xlink" x="0px" y="0px"
	 viewBox="0 0 512 512" style="enable-background:new 0 0 512 512;" xml:space="preserve">
<polygon style="fill:#CFF09E;" points="402.357,182.347 497.598,251.741 402.357,321.135 "/>
<path style="fill:#507C5C;" d="M402.356,335.537c-2.229,0-4.467-0.516-6.528-1.565c-4.83-2.457-7.872-7.417-7.872-12.836v-138.79
	c0-5.419,3.042-10.379,7.872-12.836c4.832-2.456,10.631-1.995,15.011,1.197l95.241,69.395c3.72,2.71,5.921,7.037,5.921,11.64
	c0,4.603-2.201,8.929-5.921,11.64l-95.241,69.395C408.328,334.605,405.351,335.537,402.356,335.537z M416.759,210.659v82.164
	l56.382-41.081L416.759,210.659z"/>
<polygon style="fill:#CFF09E;" points="324.928,182.347 420.168,251.741 324.928,321.135 "/>
<g>
	<path style="fill:#507C5C;" d="M324.927,335.537c-2.229,0-4.467-0.516-6.528-1.565c-4.83-2.457-7.872-7.417-7.872-12.836v-138.79
		c0-5.419,3.042-10.379,7.872-12.836c4.832-2.456,10.631-1.995,15.011,1.197l95.241,69.395c3.72,2.71,5.921,7.037,5.921,11.64
		c0,4.603-2.201,8.929-5.921,11.64l-95.241,69.395C330.898,334.605,327.921,335.537,324.927,335.537z M339.33,210.659v82.164
		l56.382-41.081L339.33,210.659z"/>
	<path style="fill:#507C5C;" d="M203.756,469.486H40.97c-22.591,0-40.97-18.38-40.97-40.97V83.484c0-22.592,18.38-40.97,40.97-40.97
		h197.824c22.592,0,40.97,18.38,40.97,40.97v295.472c0,7.953-6.449,14.402-14.402,14.402c-7.954,0-14.402-6.449-14.402-14.402
		V83.484c0-6.708-5.458-12.167-12.167-12.167H40.97c-6.708,0-12.167,5.458-12.167,12.167v345.032
		c0,6.708,5.458,12.167,12.167,12.167h162.786c7.954,0,14.402,6.449,14.402,14.402S211.711,469.486,203.756,469.486z"/>
	<path style="fill:#507C5C;" d="M68.526,294.84c0-0.737,0.246-1.72,0.491-2.702l45.689-149.843
		c2.702-8.598,13.757-12.773,25.055-12.773c11.298,0,22.353,4.175,25.055,12.773l45.935,149.843
		c0.245,0.982,0.491,1.964,0.491,2.702c0,9.089-14.002,15.721-24.564,15.721c-6.141,0-11.053-1.964-12.528-7.123l-8.352-30.705
		h-51.828l-8.352,30.705c-1.473,5.159-6.387,7.123-12.528,7.123C82.527,310.562,68.526,303.929,68.526,294.84z M157.693,243.256
		l-17.932-65.832l-17.932,65.832H157.693z"/>
	<path style="fill:#507C5C;" d="M177.235,368.07H102.53c-7.954,0-14.402-6.449-14.402-14.402s6.448-14.402,14.402-14.402h74.707
		c7.954,0,14.402,6.449,14.402,14.402S185.19,368.07,177.235,368.07z"/>
</g>
<g>
</g>
<g>
</g>
<g>
</g>
<g>
</g>
<g>
</g>
<g>
</g>
<g>
</g>
<g>
</g>
<g>
</g>
<g>
</g>
<g>
</g>
<g>
</g>
<g>
</g>
<g>
</g>
<g>
</g>
</svg>
