<?xml version="1.0" encoding="iso-8859-1"?>
<!-- Generator: Adobe Illustrator 19.0.0, SVG Export Plug-In . SVG Version: 6.00 Build 0)  -->
<svg version="1.1" id="Layer_1" xmlns="http://www.w3.org/2000/svg" xmlns:xlink="http://www.w3.org/1999/xlink" x="0px" y="0px"
	 viewBox="0 0 512 512" style="enable-background:new 0 0 512 512;" xml:space="preserve">
<g>
	<path style="fill:#507C5C;" d="M459.378,482.138H52.622C23.606,482.138,0,458.532,0,429.516V169.321
		c0-29.016,23.606-52.622,52.622-52.622h75.376V64.709c0-19.216,15.633-34.847,34.847-34.847h186.307
		c19.216,0,34.847,15.633,34.847,34.847c0,7.855-6.367,14.222-14.222,14.222c-7.855,0-14.222-6.367-14.222-14.222
		c0-3.531-2.873-6.403-6.403-6.403H162.846c-3.53,0-6.403,2.873-6.403,6.403v66.212c0,7.855-6.367,14.222-14.222,14.222H52.622
		c-13.332,0-24.178,10.846-24.178,24.178v260.196c0,13.332,10.846,24.178,24.178,24.178h406.756
		c13.332,0,24.178-10.846,24.178-24.178V287.292c0-7.855,6.367-14.222,14.222-14.222S512,279.438,512,287.292v142.224
		C512,458.532,488.394,482.138,459.378,482.138z"/>
	<path style="fill:#507C5C;" d="M497.778,216.184c-7.855,0-14.222-6.367-14.222-14.222v-32.643
		c0-13.332-10.846-24.178-24.178-24.178h-89.599c-7.855,0-14.222-6.367-14.222-14.222s6.367-14.222,14.222-14.222h89.599
		c29.016,0,52.622,23.606,52.622,52.622v32.643C512,209.817,505.633,216.184,497.778,216.184z"/>
</g>
<rect x="192" y="93.86" style="fill:#CFF09E;" width="128" height="56.903"/>
<path style="fill:#507C5C;" d="M320.001,164.987H191.999c-7.855,0-14.222-6.367-14.222-14.222V93.86
	c0-7.855,6.367-14.222,14.222-14.222h128.003c7.855,0,14.222,6.367,14.222,14.222v56.906
	C334.224,158.62,327.856,164.987,320.001,164.987z M206.221,136.543h99.558v-28.46h-99.558V136.543z"/>
<circle style="fill:#CFF09E;" cx="256" cy="345.599" r="119.461"/>
<g>
	<path style="fill:#507C5C;" d="M256,479.288c-73.714,0-133.685-59.971-133.685-133.685S182.286,211.92,256,211.92
		s133.685,59.971,133.685,133.683C389.685,419.317,329.714,479.288,256,479.288z M256,240.365
		c-58.03,0-105.24,47.209-105.24,105.239S197.97,450.844,256,450.844s105.24-47.211,105.24-105.24S314.03,240.365,256,240.365z"/>
	<path style="fill:#507C5C;" d="M108.44,217.602H16c-7.855,0-14.222-6.367-14.222-14.222c0-7.855,6.367-14.222,14.222-14.222h92.44
		c7.855,0,14.222,6.367,14.222,14.222C122.662,211.235,116.295,217.602,108.44,217.602z"/>
	<path style="fill:#507C5C;" d="M496,217.602h-92.44c-7.855,0-14.222-6.367-14.222-14.222c0-7.855,6.367-14.222,14.222-14.222H496
		c7.855,0,14.222,6.367,14.222,14.222C510.222,211.235,503.855,217.602,496,217.602z"/>
</g>
<g>
</g>
<g>
</g>
<g>
</g>
<g>
</g>
<g>
</g>
<g>
</g>
<g>
</g>
<g>
</g>
<g>
</g>
<g>
</g>
<g>
</g>
<g>
</g>
<g>
</g>
<g>
</g>
<g>
</g>
</svg>
