<?xml version="1.0" encoding="iso-8859-1"?>
<!-- Generator: Adobe Illustrator 19.0.0, SVG Export Plug-In . SVG Version: 6.00 Build 0)  -->
<svg version="1.1" id="Layer_1" xmlns="http://www.w3.org/2000/svg" xmlns:xlink="http://www.w3.org/1999/xlink" x="0px" y="0px"
	 viewBox="0 0 511.997 511.997" style="enable-background:new 0 0 511.997 511.997;" xml:space="preserve">
<polygon style="fill:#CFF09E;" points="419.12,198.581 497.924,255.999 419.12,313.418 "/>
<path style="fill:#507C5C;" d="M419.118,327.493c-2.179,0-4.366-0.504-6.381-1.53c-4.721-2.401-7.694-7.249-7.694-12.546V198.581
	c0-5.297,2.973-10.145,7.694-12.546c4.721-2.4,10.39-1.95,14.67,1.17l78.803,57.418c3.636,2.649,5.787,6.878,5.787,11.377
	s-2.151,8.727-5.787,11.377l-78.803,57.418C424.956,326.582,422.045,327.493,419.118,327.493z M433.196,226.254v59.49l40.823-29.745
	L433.196,226.254z"/>
<polygon style="fill:#CFF09E;" points="92.879,198.581 14.076,255.999 92.879,313.418 "/>
<g>
	<path style="fill:#507C5C;" d="M92.88,327.493c-2.926,0-5.836-0.911-8.291-2.7L5.787,267.375C2.151,264.726,0,260.499,0,255.999
		s2.151-8.727,5.787-11.377l78.803-57.418c4.281-3.121,9.951-3.571,14.67-1.17c4.721,2.401,7.694,7.249,7.694,12.546v114.835
		c0,5.297-2.973,10.145-7.694,12.546C97.247,326.987,95.059,327.493,92.88,327.493z M37.98,255.999l40.823,29.745v-59.49
		L37.98,255.999z"/>
	<path style="fill:#507C5C;" d="M312.305,445.57H168.807c-20.675,0-37.497-16.82-37.497-37.497V103.924
		c0-20.675,16.821-37.497,37.497-37.497h174.384c20.675,0,37.497,16.82,37.497,37.497v260.46c0,7.773-6.302,14.076-14.076,14.076
		s-14.076-6.303-14.076-14.076v-260.46c0-5.152-4.192-9.344-9.344-9.344H168.807c-5.152,0-9.344,4.192-9.344,9.344v304.149
		c0,5.152,4.192,9.344,9.344,9.344h143.498c7.774,0,14.076,6.303,14.076,14.076S320.079,445.57,312.305,445.57z"/>
	<path style="fill:#507C5C;" d="M255.457,204.276c29.881,0,53.05,12.559,53.05,47.204v4.113c0,36.161-23.602,49.802-52.616,49.802
		c-34.862,0-53.483-19.92-53.483-40.274c0-11.693,6.279-14.939,16.89-14.939c14.724,0,16.889,5.629,16.889,12.559
		c0,8.66,8.228,13.208,18.838,13.208c12.342,0,19.704-6.279,19.704-20.354v-4.113c0-14.29-7.362-21.22-19.271-21.22h-32.912
		c-9.96,0-12.991-4.98-12.991-13.208c0-2.165,0.217-3.899,0.434-6.279l5.846-54.566c0.649-6.496,2.382-10.394,6.063-10.394h69.073
		c6.496,0,9.744,7.362,9.744,14.724c0,7.362-3.249,14.724-9.744,14.724H243.55l-2.165,29.014H255.457z"/>
	<path style="fill:#507C5C;" d="M288.927,356.171h-65.855c-7.774,0-14.076-6.303-14.076-14.076c0-7.773,6.302-14.076,14.076-14.076
		h65.855c7.774,0,14.076,6.303,14.076,14.076C303.003,349.867,296.701,356.171,288.927,356.171z"/>
</g>
<g>
</g>
<g>
</g>
<g>
</g>
<g>
</g>
<g>
</g>
<g>
</g>
<g>
</g>
<g>
</g>
<g>
</g>
<g>
</g>
<g>
</g>
<g>
</g>
<g>
</g>
<g>
</g>
<g>
</g>
</svg>
