<?xml version="1.0" encoding="iso-8859-1"?>
<!-- Generator: Adobe Illustrator 19.0.0, SVG Export Plug-In . SVG Version: 6.00 Build 0)  -->
<svg version="1.1" id="Layer_1" xmlns="http://www.w3.org/2000/svg" xmlns:xlink="http://www.w3.org/1999/xlink" x="0px" y="0px"
	 viewBox="0 0 511.999 511.999" style="enable-background:new 0 0 511.999 511.999;" xml:space="preserve">
<g>
	<path style="fill:#507C5C;" d="M413.257,414.828H47.237C21.189,414.828,0,393.636,0,367.589V144.408
		C0,118.361,21.189,97.17,47.237,97.17h417.526c26.047,0,47.237,21.191,47.237,47.238v163.144c0,7.79-6.317,14.106-14.106,14.106
		c-7.79,0-14.106-6.317-14.106-14.106V144.408c0-10.491-8.534-19.025-19.024-19.025H47.237
		c-10.489-0.001-19.024,8.534-19.024,19.025V367.59c0,10.491,8.534,19.025,19.024,19.025h366.02c7.79,0,14.106,6.317,14.106,14.106
		C427.363,408.512,421.046,414.828,413.257,414.828z"/>
	<path style="fill:#507C5C;" d="M456.678,369.53c-3.611,0-7.22-1.378-9.975-4.132l-47.88-47.878c-5.509-5.509-5.509-14.441,0-19.951
		c5.51-5.507,14.439-5.507,19.951,0l47.88,47.878c5.509,5.509,5.509,14.441,0,19.951C463.897,368.153,460.289,369.53,456.678,369.53
		z"/>
</g>
<circle style="fill:#CFF09E;" cx="374.764" cy="273.521" r="61.36"/>
<g>
	<path style="fill:#507C5C;" d="M374.769,348.981c-20.158,0-39.11-7.849-53.363-22.103c-14.253-14.254-22.103-33.205-22.103-53.362
		c0-20.158,7.849-39.11,22.103-53.363c14.254-14.253,33.205-22.103,53.363-22.103c20.158,0,39.11,7.849,53.363,22.103
		c29.423,29.423,29.423,77.301,0,106.724C413.878,341.133,394.927,348.981,374.769,348.981z M374.769,226.263
		c-12.621,0-24.487,4.915-33.414,13.841c-8.925,8.924-13.841,20.79-13.841,33.414c0,12.621,4.915,24.487,13.841,33.412
		c8.925,8.925,20.791,13.841,33.414,13.841c12.622,0,24.487-4.915,33.414-13.841c18.424-18.424,18.424-48.402,0-66.825
		C399.256,231.178,387.39,226.263,374.769,226.263z"/>
	<path style="fill:#507C5C;" d="M256.674,317.638H91.629c-7.79,0-14.106-6.317-14.106-14.106c0-7.79,6.317-14.106,14.106-14.106
		h165.044c7.79,0,14.106,6.317,14.106,14.106C270.78,311.322,264.465,317.638,256.674,317.638z"/>
</g>
<g>
</g>
<g>
</g>
<g>
</g>
<g>
</g>
<g>
</g>
<g>
</g>
<g>
</g>
<g>
</g>
<g>
</g>
<g>
</g>
<g>
</g>
<g>
</g>
<g>
</g>
<g>
</g>
<g>
</g>
</svg>
