<?xml version="1.0" encoding="iso-8859-1"?>
<!-- Generator: Adobe Illustrator 19.0.0, SVG Export Plug-In . SVG Version: 6.00 Build 0)  -->
<svg version="1.1" id="Layer_1" xmlns="http://www.w3.org/2000/svg" xmlns:xlink="http://www.w3.org/1999/xlink" x="0px" y="0px"
	 viewBox="0 0 511.999 511.999" style="enable-background:new 0 0 511.999 511.999;" xml:space="preserve">
<path style="fill:#507C5C;" d="M435.892,412.367H58.36c-32.18,0-58.36-26.18-58.36-58.36V157.991c0-32.18,26.18-58.36,58.36-58.36
	h395.279c32.18,0,58.36,26.181,58.36,58.361v191.367c0,7.641-6.195,13.838-13.838,13.838s-13.838-6.197-13.838-13.838V157.991
	c0-16.921-13.765-30.685-30.684-30.685H58.36c-16.92,0.001-30.684,13.766-30.684,30.685v196.015
	c0,16.92,13.765,30.685,30.684,30.685h377.532c7.643,0,13.838,6.197,13.838,13.838C449.73,406.171,443.534,412.367,435.892,412.367z
	"/>
<rect x="247.698" y="161.902" style="fill:#CFF09E;" width="202.033" height="188.195"/>
<g>
	<path style="fill:#507C5C;" d="M449.73,363.935H247.697c-7.643,0-13.838-6.197-13.838-13.838V161.902
		c0-7.641,6.195-13.838,13.838-13.838H449.73c7.643,0,13.838,6.197,13.838,13.838v188.195
		C463.567,357.738,457.372,363.935,449.73,363.935z M261.534,336.259h174.357V175.74H261.534V336.259z"/>
	<path style="fill:#507C5C;" d="M287.937,272.026v-29.869c0-19.387,12.06-26.601,27.615-26.601s27.727,7.214,27.727,26.601v29.869
		c0,19.385-12.172,26.599-27.727,26.599C299.997,298.624,287.937,291.41,287.937,272.026z M325.695,242.157
		c0-7.777-3.833-11.272-10.145-11.272c-6.311,0-10.031,3.494-10.031,11.272v29.869c0,7.777,3.72,11.271,10.031,11.271
		c6.313,0,10.145-3.493,10.145-11.271V242.157z"/>
	<path style="fill:#507C5C;" d="M393.544,293.215l-21.416-38.999v38.323c0,3.605-4.396,5.409-8.793,5.409
		c-4.395,0-8.791-1.804-8.791-5.409v-71.572c0-3.72,4.396-5.411,8.791-5.411c6.313,0,8.679,0.563,12.962,8.793l18.259,34.827
		v-38.321c0-3.72,4.396-5.297,8.793-5.297c4.395,0,8.791,1.579,8.791,5.297v71.686c0,3.605-4.396,5.409-8.791,5.409
		C399.292,297.949,395.686,297.16,393.544,293.215z"/>
</g>
<g>
</g>
<g>
</g>
<g>
</g>
<g>
</g>
<g>
</g>
<g>
</g>
<g>
</g>
<g>
</g>
<g>
</g>
<g>
</g>
<g>
</g>
<g>
</g>
<g>
</g>
<g>
</g>
<g>
</g>
</svg>
