<?xml version="1.0" encoding="iso-8859-1"?>
<!-- Generator: Adobe Illustrator 19.0.0, SVG Export Plug-In . SVG Version: 6.00 Build 0)  -->
<svg version="1.1" id="Layer_1" xmlns="http://www.w3.org/2000/svg" xmlns:xlink="http://www.w3.org/1999/xlink" x="0px" y="0px"
	 viewBox="0 0 512 512" style="enable-background:new 0 0 512 512;" xml:space="preserve">
<path style="fill:#507C5C;" d="M465.659,232.951h-79.877c-7.678,0-13.905-6.225-13.905-13.905s6.227-13.905,13.905-13.905h65.972
	V27.809H251.855c-8.742,0-15.853,7.111-15.853,15.851v56.795c0,7.68-6.225,13.905-13.905,13.905c-7.68,0-13.905-6.225-13.905-13.905
	V43.661C208.193,19.586,227.779,0,251.855,0h213.806c7.678,0,13.905,6.225,13.905,13.905v205.141
	C479.564,226.726,473.339,232.951,465.659,232.951z"/>
<path style="fill:#CFF09E;" d="M265.249,153.334H71.784v191.235h186.505c23.831,0,43.15-19.319,43.15-43.15V117.144
	C301.439,137.049,285.154,153.334,265.249,153.334z"/>
<g>
	<path style="fill:#507C5C;" d="M258.289,358.474H71.784c-7.68,0-13.905-6.225-13.905-13.905V153.334
		c0-7.68,6.225-13.905,13.905-13.905h193.466c12.289,0,22.285-9.997,22.285-22.285c0-7.68,6.227-13.905,13.905-13.905
		c7.678,0,13.905,6.225,13.905,13.905v184.275C315.344,332.878,289.749,358.474,258.289,358.474z M85.688,330.665h172.6
		c16.127,0,29.246-13.119,29.246-29.246V162.004c-6.716,3.351-14.283,5.235-22.285,5.235H85.688V330.665z"/>
	<path style="fill:#507C5C;" d="M71.784,512c-7.68,0-13.905-6.225-13.905-13.905V99.049c0-7.68,6.225-13.905,13.905-13.905
		s13.905,6.225,13.905,13.905v399.045C85.688,505.775,79.463,512,71.784,512z"/>
</g>
<circle style="fill:#CFF09E;" cx="71.784" cy="108.763" r="25.444"/>
<path style="fill:#507C5C;" d="M71.784,148.116c-21.697,0-39.349-17.652-39.349-39.349s17.652-39.349,39.349-39.349
	s39.349,17.652,39.349,39.349S93.481,148.116,71.784,148.116z M71.784,97.226c-6.363,0-11.54,5.177-11.54,11.54
	s5.177,11.539,11.54,11.539c6.363,0,11.539-5.177,11.539-11.539C83.323,102.403,78.146,97.226,71.784,97.226z"/>
<g>
</g>
<g>
</g>
<g>
</g>
<g>
</g>
<g>
</g>
<g>
</g>
<g>
</g>
<g>
</g>
<g>
</g>
<g>
</g>
<g>
</g>
<g>
</g>
<g>
</g>
<g>
</g>
<g>
</g>
</svg>
