<?xml version="1.0" encoding="iso-8859-1"?>
<!-- Generator: Adobe Illustrator 19.0.0, SVG Export Plug-In . SVG Version: 6.00 Build 0)  -->
<svg version="1.1" id="Layer_1" xmlns="http://www.w3.org/2000/svg" xmlns:xlink="http://www.w3.org/1999/xlink" x="0px" y="0px"
	 viewBox="0 0 512 512" style="enable-background:new 0 0 512 512;" xml:space="preserve">
<g>
	<path style="fill:#507C5C;" d="M256,158.186c-7.766,0-14.061-6.296-14.061-14.061V14.061C241.939,6.296,248.234,0,256,0
		c7.766,0,14.061,6.296,14.061,14.061v130.064C270.061,151.889,263.766,158.186,256,158.186z"/>
	<path style="fill:#507C5C;" d="M333.335,512H96.487c-7.766,0-14.061-6.296-14.061-14.061V178.061c0-4.045,1.742-7.894,4.782-10.565
		L246.721,27.384c5.307-4.66,13.251-4.66,18.558,0l159.513,140.112c3.04,2.67,4.782,6.52,4.782,10.565v319.139
		c0,7.764-6.295,14.061-14.061,14.061s-14.061-6.296-14.061-14.061V184.425L256,56.664L110.548,184.425v299.453h222.787
		c7.766,0,14.061,6.296,14.061,14.061S341.101,512,333.335,512z"/>
	<path style="fill:#507C5C;" d="M286.231,158.186h-60.462c-7.766,0-14.061-6.296-14.061-14.061s6.295-14.061,14.061-14.061h60.462
		c7.766,0,14.061,6.296,14.061,14.061S293.997,158.186,286.231,158.186z"/>
</g>
<rect x="96.487" y="255.909" style="fill:#CFF09E;" width="236.843" height="160.295"/>
<g>
	<path style="fill:#507C5C;" d="M333.335,430.265H96.487c-7.766,0-14.061-6.296-14.061-14.061V255.909
		c0-7.764,6.295-14.061,14.061-14.061h236.848c7.766,0,14.061,6.296,14.061,14.061v160.295
		C347.396,423.969,341.101,430.265,333.335,430.265z M110.548,402.143h208.726V269.97H110.548V402.143z"/>
	<path style="fill:#507C5C;" d="M186.165,321.996H96.487c-7.766,0-14.061-6.296-14.061-14.061s6.295-14.061,14.061-14.061h89.678
		c7.766,0,14.061,6.297,14.061,14.061S193.931,321.996,186.165,321.996z"/>
	<path style="fill:#507C5C;" d="M247.095,378.24H96.487c-7.766,0-14.061-6.296-14.061-14.061s6.295-14.061,14.061-14.061h150.608
		c7.766,0,14.061,6.296,14.061,14.061S254.861,378.24,247.095,378.24z"/>
</g>
<g>
</g>
<g>
</g>
<g>
</g>
<g>
</g>
<g>
</g>
<g>
</g>
<g>
</g>
<g>
</g>
<g>
</g>
<g>
</g>
<g>
</g>
<g>
</g>
<g>
</g>
<g>
</g>
<g>
</g>
</svg>
