<?xml version="1.0" encoding="iso-8859-1"?>
<!-- Generator: Adobe Illustrator 19.0.0, SVG Export Plug-In . SVG Version: 6.00 Build 0)  -->
<svg version="1.1" id="Layer_1" xmlns="http://www.w3.org/2000/svg" xmlns:xlink="http://www.w3.org/1999/xlink" x="0px" y="0px"
	 viewBox="0 0 512.001 512.001" style="enable-background:new 0 0 512.001 512.001;" xml:space="preserve">
<path style="fill:#CFF09E;" d="M124.881,241.811v28.377c0,8.134-6.595,14.729-14.729,14.729H28.811
	c-8.134,0-14.729-6.595-14.729-14.729v-28.377c0-8.134,6.595-14.729,14.729-14.729h81.341
	C118.288,227.084,124.881,233.677,124.881,241.811z"/>
<g>
	<path style="fill:#507C5C;" d="M110.153,299H28.81C12.925,299,0,286.076,0,270.19v-28.377c0-15.886,12.925-28.81,28.81-28.81
		h81.343c15.886,0,28.811,12.925,28.811,28.81v28.377C138.964,286.076,126.039,299,110.153,299z M28.81,241.166
		c-0.356,0-0.645,0.29-0.645,0.645v28.377c0,0.356,0.29,0.645,0.645,0.645h81.343c0.356,0,0.646-0.29,0.646-0.645v-28.377
		c0-0.356-0.29-0.645-0.646-0.645H28.81z"/>
	<path style="fill:#507C5C;" d="M198.731,270.083h-17.792c-7.778,0-14.082-6.305-14.082-14.082s6.305-14.082,14.082-14.082h17.792
		c7.778,0,14.082,6.305,14.082,14.082S206.509,270.083,198.731,270.083z"/>
	<path style="fill:#507C5C;" d="M264.917,270.083h-17.792c-7.778,0-14.082-6.305-14.082-14.082s6.305-14.082,14.082-14.082h17.792
		c7.776,0,14.082,6.305,14.082,14.082S272.695,270.083,264.917,270.083z"/>
	<path style="fill:#507C5C;" d="M331.106,270.083h-17.793c-7.776,0-14.082-6.305-14.082-14.082s6.306-14.082,14.082-14.082h17.793
		c7.776,0,14.082,6.305,14.082,14.082S338.883,270.083,331.106,270.083z"/>
	<path style="fill:#507C5C;" d="M65.249,241.101c-5.437,0-10.615-3.167-12.921-8.471c-1.948-4.478-1.158-11.546-0.152-16.686
		c18.99-97.371,104.89-168.05,204.25-168.05c99.358,0,185.26,70.677,204.253,168.053c1.489,7.633-3.492,15.029-11.126,16.517
		c-7.624,1.486-15.029-3.492-16.517-11.127C416.617,137.159,342.342,76.06,256.427,76.06c-85.827,0-160.038,60.98-176.558,145.026
		c-0.162,1.12-0.47,3.709-0.572,4.992c0.383,5.767-2.835,11.412-8.44,13.849C69.031,240.724,67.124,241.101,65.249,241.101z"/>
	<path style="fill:#507C5C;" d="M256.427,464.106c-47.938,0-94.731-16.696-131.756-47.014
		c-36.509-29.893-61.999-71.632-71.778-117.526c-1.621-7.607,3.232-15.086,10.838-16.707c7.614-1.625,15.088,3.232,16.707,10.838
		C98,376.119,172.014,435.942,256.427,435.942c54.422,0,105.343-24.25,139.71-66.531c4.904-6.036,13.774-6.951,19.81-2.046
		c6.034,4.905,6.951,13.774,2.045,19.81C378.255,436.065,319.365,464.106,256.427,464.106z"/>
</g>
<path style="fill:#CFF09E;" d="M241.833,387.098h28.377c8.134,0,14.729,6.595,14.729,14.729v81.341
	c0,8.134-6.595,14.729-14.729,14.729h-28.377c-8.134,0-14.729-6.595-14.729-14.729v-81.343
	C227.104,393.691,233.699,387.098,241.833,387.098z"/>
<path style="fill:#507C5C;" d="M270.211,511.98h-28.377c-15.886,0-28.811-12.925-28.811-28.811v-81.343
	c0-15.886,12.925-28.81,28.811-28.81h28.377c15.886,0,28.811,12.925,28.811,28.81v81.343
	C299.022,499.055,286.097,511.98,270.211,511.98z M241.833,401.181c-0.356,0-0.646,0.29-0.646,0.645v81.343
	c0,0.356,0.29,0.646,0.646,0.646h28.377c0.356,0,0.646-0.29,0.646-0.646v-81.343c0-0.356-0.29-0.645-0.646-0.645H241.833z"/>
<path style="fill:#CFF09E;" d="M241.833,14.104h28.377c8.134,0,14.729,6.595,14.729,14.729v81.343
	c0,8.134-6.595,14.729-14.729,14.729h-28.377c-8.134,0-14.729-6.595-14.729-14.729V28.833
	C227.104,20.699,233.699,14.104,241.833,14.104z"/>
<g>
	<path style="fill:#507C5C;" d="M270.211,138.986h-28.377c-15.886,0-28.811-12.925-28.811-28.81V28.833
		c0-15.886,12.925-28.811,28.811-28.811h28.377c15.886,0,28.811,12.925,28.811,28.811v81.343
		C299.022,126.062,286.097,138.986,270.211,138.986z M241.833,28.187c-0.356,0-0.646,0.29-0.646,0.646v81.343
		c0,0.356,0.29,0.645,0.646,0.645h28.377c0.356,0,0.646-0.29,0.646-0.645V28.833c0-0.356-0.29-0.646-0.646-0.646
		C270.211,28.187,241.833,28.187,241.833,28.187z"/>
	<path style="fill:#507C5C;" d="M446.72,299h-44.872c-15.885,0-28.81-12.925-28.81-28.81v-28.377c0-15.886,12.925-28.81,28.81-28.81
		h81.343c15.886,0,28.811,12.925,28.811,28.81v28.377c0,7.778-6.306,14.082-14.082,14.082c-7.776,0-14.082-6.305-14.082-14.082
		v-28.377c0-0.356-0.29-0.645-0.646-0.645h-81.343c-0.356,0-0.645,0.29-0.645,0.645v28.377c0,0.356,0.289,0.645,0.645,0.645h44.872
		c7.776,0,14.082,6.305,14.082,14.082S454.496,299,446.72,299z"/>
</g>
<g>
</g>
<g>
</g>
<g>
</g>
<g>
</g>
<g>
</g>
<g>
</g>
<g>
</g>
<g>
</g>
<g>
</g>
<g>
</g>
<g>
</g>
<g>
</g>
<g>
</g>
<g>
</g>
<g>
</g>
</svg>
