<?xml version="1.0" encoding="iso-8859-1"?>
<!-- Generator: Adobe Illustrator 19.0.0, SVG Export Plug-In . SVG Version: 6.00 Build 0)  -->
<svg version="1.1" id="Layer_1" xmlns="http://www.w3.org/2000/svg" xmlns:xlink="http://www.w3.org/1999/xlink" x="0px" y="0px"
	 viewBox="0 0 512 512" style="enable-background:new 0 0 512 512;" xml:space="preserve">
<path style="fill:#507C5C;" d="M382.261,512H86.443c-32.785,0-59.459-26.674-59.459-59.46V59.46C26.984,26.674,53.656,0,86.443,0
	h295.818c42.074,0,76.305,34.229,76.305,76.305v359.391C458.566,477.77,424.336,512,382.261,512z M86.443,28.499
	c-17.071,0-30.96,13.889-30.96,30.961v393.08c0,17.071,13.889,30.961,30.96,30.961h295.818c26.36,0,47.806-21.445,47.806-47.806
	V76.305c0-26.36-21.445-47.806-47.806-47.806H86.443z"/>
<path style="fill:#CFF09E;" d="M141.884,14.249h-55.44c-24.968,0-45.209,20.241-45.209,45.209V452.54
	c0,24.968,20.241,45.209,45.209,45.209h55.44V14.249z"/>
<path style="fill:#507C5C;" d="M141.884,512h-55.44c-32.785,0-59.459-26.674-59.459-59.46V59.459C26.984,26.674,53.656,0,86.443,0
	h55.442c7.87,0,14.249,6.381,14.249,14.249V497.75C156.133,505.619,149.754,512,141.884,512z M86.443,28.499
	c-17.071,0-30.96,13.888-30.96,30.96V452.54c0,17.071,13.889,30.961,30.96,30.961h41.192V28.499H86.443z"/>
<path style="fill:#CFF09E;" d="M442.602,320.716h-86.165c-15.555,0-28.164-12.609-28.164-28.164v-73.103
	c0-15.555,12.609-28.164,28.164-28.164h86.165c15.555,0,28.164,12.609,28.164,28.164v73.103
	C470.766,308.105,458.157,320.716,442.602,320.716z"/>
<g>
	<path style="fill:#507C5C;" d="M442.602,334.964h-86.165c-23.388,0-42.414-19.027-42.414-42.414v-73.104
		c0-23.386,19.027-42.414,42.414-42.414h86.165c23.388,0,42.414,19.027,42.414,42.414v73.104
		C485.016,315.938,465.988,334.964,442.602,334.964z M356.437,205.533c-7.672,0-13.915,6.243-13.915,13.915v73.104
		c0,7.672,6.243,13.915,13.915,13.915h86.165c7.672,0,13.915-6.243,13.915-13.915v-73.104c0-7.672-6.243-13.915-13.915-13.915
		H356.437z"/>
	<path style="fill:#507C5C;" d="M375.296,270.249h-89.772c-7.87,0-14.25-6.381-14.25-14.249s6.38-14.249,14.25-14.249h89.772
		c7.87,0,14.249,6.381,14.249,14.249C389.545,263.868,383.165,270.249,375.296,270.249z"/>
</g>
<g>
</g>
<g>
</g>
<g>
</g>
<g>
</g>
<g>
</g>
<g>
</g>
<g>
</g>
<g>
</g>
<g>
</g>
<g>
</g>
<g>
</g>
<g>
</g>
<g>
</g>
<g>
</g>
<g>
</g>
</svg>
