<?xml version="1.0" encoding="iso-8859-1"?>
<!-- Generator: Adobe Illustrator 19.0.0, SVG Export Plug-In . SVG Version: 6.00 Build 0)  -->
<svg version="1.1" id="Layer_1" xmlns="http://www.w3.org/2000/svg" xmlns:xlink="http://www.w3.org/1999/xlink" x="0px" y="0px"
	 viewBox="0 0 512 512" style="enable-background:new 0 0 512 512;" xml:space="preserve">
<g>
	<path style="fill:#507C5C;" d="M404.584,511.993H107.418c-31.697,0-57.483-25.788-57.483-57.483V57.489
		c0-31.695,25.786-57.483,57.483-57.483h297.166c31.697,0,57.483,25.788,57.483,57.483V454.51
		C462.068,486.205,436.281,511.993,404.584,511.993z M107.418,28.449c-16.013,0-29.04,13.027-29.04,29.04V454.51
		c0,16.013,13.027,29.04,29.04,29.04h297.166c16.013,0,29.04-13.027,29.04-29.04V57.489c0-16.013-13.027-29.04-29.04-29.04
		C404.584,28.449,107.418,28.449,107.418,28.449z"/>
	<path style="fill:#507C5C;" d="M64.155,192.459c-3.639,0-7.28-1.389-10.056-4.165c-5.553-5.553-5.553-14.559,0-20.113
		L218.115,4.164c5.553-5.552,14.559-5.552,20.113,0c5.553,5.553,5.553,14.559,0,20.113L74.212,188.294
		C71.434,191.07,67.794,192.459,64.155,192.459z"/>
	<path style="fill:#507C5C;" d="M228.171,512c-3.639,0-7.28-1.389-10.056-4.165L54.098,343.818c-5.553-5.553-5.553-14.559,0-20.113
		c5.553-5.552,14.559-5.552,20.113,0l164.016,164.016c5.553,5.553,5.553,14.559,0,20.113C235.45,510.611,231.811,512,228.171,512z"
		/>
</g>
<path style="fill:#CFF09E;" d="M335.354,327.107H176.647c-19.008,0-34.417-15.409-34.417-34.417v-73.379
	c0-19.008,15.409-34.417,34.417-34.417h158.707c19.008,0,34.417,15.409,34.417,34.417v73.379
	C369.772,311.698,354.363,327.107,335.354,327.107z"/>
<path style="fill:#507C5C;" d="M335.354,341.328H176.647c-26.819,0-48.639-21.82-48.639-48.639v-73.38
	c0-26.819,21.82-48.639,48.639-48.639h158.709c26.819,0,48.639,21.82,48.639,48.639v73.38
	C383.993,319.51,362.175,341.328,335.354,341.328z M176.647,199.113c-11.137,0-20.196,9.061-20.196,20.196v73.38
	c0,11.135,9.061,20.196,20.196,20.196h158.709c11.137,0,20.196-9.06,20.196-20.196v-73.38c0-11.135-9.061-20.196-20.196-20.196
	L176.647,199.113L176.647,199.113z"/>
<g>
</g>
<g>
</g>
<g>
</g>
<g>
</g>
<g>
</g>
<g>
</g>
<g>
</g>
<g>
</g>
<g>
</g>
<g>
</g>
<g>
</g>
<g>
</g>
<g>
</g>
<g>
</g>
<g>
</g>
</svg>
