<?xml version="1.0" encoding="iso-8859-1"?>
<!-- Generator: Adobe Illustrator 19.0.0, SVG Export Plug-In . SVG Version: 6.00 Build 0)  -->
<svg version="1.1" id="Layer_1" xmlns="http://www.w3.org/2000/svg" xmlns:xlink="http://www.w3.org/1999/xlink" x="0px" y="0px"
	 viewBox="0 0 511.999 511.999" style="enable-background:new 0 0 511.999 511.999;" xml:space="preserve">
<path style="fill:#507C5C;" d="M290.508,368.885h-69.015c-7.724,0-13.985-6.261-13.985-13.985v-75.939
	c0-7.724,6.261-13.985,13.985-13.985s13.985,6.261,13.985,13.985v61.954h41.044V207.177c0-11.316-9.207-20.522-20.522-20.522
	c-11.316,0-20.522,9.207-20.522,20.522v13.467c0,7.724-6.261,13.985-13.985,13.985s-13.985-6.261-13.985-13.985v-13.467
	c0-26.74,21.754-48.493,48.493-48.493s48.493,21.754,48.493,48.493v147.722C304.493,362.624,298.23,368.885,290.508,368.885z"/>
<path style="fill:#CFF09E;" d="M336.38,354.9V154.707c0-19.058,15.45-34.508,34.508-34.508l0,0c19.058,0,34.508,15.45,34.508,34.508
	V354.9H336.38z"/>
<path style="fill:#507C5C;" d="M405.395,368.885h-69.017c-7.723,0-13.985-6.261-13.985-13.985V154.707
	c0-26.74,21.754-48.493,48.494-48.493c26.739,0,48.493,21.754,48.493,48.493V354.9C419.38,362.624,413.119,368.885,405.395,368.885z
	 M350.364,340.914h41.046V154.707c0-11.316-9.207-20.522-20.522-20.522c-11.317,0-20.524,9.207-20.524,20.522V340.914
	L350.364,340.914z"/>
<path style="fill:#CFF09E;" d="M106.605,354.9v-89.958c0-19.058,15.45-34.508,34.508-34.508l0,0
	c19.058,0,34.508,15.45,34.508,34.508V354.9H106.605z"/>
<g>
	<path style="fill:#507C5C;" d="M175.62,368.885h-69.015c-7.724,0-13.985-6.261-13.985-13.985v-89.958
		c0-26.74,21.754-48.493,48.493-48.493s48.493,21.754,48.493,48.493V354.9C189.606,362.624,183.344,368.885,175.62,368.885z
		 M120.591,340.914h41.046v-75.973c0-11.316-9.207-20.522-20.522-20.522c-11.316,0-20.522,9.207-20.522,20.522v75.973H120.591z"/>
	<path style="fill:#507C5C;" d="M466.458,367.415H45.541c-7.724,0-13.985-6.261-13.985-13.985V39.997
		c0-7.724,6.261-13.985,13.985-13.985h420.917c7.723,0,13.985,6.261,13.985,13.985v313.432
		C480.443,361.154,474.182,367.415,466.458,367.415z M59.526,339.444h392.946V53.983H59.526V339.444z"/>
	<path style="fill:#507C5C;" d="M498.015,53.983H13.985C6.261,53.983,0,47.721,0,39.997s6.261-13.985,13.985-13.985h484.029
		c7.723,0,13.985,6.261,13.985,13.985S505.737,53.983,498.015,53.983z"/>
	<path style="fill:#507C5C;" d="M498.015,369.67H13.985C6.261,369.67,0,363.408,0,355.684s6.261-13.985,13.985-13.985h484.029
		c7.723,0,13.985,6.261,13.985,13.985S505.737,369.67,498.015,369.67z"/>
	<rect x="242.02" y="353.429" style="fill:#507C5C;" width="27.971" height="69.58"/>
</g>
<circle style="fill:#CFF09E;" cx="256" cy="442.639" r="29.369"/>
<path style="fill:#507C5C;" d="M256,485.986c-23.905,0-43.355-19.45-43.355-43.355s19.45-43.355,43.355-43.355
	c23.907,0,43.355,19.45,43.355,43.355C299.355,466.537,279.907,485.986,256,485.986z M256,427.247
	c-8.482,0-15.384,6.902-15.384,15.384s6.902,15.384,15.384,15.384c8.482,0,15.384-6.902,15.384-15.384S264.482,427.247,256,427.247z
	"/>
<g>
</g>
<g>
</g>
<g>
</g>
<g>
</g>
<g>
</g>
<g>
</g>
<g>
</g>
<g>
</g>
<g>
</g>
<g>
</g>
<g>
</g>
<g>
</g>
<g>
</g>
<g>
</g>
<g>
</g>
</svg>
