<?xml version="1.0" encoding="iso-8859-1"?>
<!-- Generator: Adobe Illustrator 19.0.0, SVG Export Plug-In . SVG Version: 6.00 Build 0)  -->
<svg version="1.1" id="Layer_1" xmlns="http://www.w3.org/2000/svg" xmlns:xlink="http://www.w3.org/1999/xlink" x="0px" y="0px"
	 viewBox="0 0 512 512" style="enable-background:new 0 0 512 512;" xml:space="preserve">
<path style="fill:#507C5C;" d="M413.327,512H98.673c-33.562,0-60.866-27.305-60.866-60.866V60.866C37.807,27.305,65.111,0,98.673,0
	h314.654c33.562,0,60.866,27.305,60.866,60.866v390.268C474.193,484.695,446.889,512,413.327,512z M98.673,30.117
	c-16.956,0-30.749,13.793-30.749,30.749v390.268c0,16.956,13.793,30.749,30.749,30.749h314.654
	c16.956,0,30.749-13.793,30.749-30.749V60.866c0-16.956-13.793-30.749-30.749-30.749H98.673z"/>
<path style="fill:#CFF09E;" d="M205.101,15.058H98.673c-25.3,0-45.808,20.51-45.808,45.808v66.063L205.101,15.058z"/>
<path style="fill:#507C5C;" d="M52.864,141.987c-2.32,0-4.65-0.535-6.799-1.623c-5.066-2.563-8.258-7.757-8.258-13.435V60.866
	C37.807,27.304,65.111,0,98.673,0h106.428c6.508,0,12.28,4.182,14.308,10.366s-0.146,12.973-5.392,16.828L61.782,139.064
	C59.148,140.999,56.014,141.987,52.864,141.987z M98.673,30.117c-16.956,0-30.749,13.793-30.749,30.749v36.31l91.255-67.059
	C159.179,30.117,98.673,30.117,98.673,30.117z"/>
<path style="fill:#CFF09E;" d="M459.135,126.929V60.866c0-25.298-20.509-45.808-45.808-45.808H306.899L459.135,126.929z"/>
<path style="fill:#507C5C;" d="M459.136,141.987c-3.15,0-6.284-0.988-8.918-2.923L297.981,27.194
	c-5.245-3.855-7.421-10.642-5.392-16.828C294.617,4.182,300.389,0,306.899,0h106.428c33.562,0,60.866,27.304,60.866,60.866v66.063
	c0,5.679-3.194,10.872-8.258,13.435C463.786,141.452,461.457,141.987,459.136,141.987z M352.819,30.117l91.257,67.059v-36.31
	c0-16.956-13.793-30.749-30.749-30.749C413.327,30.117,352.819,30.117,352.819,30.117z"/>
<path style="fill:#CFF09E;" d="M306.899,496.942h106.428c25.3,0,45.808-20.509,45.808-45.808v-66.063L306.899,496.942z"/>
<path style="fill:#507C5C;" d="M413.327,512H306.899c-6.508,0-12.28-4.182-14.308-10.366s0.146-12.973,5.392-16.828l152.236-111.87
	c4.575-3.361,10.649-3.866,15.716-1.3c5.066,2.563,8.258,7.757,8.258,13.435v66.063C474.193,484.696,446.889,512,413.327,512z
	 M352.819,481.883h60.508c16.956,0,30.749-13.793,30.749-30.749v-36.31L352.819,481.883z"/>
<path style="fill:#CFF09E;" d="M52.865,385.071v66.063c0,25.298,20.51,45.808,45.808,45.808h106.428L52.865,385.071z"/>
<g>
	<path style="fill:#507C5C;" d="M205.101,512H98.673c-33.562,0-60.866-27.304-60.866-60.866v-66.063
		c0-5.679,3.194-10.872,8.258-13.435c5.063-2.566,11.14-2.061,15.716,1.3l152.236,111.87c5.245,3.855,7.421,10.642,5.392,16.828
		C217.381,507.817,211.609,512,205.101,512z M67.924,414.824v36.31c0,16.956,13.793,30.749,30.749,30.749h60.508L67.924,414.824z"/>
	<path style="fill:#507C5C;" d="M356.891,188.239H155.109c-8.317,0-15.058-6.743-15.058-15.058s6.742-15.058,15.058-15.058h201.782
		c8.317,0,15.058,6.743,15.058,15.058S365.208,188.239,356.891,188.239z"/>
	<path style="fill:#507C5C;" d="M319.242,274.072H192.756c-8.317,0-15.058-6.743-15.058-15.058s6.742-15.058,15.058-15.058h126.486
		c8.317,0,15.058,6.743,15.058,15.058C334.301,267.328,327.559,274.072,319.242,274.072z"/>
</g>
<g>
</g>
<g>
</g>
<g>
</g>
<g>
</g>
<g>
</g>
<g>
</g>
<g>
</g>
<g>
</g>
<g>
</g>
<g>
</g>
<g>
</g>
<g>
</g>
<g>
</g>
<g>
</g>
<g>
</g>
</svg>
