<?xml version="1.0" encoding="iso-8859-1"?>
<!-- Generator: Adobe Illustrator 19.0.0, SVG Export Plug-In . SVG Version: 6.00 Build 0)  -->
<svg version="1.1" id="Layer_1" xmlns="http://www.w3.org/2000/svg" xmlns:xlink="http://www.w3.org/1999/xlink" x="0px" y="0px"
	 viewBox="0 0 511.999 511.999" style="enable-background:new 0 0 511.999 511.999;" xml:space="preserve">
<path style="fill:#507C5C;" d="M451.735,500.293H60.265C27.035,500.293,0,473.258,0,440.026V171.191
	c0-33.23,27.035-60.265,60.265-60.265h391.469c33.23,0,60.265,27.035,60.265,60.265v268.837
	C512,473.258,484.965,500.293,451.735,500.293z M60.265,138.021c-18.29,0-33.169,14.88-33.169,33.169v268.837
	c0,18.29,14.88,33.169,33.169,33.169h391.469c18.29,0,33.169-14.88,33.169-33.169V171.191c0-18.29-14.88-33.169-33.169-33.169
	H60.265V138.021z"/>
<path style="fill:#CFF09E;" d="M129.283,196.775v-61.593c0-5.41-4.385-9.796-9.796-9.796H61.251
	c-25.672,0-46.483,20.811-46.483,46.483v24.908c0,5.41,4.385,9.796,9.796,9.796h94.923
	C124.898,206.571,129.283,202.186,129.283,196.775z"/>
<path style="fill:#507C5C;" d="M119.488,220.119H24.565c-12.872,0-23.343-10.471-23.343-23.343v-24.908
	c0-33.101,26.929-60.03,60.03-60.03h58.237c12.872,0,23.343,10.471,23.343,23.343v61.594
	C142.831,209.648,132.36,220.119,119.488,220.119z M28.316,193.024h87.419v-54.09H61.251c-18.16,0-32.935,14.774-32.935,32.935
	C28.316,171.869,28.316,193.024,28.316,193.024z"/>
<path style="fill:#CFF09E;" d="M392.512,206.571h94.923c5.41,0,9.796-4.385,9.796-9.796v-24.906
	c0-25.672-20.811-46.483-46.483-46.483h-58.235c-5.41,0-9.796,4.385-9.796,9.796v61.594
	C382.717,202.186,387.102,206.571,392.512,206.571z"/>
<path style="fill:#507C5C;" d="M487.435,220.119h-94.923c-12.872,0-23.343-10.471-23.343-23.343v-61.594
	c0-12.872,10.471-23.343,23.343-23.343h58.235c33.101,0,60.03,26.929,60.03,60.03v24.908
	C510.779,209.648,500.307,220.119,487.435,220.119z M396.265,193.024h87.419v-21.155c0-18.16-14.774-32.935-32.935-32.935h-54.484
	V193.024z"/>
<path style="fill:#CFF09E;" d="M382.717,414.441v61.594c0,5.41,4.385,9.796,9.796,9.796h58.235
	c25.672,0,46.483-20.811,46.483-46.483V414.44c0-5.41-4.385-9.796-9.796-9.796h-94.923
	C387.102,404.646,382.717,409.032,382.717,414.441z"/>
<path style="fill:#507C5C;" d="M450.747,499.38h-58.235c-12.872,0-23.343-10.471-23.343-23.343v-61.594
	c0-12.872,10.471-23.343,23.343-23.343h94.923c12.872,0,23.343,10.471,23.343,23.343v24.908
	C510.779,472.45,483.849,499.38,450.747,499.38z M396.265,472.284h54.484c18.161,0,32.935-14.774,32.935-32.935v-21.155h-87.419
	V472.284z"/>
<path style="fill:#CFF09E;" d="M119.488,404.646H24.565c-5.41,0-9.796,4.385-9.796,9.796v24.908
	c0,25.672,20.811,46.483,46.483,46.483h58.235c5.41,0,9.796-4.385,9.796-9.796v-61.595
	C129.283,409.032,124.898,404.646,119.488,404.646z"/>
<g>
	<path style="fill:#507C5C;" d="M119.488,499.38H61.251c-33.101,0-60.03-26.929-60.03-60.03v-24.908
		c0-12.872,10.471-23.343,23.343-23.343h94.923c12.872,0,23.343,10.471,23.343,23.343v61.594
		C142.831,488.907,132.36,499.38,119.488,499.38z M28.316,418.194v21.155c0,18.16,14.774,32.935,32.935,32.935h54.484v-54.09H28.316
		z"/>
	<path style="fill:#507C5C;" d="M177.958,134.994c-7.482,0-13.548-6.067-13.548-13.548V56.177c0-24.522,19.949-44.471,44.469-44.471
		h94.24c24.52,0,44.469,19.951,44.469,44.471v14.495c0,7.481-6.065,13.548-13.548,13.548c-7.482,0-13.548-6.067-13.548-13.548
		V56.177c0-9.581-7.794-17.375-17.374-17.375h-94.239c-9.58,0-17.374,7.794-17.374,17.375v65.269
		C191.505,128.929,185.44,134.994,177.958,134.994z"/>
	<path style="fill:#507C5C;" d="M249.596,385.209c-26.967-0.898-48.992-14.832-48.992-29.215c0-7.641,6.743-18.878,15.282-18.878
		c9.439,0,17.08,13.259,33.71,16.18V316.89c-20.675-7.866-44.946-17.528-44.946-46.294c0-28.54,21.125-42.25,44.946-45.621v-6.293
		c0-3.146,3.596-6.068,8.539-6.068c4.27,0,8.541,2.921,8.541,6.068v5.618c13.933,0.448,40.226,4.044,40.226,19.551
		c0,6.068-4.045,18.429-13.933,18.429c-7.416,0-11.686-7.193-26.294-8.316v32.812c20.45,7.641,44.272,18.203,44.272,48.541
		c0,27.867-17.978,44.721-44.272,48.992v6.517c0,3.147-4.27,6.068-8.541,6.068c-4.944,0-8.539-2.921-8.539-6.068v-5.617H249.596z
		 M251.844,281.384v-26.742c-10.112,2.021-14.382,7.191-14.382,12.585C237.461,273.743,243.304,277.787,251.844,281.384z
		 M264.428,322.958v30.114c7.641-1.798,13.709-6.068,13.709-14.157C278.137,331.499,272.519,326.78,264.428,322.958z"/>
</g>
<g>
</g>
<g>
</g>
<g>
</g>
<g>
</g>
<g>
</g>
<g>
</g>
<g>
</g>
<g>
</g>
<g>
</g>
<g>
</g>
<g>
</g>
<g>
</g>
<g>
</g>
<g>
</g>
<g>
</g>
</svg>
