<?xml version="1.0" encoding="iso-8859-1"?>
<!-- Generator: Adobe Illustrator 19.0.0, SVG Export Plug-In . SVG Version: 6.00 Build 0)  -->
<svg version="1.1" id="Layer_1" xmlns="http://www.w3.org/2000/svg" xmlns:xlink="http://www.w3.org/1999/xlink" x="0px" y="0px"
	 viewBox="0 0 512 512" style="enable-background:new 0 0 512 512;" xml:space="preserve">
<path style="fill:#CFF09E;" d="M139.917,272.962v-184.5c0-41.143,33.354-74.496,74.496-74.496l0,0
	c41.143,0,74.496,33.354,74.496,74.496v184.5"/>
<path style="fill:#507C5C;" d="M302.876,272.962h-27.932v-184.5c0-33.376-27.153-60.53-60.53-60.53s-60.532,27.154-60.532,60.53
	v184.5H125.95v-184.5C125.95,39.684,165.635,0,214.413,0c48.779,0,88.464,39.684,88.464,88.462L302.876,272.962L302.876,272.962z"/>
<path style="fill:#CFF09E;" d="M257.489,272.962v-145.4c0-31.644,25.653-57.297,57.297-57.297l0,0
	c31.644,0,57.297,25.653,57.297,57.297v145.402"/>
<g>
	<path style="fill:#507C5C;" d="M386.048,272.962h-27.932v-145.4c0-23.893-19.438-43.331-43.331-43.331
		c-23.892,0-43.33,19.438-43.33,43.331v145.4h-27.932v-145.4c0-39.295,31.968-71.263,71.262-71.263s71.263,31.968,71.263,71.263
		V272.962z"/>
	<path style="fill:#507C5C;" d="M424.554,512H87.446c-7.712,0-13.966-6.253-13.966-13.966s6.254-13.966,13.966-13.966h337.108
		c7.712,0,13.966,6.253,13.966,13.966S432.266,512,424.554,512z"/>
	<path style="fill:#507C5C;" d="M425.305,351.473h-65.492c-7.712,0-13.966-6.253-13.966-13.966s6.254-13.966,13.966-13.966h65.492
		c13.297,0,24.114-10.818,24.114-24.114c0-13.296-10.817-24.114-24.114-24.114H86.695c-13.297,0-24.114,10.818-24.114,24.114
		c0,13.296,10.817,24.114,24.114,24.114h201.426c7.712,0,13.966,6.253,13.966,13.966s-6.254,13.966-13.966,13.966H86.695
		c-28.697,0-52.046-23.347-52.046-52.046c0-28.699,23.348-52.046,52.046-52.046h338.61c28.697,0,52.046,23.347,52.046,52.046
		C477.351,328.126,454.003,351.473,425.305,351.473z"/>
	<path style="fill:#507C5C;" d="M379.148,512H132.851c-6.663,0-12.398-4.707-13.698-11.24l-31.94-160.527
		c-1.506-7.565,3.406-14.919,10.972-16.423c7.561-1.513,14.919,3.406,16.423,10.972l29.706,149.287h223.374l29.706-149.287
		c1.504-7.565,8.866-12.481,16.423-10.972c7.565,1.506,12.479,8.859,10.972,16.423L392.845,500.76
		C391.545,507.295,385.811,512,379.148,512z"/>
</g>
<g>
</g>
<g>
</g>
<g>
</g>
<g>
</g>
<g>
</g>
<g>
</g>
<g>
</g>
<g>
</g>
<g>
</g>
<g>
</g>
<g>
</g>
<g>
</g>
<g>
</g>
<g>
</g>
<g>
</g>
</svg>
