<?xml version="1.0" encoding="iso-8859-1"?>
<!-- Generator: Adobe Illustrator 19.0.0, SVG Export Plug-In . SVG Version: 6.00 Build 0)  -->
<svg version="1.1" id="Layer_1" xmlns="http://www.w3.org/2000/svg" xmlns:xlink="http://www.w3.org/1999/xlink" x="0px" y="0px"
	 viewBox="0 0 512 512" style="enable-background:new 0 0 512 512;" xml:space="preserve">
<path style="fill:#CFF09E;" d="M93.373,497.97V234.619c0-13.793,11.182-24.974,24.974-24.974h56.267
	c13.793,0,24.974,11.182,24.974,24.974V497.97"/>
<g>
	<path style="fill:#507C5C;" d="M213.618,497.97h-28.059V234.618c0-6.036-4.91-10.945-10.945-10.945h-56.267
		c-6.036,0-10.945,4.909-10.945,10.945V497.97H79.343V234.618c0-21.506,17.498-39.004,39.004-39.004h56.266
		c21.507,0,39.004,17.498,39.004,39.004L213.618,497.97L213.618,497.97z"/>
	<path style="fill:#507C5C;" d="M278.799,273.517c-7.749,0-14.03-6.282-14.03-14.03v-40.845c0-11.903,9.685-21.587,21.587-21.587
		h34.53c7.749,0,14.03,6.282,14.03,14.03c0,7.747-6.281,14.03-14.03,14.03h-28.059v34.373
		C292.829,267.236,286.548,273.517,278.799,273.517z"/>
	<path style="fill:#507C5C;" d="M376.539,273.517c-7.749,0-14.03-6.282-14.03-14.03v-40.845c0-11.903,9.685-21.587,21.587-21.587
		h34.53c7.749,0,14.03,6.282,14.03,14.03c0,7.747-6.281,14.03-14.03,14.03h-28.059v34.373
		C390.569,267.236,384.288,273.517,376.539,273.517z"/>
	<path style="fill:#507C5C;" d="M278.799,389.268c-7.749,0-14.03-6.283-14.03-14.03v-40.845c0-11.903,9.685-21.587,21.587-21.587
		h34.53c7.749,0,14.03,6.282,14.03,14.03c0,7.747-6.281,14.03-14.03,14.03h-28.059v34.373
		C292.829,382.986,286.548,389.268,278.799,389.268z"/>
	<path style="fill:#507C5C;" d="M376.539,389.268c-7.749,0-14.03-6.283-14.03-14.03v-40.845c0-11.903,9.685-21.587,21.587-21.587
		h34.53c7.749,0,14.03,6.282,14.03,14.03c0,7.747-6.281,14.03-14.03,14.03h-28.059v34.373
		C390.569,382.986,384.288,389.268,376.539,389.268z"/>
	<path style="fill:#507C5C;" d="M278.799,505.02c-7.749,0-14.03-6.282-14.03-14.03v-40.845c0-11.903,9.685-21.587,21.587-21.587
		h34.53c7.749,0,14.03,6.282,14.03,14.03s-6.281,14.03-14.03,14.03h-28.059v34.373C292.829,498.738,286.548,505.02,278.799,505.02z"
		/>
	<path style="fill:#507C5C;" d="M376.539,505.02c-7.749,0-14.03-6.282-14.03-14.03v-40.845c0-11.903,9.685-21.587,21.587-21.587
		h34.53c7.749,0,14.03,6.282,14.03,14.03s-6.281,14.03-14.03,14.03h-28.059v34.373C390.569,498.738,384.288,505.02,376.539,505.02z"
		/>
	<path style="fill:#507C5C;" d="M412.956,100.311c-7.749,0-14.03-6.282-14.03-14.03V14.03c0-7.747,6.281-14.03,14.03-14.03
		s14.03,6.282,14.03,14.03v72.251C426.986,94.028,420.705,100.311,412.956,100.311z"/>
	<path style="fill:#507C5C;" d="M308.319,100.311c-7.749,0-14.03-6.282-14.03-14.03V14.03c0-7.747,6.281-14.03,14.03-14.03
		s14.03,6.282,14.03,14.03v72.251C322.348,94.028,316.067,100.311,308.319,100.311z"/>
	<path style="fill:#507C5C;" d="M203.681,100.311c-7.749,0-14.03-6.282-14.03-14.03V14.03c0-7.747,6.281-14.03,14.03-14.03
		s14.03,6.282,14.03,14.03v72.251C217.711,94.028,211.43,100.311,203.681,100.311z"/>
	<path style="fill:#507C5C;" d="M99.044,100.311c-7.749,0-14.03-6.282-14.03-14.03V14.03C85.014,6.282,91.295,0,99.044,0
		c7.749,0,14.03,6.282,14.03,14.03v72.251C113.073,94.028,106.792,100.311,99.044,100.311z"/>
	<path style="fill:#507C5C;" d="M442.493,512H69.507c-32.279,0-58.542-26.262-58.542-58.543V85.286
		c0-32.281,26.262-58.543,58.542-58.543h372.986c32.279,0,58.542,26.262,58.542,58.543v368.172
		C501.034,485.739,474.774,512,442.493,512z M69.507,54.804c-16.808,0-30.482,13.675-30.482,30.484V453.46
		c0,16.808,13.675,30.484,30.482,30.484h372.986c16.808,0,30.482-13.675,30.482-30.484V85.286c0-16.808-13.675-30.484-30.482-30.484
		H69.507V54.804z"/>
	<path style="fill:#507C5C;" d="M430.583,115.698H81.418c-7.749,0-14.03-6.282-14.03-14.03s6.281-14.03,14.03-14.03h349.165
		c7.749,0,14.03,6.282,14.03,14.03S438.332,115.698,430.583,115.698z"/>
</g>
<g>
</g>
<g>
</g>
<g>
</g>
<g>
</g>
<g>
</g>
<g>
</g>
<g>
</g>
<g>
</g>
<g>
</g>
<g>
</g>
<g>
</g>
<g>
</g>
<g>
</g>
<g>
</g>
<g>
</g>
</svg>
