<?xml version="1.0" encoding="iso-8859-1"?>
<!-- Generator: Adobe Illustrator 19.0.0, SVG Export Plug-In . SVG Version: 6.00 Build 0)  -->
<svg version="1.1" id="Layer_1" xmlns="http://www.w3.org/2000/svg" xmlns:xlink="http://www.w3.org/1999/xlink" x="0px" y="0px"
	 viewBox="0 0 512 512" style="enable-background:new 0 0 512 512;" xml:space="preserve">
<path style="fill:#507C5C;" d="M417.235,512H94.763c-30.318,0-54.984-24.666-54.984-54.984V159.884
	c0-30.318,24.666-54.982,54.984-54.982h322.473c30.318,0,54.984,24.666,54.984,54.982v297.131
	C472.219,487.334,447.553,512,417.235,512z M94.763,131.541c-15.628,0-28.344,12.715-28.344,28.342v297.131
	c0,15.628,12.714,28.344,28.344,28.344h322.473c15.628,0,28.344-12.715,28.344-28.344v-297.13c0-15.627-12.714-28.342-28.344-28.342
	H94.763V131.541z"/>
<path style="fill:#CFF09E;" d="M458.898,211.131v-51.247c0-23.01-18.653-41.664-41.664-41.664H94.763
	c-23.01,0-41.664,18.653-41.664,41.664v51.247L458.898,211.131L458.898,211.131z"/>
<g>
	<path style="fill:#507C5C;" d="M458.899,224.451h-405.8c-7.357,0-13.32-5.965-13.32-13.32v-51.247
		c0-30.318,24.666-54.982,54.984-54.982h322.473c30.318,0,54.984,24.666,54.984,54.982v51.247
		C472.219,218.486,466.255,224.451,458.899,224.451z M66.419,197.811h379.16v-37.927c0-15.627-12.714-28.342-28.344-28.342H94.763
		c-15.628,0-28.344,12.715-28.344,28.342V197.811z"/>
	<path style="fill:#507C5C;" d="M110.813,331.842c-7.357,0-13.32-5.965-13.32-13.32v-38.778c0-11.301,9.195-20.495,20.495-20.495
		h46.104c7.357,0,13.32,5.965,13.32,13.32s-5.963,13.32-13.32,13.32h-39.96v32.634C124.132,325.877,118.169,331.842,110.813,331.842
		z"/>
	<path style="fill:#507C5C;" d="M230.249,331.842c-7.357,0-13.32-5.965-13.32-13.32v-38.778c0-11.301,9.195-20.495,20.495-20.495
		h46.104c7.357,0,13.32,5.965,13.32,13.32s-5.963,13.32-13.32,13.32h-39.96v32.634C243.57,325.877,237.606,331.842,230.249,331.842z
		"/>
	<path style="fill:#507C5C;" d="M349.688,331.842c-7.357,0-13.32-5.965-13.32-13.32v-38.778c0-11.301,9.195-20.495,20.495-20.495
		h46.104c7.357,0,13.32,5.965,13.32,13.32s-5.963,13.32-13.32,13.32h-39.96v32.634C363.008,325.877,357.044,331.842,349.688,331.842
		z"/>
	<path style="fill:#507C5C;" d="M110.813,456.225c-7.357,0-13.32-5.965-13.32-13.32v-38.778c0-11.301,9.195-20.495,20.495-20.495
		h46.104c7.357,0,13.32,5.965,13.32,13.32s-5.963,13.32-13.32,13.32h-39.96v32.634C124.132,450.261,118.169,456.225,110.813,456.225
		z"/>
	<path style="fill:#507C5C;" d="M230.249,456.225c-7.357,0-13.32-5.965-13.32-13.32v-38.778c0-11.301,9.195-20.495,20.495-20.495
		h46.104c7.357,0,13.32,5.965,13.32,13.32s-5.963,13.32-13.32,13.32h-39.96v32.634C243.57,450.261,237.606,456.225,230.249,456.225z
		"/>
	<path style="fill:#507C5C;" d="M349.688,456.225c-7.357,0-13.32-5.965-13.32-13.32v-38.778c0-11.301,9.195-20.495,20.495-20.495
		h46.104c7.357,0,13.32,5.965,13.32,13.32s-5.963,13.32-13.32,13.32h-39.96v32.634C363.008,450.261,357.044,456.225,349.688,456.225
		z"/>
	<path style="fill:#507C5C;" d="M255.998,123.876c-7.357,0-13.32-5.965-13.32-13.32V58.608c0-7.355,5.963-13.32,13.32-13.32
		c7.357,0,13.32,5.965,13.32,13.32v51.948C269.318,117.911,263.355,123.876,255.998,123.876z"/>
</g>
<circle style="fill:#CFF09E;" cx="255.999" cy="43.956" r="30.636"/>
<path style="fill:#507C5C;" d="M255.998,87.912c-24.237,0-43.956-19.719-43.956-43.956S231.761,0,255.998,0
	s43.956,19.719,43.956,43.956S280.237,87.912,255.998,87.912z M255.998,26.64c-9.548,0-17.316,7.768-17.316,17.316
	s7.768,17.316,17.316,17.316c9.548,0,17.316-7.768,17.316-17.316S265.547,26.64,255.998,26.64z"/>
<g>
</g>
<g>
</g>
<g>
</g>
<g>
</g>
<g>
</g>
<g>
</g>
<g>
</g>
<g>
</g>
<g>
</g>
<g>
</g>
<g>
</g>
<g>
</g>
<g>
</g>
<g>
</g>
<g>
</g>
</svg>
