<?xml version="1.0" encoding="iso-8859-1"?>
<!-- Generator: Adobe Illustrator 19.0.0, SVG Export Plug-In . SVG Version: 6.00 Build 0)  -->
<svg version="1.1" id="Layer_1" xmlns="http://www.w3.org/2000/svg" xmlns:xlink="http://www.w3.org/1999/xlink" x="0px" y="0px"
	 viewBox="0 0 512 512" style="enable-background:new 0 0 512 512;" xml:space="preserve">
<g>
	<path style="fill:#507C5C;" d="M412.192,168.555c-7.855,0-14.222-6.367-14.222-14.222v-27.532c0-3.171-2.58-5.751-5.751-5.751
		H119.783c-3.171,0-5.751,2.58-5.751,5.751v27.532c0,7.855-6.367,14.222-14.222,14.222s-14.222-6.367-14.222-14.222v-27.532
		c0-18.855,15.34-34.195,34.195-34.195h272.435c18.855,0,34.195,15.34,34.195,34.195v27.532
		C426.413,162.187,420.046,168.555,412.192,168.555z"/>
	<path style="fill:#507C5C;" d="M454.516,419.289H57.484C25.787,419.289,0,393.502,0,361.804V64.632
		C0,32.934,25.787,7.147,57.484,7.147h397.031C486.213,7.147,512,32.934,512,64.632v297.173
		C512,393.501,486.212,419.289,454.516,419.289z M57.484,35.591c-16.014,0-29.041,13.027-29.041,29.041v297.173
		c0,16.014,13.027,29.041,29.041,29.041h397.031c16.014,0,29.041-13.027,29.041-29.041V64.632c0-16.014-13.027-29.041-29.041-29.041
		C454.515,35.591,57.484,35.591,57.484,35.591z"/>
	<path style="fill:#507C5C;" d="M303.978,504.851c-5.572,0-10.831-2.192-14.808-6.168l-33.171-33.172l-33.171,33.174
		c-3.976,3.976-9.234,6.167-14.806,6.168c-5.377,0-10.503-2.022-14.435-5.693c-4.271-3.991-6.625-9.433-6.625-15.328V352.226
		c0-7.855,6.367-14.222,14.222-14.222h109.629c7.855,0,14.222,6.367,14.222,14.222v131.606
		C325.036,495.421,315.59,504.851,303.978,504.851z M255.999,433.986c5.612,0,10.887,2.186,14.856,6.154l25.737,25.74v-99.433
		h-81.185v99.433l25.737-25.739C245.113,436.172,250.389,433.986,255.999,433.986z"/>
</g>
<path style="fill:#CFF09E;" d="M346.387,317.413c0,11.53-12.583,20.475-16.742,30.503c-4.311,10.393-1.9,25.578-9.732,33.411
	c-7.833,7.833-23.018,5.421-33.411,9.732c-10.026,4.157-18.972,16.742-30.501,16.742s-20.475-12.583-30.503-16.742
	c-10.393-4.311-25.578-1.9-33.411-9.732c-7.833-7.833-5.421-23.018-9.732-33.411c-4.157-10.026-16.742-18.972-16.742-30.501
	c0-11.53,12.583-20.475,16.742-30.503c4.311-10.393,1.9-25.578,9.732-33.411c7.833-7.833,23.018-5.421,33.411-9.732
	c10.026-4.157,18.972-16.742,30.501-16.742c11.53,0,20.475,12.583,30.503,16.742c10.393,4.311,25.578,1.9,33.411,9.732
	c7.833,7.833,5.421,23.018,9.732,33.411C333.804,296.936,346.387,305.882,346.387,317.413z"/>
<g>
	<path style="fill:#507C5C;" d="M255.999,422.021c-11.911,0-20.717-6.812-27.794-12.286c-2.957-2.287-6.014-4.652-8.156-5.541
		c-2.401-0.996-6.411-1.533-10.291-2.054c-8.732-1.17-19.598-2.628-27.73-10.76c-8.131-8.129-9.588-18.996-10.759-27.728
		c-0.521-3.88-1.058-7.89-2.054-10.291c-0.889-2.142-3.254-5.199-5.541-8.156c-5.474-7.077-12.286-15.883-12.286-27.794
		s6.814-20.717,12.288-27.794c2.287-2.957,4.652-6.014,5.539-8.155c0.996-2.401,1.533-6.413,2.054-10.291
		c1.17-8.732,2.628-19.598,10.759-27.73c8.131-8.131,18.996-9.588,27.728-10.759c3.88-0.521,7.89-1.06,10.291-2.054
		c2.142-0.889,5.199-3.253,8.155-5.539c7.077-5.474,15.884-12.286,27.794-12.286c11.909,0,20.717,6.812,27.794,12.286
		c2.957,2.287,6.014,4.652,8.156,5.541c2.401,0.996,6.413,1.535,10.292,2.054c8.732,1.172,19.598,2.63,27.728,10.76
		c8.131,8.129,9.588,18.996,10.759,27.728c0.521,3.88,1.058,7.89,2.054,10.291c0.889,2.142,3.253,5.199,5.539,8.155
		c5.474,7.077,12.288,15.884,12.288,27.794c0,11.909-6.812,20.717-12.286,27.794c-2.287,2.957-4.652,6.014-5.541,8.156
		c-0.996,2.401-1.533,6.413-2.054,10.292c-1.17,8.731-2.628,19.598-10.759,27.728s-18.997,9.588-27.728,10.759
		c-3.88,0.521-7.892,1.058-10.292,2.054c-2.14,0.889-5.198,3.253-8.153,5.539C276.718,415.209,267.91,422.021,255.999,422.021z
		 M255.999,241.246c-2.193,0-6.932,3.665-10.392,6.341c-4.227,3.268-9.015,6.973-14.663,9.315
		c-5.832,2.419-11.982,3.243-17.406,3.971c-3.765,0.505-10.066,1.35-11.396,2.681c-1.331,1.331-2.176,7.633-2.681,11.397
		c-0.728,5.424-1.552,11.574-3.971,17.406c-2.341,5.647-6.047,10.437-9.315,14.663c-2.677,3.46-6.341,8.199-6.341,10.392
		s3.665,6.932,6.341,10.392c3.268,4.227,6.974,9.015,9.315,14.664c2.419,5.831,3.243,11.98,3.971,17.405
		c0.505,3.764,1.35,10.066,2.681,11.396c1.331,1.331,7.633,2.176,11.397,2.682c5.424,0.727,11.572,1.552,17.405,3.971
		c5.649,2.342,10.437,6.047,14.664,9.315c3.46,2.677,8.199,6.342,10.392,6.342s6.932-3.665,10.392-6.342
		c4.225-3.268,9.015-6.973,14.661-9.315c5.834-2.418,11.982-3.243,17.406-3.971c3.765-0.505,10.066-1.351,11.397-2.681
		c1.331-1.331,2.176-7.631,2.681-11.396c0.728-5.424,1.552-11.574,3.971-17.406c2.341-5.647,6.047-10.437,9.315-14.664
		c2.677-3.46,6.341-8.199,6.341-10.392s-3.665-6.932-6.341-10.392c-3.268-4.225-6.974-9.015-9.315-14.663
		c-2.419-5.832-3.243-11.98-3.971-17.406c-0.505-3.764-1.35-10.065-2.681-11.396s-7.633-2.176-11.397-2.682
		c-5.424-0.728-11.574-1.552-17.405-3.971c-5.647-2.341-10.437-6.046-14.664-9.315C262.931,244.911,258.192,241.246,255.999,241.246
		z"/>
	<path style="fill:#507C5C;" d="M142.225,227.023H99.561c-7.855,0-14.222-6.367-14.222-14.222s6.367-14.222,14.222-14.222h42.664
		c7.855,0,14.222,6.367,14.222,14.222S150.08,227.023,142.225,227.023z"/>
	<path style="fill:#507C5C;" d="M412.439,227.023h-42.665c-7.855,0-14.222-6.367-14.222-14.222s6.367-14.222,14.222-14.222h42.665
		c7.855,0,14.222,6.367,14.222,14.222S420.294,227.023,412.439,227.023z"/>
	<path style="fill:#507C5C;" d="M142.225,284.442H99.561c-7.855,0-14.222-6.367-14.222-14.222s6.367-14.222,14.222-14.222h42.664
		c7.855,0,14.222,6.367,14.222,14.222C156.447,278.075,150.08,284.442,142.225,284.442z"/>
	<path style="fill:#507C5C;" d="M412.439,284.442h-42.665c-7.855,0-14.222-6.367-14.222-14.222s6.367-14.222,14.222-14.222h42.665
		c7.855,0,14.222,6.367,14.222,14.222C426.661,278.075,420.294,284.442,412.439,284.442z"/>
</g>
<g>
</g>
<g>
</g>
<g>
</g>
<g>
</g>
<g>
</g>
<g>
</g>
<g>
</g>
<g>
</g>
<g>
</g>
<g>
</g>
<g>
</g>
<g>
</g>
<g>
</g>
<g>
</g>
<g>
</g>
</svg>
