<?xml version="1.0" encoding="iso-8859-1"?>
<!-- Generator: Adobe Illustrator 19.0.0, SVG Export Plug-In . SVG Version: 6.00 Build 0)  -->
<svg version="1.1" id="Layer_1" xmlns="http://www.w3.org/2000/svg" xmlns:xlink="http://www.w3.org/1999/xlink" x="0px" y="0px"
	 viewBox="0 0 512 512" style="enable-background:new 0 0 512 512;" xml:space="preserve">
<path style="fill:#507C5C;" d="M349.873,512H162.126c-28.173,0-52.47-21.024-56.519-48.903l-49.975-344.09
	c-0.622-4.284,0.649-8.627,3.481-11.9s6.948-5.155,11.278-5.155h371.217c4.329,0,8.445,1.882,11.278,5.155s4.102,7.616,3.481,11.9
	l-49.975,344.088C402.341,490.976,378.044,512,349.873,512z M87.625,131.777l47.498,327.033
	c1.934,13.32,13.544,23.365,27.002,23.365h187.746c13.459,0,25.07-10.045,27.002-23.365l47.498-327.033L87.625,131.777
	L87.625,131.777z"/>
<path style="fill:#CFF09E;" d="M426.652,78.317h-68.643V48.66c0-18.638-15.109-33.747-33.747-33.747H187.738
	c-18.638,0-33.747,15.109-33.747,33.747v29.657H85.348c-17.928,0-32.596,14.668-32.596,32.596s14.668,32.596,32.596,32.596h341.304
	c17.928,0,32.596-14.668,32.596-32.596S444.58,78.317,426.652,78.317z"/>
<path style="fill:#507C5C;" d="M426.652,158.421H85.348c-26.196,0-47.509-21.313-47.509-47.509s21.313-47.509,47.509-47.509h53.73
	V48.66c0-26.831,21.829-48.66,48.66-48.66h136.524c26.831,0,48.66,21.829,48.66,48.66v14.744h53.73
	c26.196,0,47.509,21.313,47.509,47.509S452.848,158.421,426.652,158.421z M85.348,93.229c-9.751,0-17.683,7.934-17.683,17.683
	s7.932,17.683,17.683,17.683h341.304c9.751,0,17.683-7.934,17.683-17.683s-7.932-17.683-17.683-17.683h-68.643
	c-8.235,0-14.913-6.676-14.913-14.913V48.66c0-10.385-8.449-18.835-18.835-18.835H187.738c-10.385,0-18.835,8.449-18.835,18.835
	v29.657c0,8.236-6.678,14.913-14.913,14.913H85.348V93.229z"/>
<polyline style="fill:#CFF09E;" points="370.828,256.256 421.361,256.256 405.991,362.098 106.009,362.098 90.639,256.256 
	297.755,256.256 "/>
<path style="fill:#507C5C;" d="M405.991,377.011H106.008c-7.409,0-13.694-5.439-14.758-12.77L75.88,258.397
	c-0.622-4.284,0.649-8.627,3.481-11.9c2.833-3.273,6.948-5.155,11.278-5.155h207.117c8.235,0,14.913,6.676,14.913,14.913
	c0,8.236-6.678,14.913-14.913,14.913H107.872l11.038,76.019h274.175l11.038-76.019h-33.298c-8.235,0-14.913-6.676-14.913-14.913
	c0-8.236,6.678-14.913,14.913-14.913h50.534c4.329,0,8.445,1.882,11.278,5.155c2.832,3.273,4.102,7.617,3.481,11.9l-15.372,105.844
	C419.683,371.574,413.398,377.011,405.991,377.011z"/>
<g>
</g>
<g>
</g>
<g>
</g>
<g>
</g>
<g>
</g>
<g>
</g>
<g>
</g>
<g>
</g>
<g>
</g>
<g>
</g>
<g>
</g>
<g>
</g>
<g>
</g>
<g>
</g>
<g>
</g>
</svg>
