<?xml version="1.0" encoding="iso-8859-1"?>
<!-- Generator: Adobe Illustrator 19.0.0, SVG Export Plug-In . SVG Version: 6.00 Build 0)  -->
<svg version="1.1" id="Layer_1" xmlns="http://www.w3.org/2000/svg" xmlns:xlink="http://www.w3.org/1999/xlink" x="0px" y="0px"
	 viewBox="0 0 512 512" style="enable-background:new 0 0 512 512;" xml:space="preserve">
<path style="fill:#CFF09E;" d="M256,14.681C122.724,14.681,14.681,122.724,14.681,256S122.724,497.318,256,497.318
	s241.319-108.043,241.319-241.319S389.277,14.681,256,14.681z M256,417.839c-89.239,0-161.838-72.601-161.838-161.84
	c0-36.579,12.2-70.365,32.743-97.499l63.15-50.29c20.152-9.027,42.474-14.049,65.945-14.049
	c89.239,0,161.838,72.601,161.838,161.838S345.239,417.839,256,417.839z"/>
<g>
	<path style="fill:#507C5C;" d="M256,512C114.842,512,0.001,397.159,0.001,256.001C0.001,114.841,114.842,0,256,0
		s255.999,114.841,255.999,256.001C512.001,397.159,397.159,512,256,512z M256,29.361c-124.968,0-226.638,101.67-226.638,226.64
		c0,124.968,101.67,226.638,226.638,226.638s226.638-101.67,226.638-226.638C482.64,131.031,380.97,29.361,256,29.361z"/>
	<path style="fill:#507C5C;" d="M256,432.52c-97.333,0-176.52-79.185-176.52-176.519c0-38.718,12.352-75.499,35.721-106.361
		c4.894-6.464,14.102-7.735,20.566-2.844c6.464,4.894,7.737,14.102,2.842,20.566c-19.474,25.72-29.768,56.37-29.768,88.638
		c0,81.142,66.015,147.158,147.159,147.158S403.159,337.143,403.159,256c0-81.144-66.015-147.159-147.159-147.159
		c-20.863,0-41.031,4.296-59.944,12.768c-7.405,3.316-16.085,0.001-19.399-7.396c-3.315-7.399-0.003-16.084,7.396-19.399
		c22.714-10.175,46.919-15.334,71.948-15.334c97.333,0,176.52,79.187,176.52,176.52S353.333,432.52,256,432.52z"/>
	<path style="fill:#507C5C;" d="M253.139,328.41c-24.43-0.815-44.379-13.436-44.379-26.465c0-6.922,6.107-17.1,13.844-17.1
		c8.55,0,15.472,12.012,30.537,14.657v-32.98c-18.729-7.126-40.715-15.878-40.715-41.936c0-25.854,19.136-38.272,40.715-41.326v-5.7
		c0-2.85,3.258-5.496,7.737-5.496c3.868,0,7.737,2.647,7.737,5.496v5.09c12.622,0.407,36.44,3.664,36.44,17.711
		c0,5.496-3.664,16.693-12.622,16.693c-6.718,0-10.586-6.515-23.819-7.533v29.722c18.525,6.922,40.104,16.489,40.104,43.973
		c0,25.243-16.287,40.512-40.104,44.379v5.903c0,2.849-3.868,5.496-7.737,5.496c-4.479,0-7.737-2.647-7.737-5.496v-5.088
		L253.139,328.41L253.139,328.41z M255.173,234.357v-24.226c-9.161,1.832-13.029,6.515-13.029,11.401
		C242.144,227.435,247.438,231.1,255.173,234.357z M266.574,272.019v27.279c6.922-1.628,12.418-5.496,12.418-12.825
		C278.993,279.755,273.903,275.479,266.574,272.019z"/>
</g>
<g>
</g>
<g>
</g>
<g>
</g>
<g>
</g>
<g>
</g>
<g>
</g>
<g>
</g>
<g>
</g>
<g>
</g>
<g>
</g>
<g>
</g>
<g>
</g>
<g>
</g>
<g>
</g>
<g>
</g>
</svg>
