<?xml version="1.0" encoding="iso-8859-1"?>
<!-- Generator: Adobe Illustrator 19.0.0, SVG Export Plug-In . SVG Version: 6.00 Build 0)  -->
<svg version="1.1" id="Layer_1" xmlns="http://www.w3.org/2000/svg" xmlns:xlink="http://www.w3.org/1999/xlink" x="0px" y="0px"
	 viewBox="0 0 512.001 512.001" style="enable-background:new 0 0 512.001 512.001;" xml:space="preserve">
<path style="fill:#CFF09E;" d="M341.475,355.037c25.515,25.515,66.883,25.515,92.398,0c25.515-25.515,25.515-66.883,0-92.398"/>
<path style="fill:#507C5C;" d="M387.674,388.353c-21.241,0-41.208-8.271-56.227-23.29l20.057-20.057
	c9.662,9.662,22.507,14.982,36.171,14.982s26.509-5.321,36.171-14.982c9.662-9.662,14.982-22.506,14.982-36.171
	c0-13.664-5.321-26.509-14.982-36.171l20.057-20.057c15.018,15.019,23.29,34.988,23.29,56.226c0,21.241-8.272,41.209-23.29,56.226
	C428.882,380.083,408.914,388.353,387.674,388.353z"/>
<path style="fill:#CFF09E;" d="M126.989,284.467l-107.4,107.4c-9.134,9.134-6.304,24.583,5.475,29.886l126.748,57.061
	c6.994,3.148,15.208,1.644,20.631-3.779L245,402.478"/>
<g>
	<path style="fill:#507C5C;" d="M159.312,494.594c-4.517,0-9.06-0.93-13.32-2.848L19.243,434.684
		c-9.781-4.402-16.775-13.33-18.708-23.883s1.442-21.378,9.026-28.962l107.4-107.4l20.057,20.057l-107.4,107.4
		c-1.383,1.381-1.334,2.971-1.183,3.796c0.152,0.825,0.671,2.329,2.452,3.131l126.746,57.061c1.61,0.725,3.533,0.372,4.782-0.876
		l72.557-72.558l20.057,20.057l-72.557,72.557C176.245,491.288,167.827,494.592,159.312,494.594z"/>
	<path style="fill:#507C5C;" d="M268.2,423.226c-11.318,0-21.957-4.408-29.959-12.41L118.65,291.227
		c-16.518-16.52-16.518-43.4,0-59.92L295.374,54.585c23.973-23.973,55.849-37.178,89.755-37.178
		c33.905,0,65.78,13.204,89.755,37.178c49.49,49.49,49.49,130.018,0,179.509L298.16,410.816
		C290.157,418.819,279.517,423.226,268.2,423.226z M385.128,45.77c-26.329,0-51.082,10.252-69.698,28.87L138.706,251.364
		c-5.461,5.461-5.461,14.347,0,19.808l119.591,119.589c2.645,2.646,6.163,4.104,9.904,4.104s7.258-1.456,9.903-4.104
		l176.724-176.723c38.433-38.433,38.433-100.966,0-139.397C436.208,56.023,411.456,45.77,385.128,45.77z"/>
	<path style="fill:#507C5C;" d="M275.977,191.518c-3.629,0-7.258-1.386-10.028-4.154c-5.538-5.538-5.539-14.517,0-20.057
		l56.586-56.587c30.911-30.908,81.203-30.908,112.114,0c5.538,5.538,5.538,14.517,0,20.057c-5.538,5.536-14.517,5.536-20.057,0
		c-19.851-19.85-52.15-19.852-72.002,0l-56.586,56.587C283.237,190.132,279.608,191.518,275.977,191.518z"/>
</g>
<g>
</g>
<g>
</g>
<g>
</g>
<g>
</g>
<g>
</g>
<g>
</g>
<g>
</g>
<g>
</g>
<g>
</g>
<g>
</g>
<g>
</g>
<g>
</g>
<g>
</g>
<g>
</g>
<g>
</g>
</svg>
