<?xml version="1.0" encoding="iso-8859-1"?>
<!-- Generator: Adobe Illustrator 19.0.0, SVG Export Plug-In . SVG Version: 6.00 Build 0)  -->
<svg version="1.1" id="Layer_1" xmlns="http://www.w3.org/2000/svg" xmlns:xlink="http://www.w3.org/1999/xlink" x="0px" y="0px"
	 viewBox="0 0 512.001 512.001" style="enable-background:new 0 0 512.001 512.001;" xml:space="preserve">
<g>
	<path style="fill:#507C5C;" d="M468.322,156.759h-90.995c-6.7,0-12.133-5.433-12.133-12.133s5.433-12.133,12.133-12.133h90.995
		c10.703,0,19.412-8.709,19.412-19.412s-8.709-19.412-19.412-19.412H43.678c-10.703,0-19.412,8.709-19.412,19.412
		s8.709,19.412,19.412,19.412H319.09c6.7,0,12.133,5.433,12.133,12.133s-5.433,12.133-12.133,12.133H43.678
		C19.593,156.759,0,137.166,0,113.082s19.593-43.678,43.678-43.678h424.645c24.085,0,43.678,19.593,43.678,43.678
		S492.407,156.759,468.322,156.759z"/>
	<path style="fill:#507C5C;" d="M431.924,442.596h-2.427c-17.395,0-31.545-14.15-31.545-31.545V145.345
		c0-6.7,5.433-12.133,12.133-12.133h41.251c6.7,0,12.133,5.433,12.133,12.133v265.706
		C463.469,428.447,449.319,442.596,431.924,442.596z M422.218,157.478v253.573c0,4.015,3.265,7.28,7.28,7.28h2.427
		c4.015,0,7.28-3.265,7.28-7.28V157.478H422.218L422.218,157.478z"/>
	<path style="fill:#507C5C;" d="M84.929,442.596c-17.395,0-31.545-14.15-31.545-31.545V145.345c0-6.7,5.433-12.133,12.133-12.133
		h38.825c6.7,0,12.133,5.433,12.133,12.133v265.706C116.474,428.447,102.324,442.596,84.929,442.596z M77.649,157.478v253.573
		c0,4.015,3.265,7.28,7.28,7.28s7.28-3.265,7.28-7.28V157.478H77.649L77.649,157.478z"/>
</g>
<path style="fill:#CFF09E;" d="M105.555,366.16h99.488c14.072,0,25.479-11.407,25.479-25.479V145.345H105.555V366.16z"/>
<g>
	<path style="fill:#507C5C;" d="M205.043,378.293h-99.488c-6.7,0-12.133-5.433-12.133-12.133V145.345
		c0-6.7,5.433-12.133,12.133-12.133h124.967c6.7,0,12.133,5.433,12.133,12.133v195.337
		C242.654,361.421,225.782,378.293,205.043,378.293z M117.687,354.027h87.355c7.358,0,13.346-5.987,13.346-13.346V157.478H117.687
		V354.027z"/>
	<path style="fill:#507C5C;" d="M230.521,267.885H105.555c-6.7,0-12.133-5.433-12.133-12.133c0-6.7,5.433-12.133,12.133-12.133
		h124.967c6.7,0,12.133,5.433,12.133,12.133C242.654,262.452,237.221,267.885,230.521,267.885z"/>
	<path style="fill:#507C5C;" d="M178.553,194.282h-21.031c-6.7,0-12.133-5.433-12.133-12.133s5.433-12.133,12.133-12.133h21.031
		c6.7,0,12.133,5.433,12.133,12.133C190.686,188.849,185.253,194.282,178.553,194.282z"/>
	<path style="fill:#507C5C;" d="M178.553,304.689h-21.031c-6.7,0-12.133-5.433-12.133-12.133s5.433-12.133,12.133-12.133h21.031
		c6.7,0,12.133,5.433,12.133,12.133S185.253,304.689,178.553,304.689z"/>
</g>
<g>
</g>
<g>
</g>
<g>
</g>
<g>
</g>
<g>
</g>
<g>
</g>
<g>
</g>
<g>
</g>
<g>
</g>
<g>
</g>
<g>
</g>
<g>
</g>
<g>
</g>
<g>
</g>
<g>
</g>
</svg>
