<?xml version="1.0" encoding="iso-8859-1"?>
<!-- Generator: Adobe Illustrator 19.0.0, SVG Export Plug-In . SVG Version: 6.00 Build 0)  -->
<svg version="1.1" id="Layer_1" xmlns="http://www.w3.org/2000/svg" xmlns:xlink="http://www.w3.org/1999/xlink" x="0px" y="0px"
	 viewBox="0 0 512 512" style="enable-background:new 0 0 512 512;" xml:space="preserve">
<g>
	<path style="fill:#507C5C;" d="M403.907,332.117H378.36v-26.892h25.547c14.828,0,26.892-12.064,26.892-26.892V186.9h26.892v91.433
		C457.691,307.99,433.562,332.117,403.907,332.117z"/>
	<path style="fill:#507C5C;" d="M134.986,332.117h-25.547c-29.657,0-53.784-24.128-53.784-53.784V186.9h26.892v91.433
		c0,14.828,12.064,26.892,26.892,26.892h25.547V332.117z"/>
	
		<rect x="257.281" y="394.234" transform="matrix(0.9506 0.3104 -0.3104 0.9506 141.0919 -71.2795)" style="fill:#507C5C;" width="74.46" height="26.892"/>
	
		<rect x="204.085" y="370.468" transform="matrix(0.3105 0.9506 -0.9506 0.3105 537.5434 74.3344)" style="fill:#507C5C;" width="26.894" height="74.472"/>
</g>
<path style="fill:#CFF09E;" d="M343.921,235.306H168.079c-17.227,0-30.789-14.701-29.401-31.872l13.161-162.867
	c1.238-15.319,14.031-27.121,29.401-27.121h149.52c15.369,0,28.163,11.802,29.401,27.121l13.161,162.867
	C374.708,220.604,361.148,235.306,343.921,235.306z"/>
<g>
	<path style="fill:#507C5C;" d="M343.92,248.752H168.079c-11.955,0-23.459-5.04-31.566-13.827
		c-8.105-8.787-12.201-20.66-11.238-32.576l13.161-162.867C140.225,17.343,159.027,0,181.24,0h149.519
		c22.213,0,41.014,17.343,42.804,39.483l13.161,162.867c0.963,11.915-3.133,23.789-11.238,32.576
		C367.38,243.712,355.875,248.752,343.92,248.752z M181.24,26.892c-8.303,0-15.33,6.482-15.998,14.758l-13.161,162.867
		c-0.364,4.519,1.127,8.842,4.201,12.175c3.074,3.333,7.264,5.169,11.798,5.169h175.84c4.534,0,8.724-1.835,11.798-5.169
		c3.074-3.333,4.566-7.656,4.201-12.175L346.757,41.651c-0.667-8.276-7.695-14.758-15.998-14.758H181.24V26.892z"/>
	<path style="fill:#507C5C;" d="M361.066,357.477H150.933c-22.51,0-40.822-18.314-40.822-40.822s18.312-40.822,40.822-40.822h67.972
		c7.425,0,13.446,6.02,13.446,13.446s-6.021,13.446-13.446,13.446h-67.972c-7.682,0-13.93,6.248-13.93,13.93
		s6.248,13.93,13.93,13.93h210.133c7.682,0,13.93-6.248,13.93-13.93s-6.248-13.93-13.93-13.93h-74.16
		c-7.425,0-13.446-6.02-13.446-13.446s6.021-13.446,13.446-13.446h74.16c22.51,0,40.822,18.314,40.822,40.822
		S383.576,357.477,361.066,357.477z"/>
	<rect x="242.55" y="342.05" style="fill:#507C5C;" width="26.892" height="106.22"/>
	<path style="fill:#507C5C;" d="M352.115,469.42c-21.21,0-38.466-17.255-38.466-38.466s17.257-38.466,38.466-38.466
		c21.21,0,38.465,17.255,38.465,38.466S373.325,469.42,352.115,469.42z M352.115,419.38c-6.383,0-11.574,5.191-11.574,11.574
		s5.192,11.574,11.574,11.574c6.382,0,11.573-5.191,11.573-11.574S358.497,419.38,352.115,419.38z"/>
	<path style="fill:#507C5C;" d="M159.884,469.42c-21.21,0-38.465-17.255-38.465-38.466s17.255-38.466,38.465-38.466
		s38.466,17.255,38.466,38.466S181.095,469.42,159.884,469.42z M159.884,419.38c-6.382,0-11.573,5.191-11.573,11.574
		s5.192,11.574,11.573,11.574c6.383,0,11.574-5.191,11.574-11.574C171.458,424.571,166.266,419.38,159.884,419.38z"/>
	<path style="fill:#507C5C;" d="M257.659,512c-21.21,0-38.466-17.255-38.466-38.465s17.257-38.466,38.466-38.466
		s38.465,17.255,38.465,38.466S278.869,512,257.659,512z M257.659,461.961c-6.383,0-11.574,5.192-11.574,11.574
		c0,6.382,5.192,11.573,11.574,11.573c6.382,0,11.573-5.191,11.573-11.573C269.232,467.152,264.041,461.961,257.659,461.961z"/>
	<path style="fill:#507C5C;" d="M94.647,200.346H40.863c-7.425,0-13.446-6.02-13.446-13.446s6.021-13.446,13.446-13.446h53.784
		c7.425,0,13.446,6.02,13.446,13.446C108.093,194.326,102.072,200.346,94.647,200.346z"/>
	<path style="fill:#507C5C;" d="M471.137,200.346h-53.784c-7.425,0-13.446-6.02-13.446-13.446s6.021-13.446,13.446-13.446h53.784
		c7.425,0,13.446,6.02,13.446,13.446C484.583,194.326,478.562,200.346,471.137,200.346z"/>
</g>
<g>
</g>
<g>
</g>
<g>
</g>
<g>
</g>
<g>
</g>
<g>
</g>
<g>
</g>
<g>
</g>
<g>
</g>
<g>
</g>
<g>
</g>
<g>
</g>
<g>
</g>
<g>
</g>
<g>
</g>
</svg>
