<?xml version="1.0" encoding="iso-8859-1"?>
<!-- Generator: Adobe Illustrator 19.0.0, SVG Export Plug-In . SVG Version: 6.00 Build 0)  -->
<svg version="1.1" id="Layer_1" xmlns="http://www.w3.org/2000/svg" xmlns:xlink="http://www.w3.org/1999/xlink" x="0px" y="0px"
	 viewBox="0 0 512 512" style="enable-background:new 0 0 512 512;" xml:space="preserve">
<path style="fill:#507C5C;" d="M414.681,512H97.319c-25.356,0-45.985-20.629-45.985-45.985V45.984C51.333,20.629,71.963,0,97.319,0
	H414.68c25.357,0,45.987,20.629,45.987,45.984v420.029C460.667,491.371,440.036,512,414.681,512z M97.319,26.667
	C86.667,26.667,78,35.332,78,45.984v420.029c0,10.653,8.667,19.32,19.319,19.32H414.68c10.652,0,19.319-8.667,19.319-19.319V45.984
	c0.001-10.652-8.665-19.317-19.317-19.317C414.682,26.667,97.319,26.667,97.319,26.667z"/>
<path style="fill:#CFF09E;" d="M374.641,226.667H138.692c-9.955,0-18.025-8.071-18.025-18.025V84.692
	c0-9.956,8.071-18.025,18.025-18.025H374.64c9.955,0,18.025,8.071,18.025,18.025V208.64
	C392.667,218.596,384.596,226.667,374.641,226.667z"/>
<path style="fill:#507C5C;" d="M374.64,240H138.693c-17.292,0-31.36-14.068-31.36-31.36V84.692c0-17.291,14.068-31.359,31.36-31.359
	H374.64c17.292,0,31.36,14.068,31.36,31.359v123.949C406,225.932,391.932,240,374.64,240z M138.693,80
	c-2.587,0-4.693,2.104-4.693,4.692v123.949c0,2.587,2.105,4.693,4.693,4.693H374.64c2.587,0,4.693-2.105,4.693-4.693V84.692
	c0-2.587-2.105-4.692-4.693-4.692H138.693z"/>
<path style="fill:#CFF09E;" d="M374.641,441.333H138.692c-9.955,0-18.025-8.071-18.025-18.025V302.027
	c0-9.955,8.071-18.025,18.025-18.025H374.64c9.955,0,18.025,8.071,18.025,18.025v121.281
	C392.667,433.263,384.596,441.333,374.641,441.333z"/>
<g>
	<path style="fill:#507C5C;" d="M374.64,454.667H138.693c-17.292,0-31.36-14.068-31.36-31.36V302.024
		c0-17.289,14.068-31.357,31.36-31.357H374.64c17.292,0,31.36,14.068,31.36,31.359v121.283
		C406,440.599,391.932,454.667,374.64,454.667z M138.693,297.333c-2.587,0-4.693,2.104-4.693,4.692v121.283
		c0,2.587,2.105,4.693,4.693,4.693H374.64c2.587,0,4.693-2.105,4.693-4.693V302.025c0-2.587-2.105-4.692-4.693-4.692H138.693
		L138.693,297.333z"/>
	<path style="fill:#507C5C;" d="M264.656,148.811h-15.979c-15.013,0-27.228-12.215-27.228-27.228v-15.281
		c0-7.363,5.971-13.333,13.333-13.333s13.333,5.971,13.333,13.333v15.283c0,0.309,0.251,0.561,0.561,0.561h15.979
		c0.309,0,0.561-0.251,0.561-0.561v-15.283c0-7.363,5.971-13.333,13.333-13.333s13.333,5.971,13.333,13.333v15.283
		C291.884,136.596,279.669,148.811,264.656,148.811z"/>
	<path style="fill:#507C5C;" d="M264.656,366.673h-15.979c-15.013,0-27.228-12.215-27.228-27.228v-15.283
		c0-7.363,5.971-13.333,13.333-13.333s13.333,5.971,13.333,13.333v15.283c0,0.309,0.251,0.561,0.561,0.561h15.979
		c0.309,0,0.561-0.251,0.561-0.561v-15.283c0-7.363,5.971-13.333,13.333-13.333s13.333,5.971,13.333,13.333v15.283
		C291.884,354.459,279.669,366.673,264.656,366.673z"/>
</g>
<g>
</g>
<g>
</g>
<g>
</g>
<g>
</g>
<g>
</g>
<g>
</g>
<g>
</g>
<g>
</g>
<g>
</g>
<g>
</g>
<g>
</g>
<g>
</g>
<g>
</g>
<g>
</g>
<g>
</g>
</svg>
