<?xml version="1.0" encoding="iso-8859-1"?>
<!-- Generator: Adobe Illustrator 19.0.0, SVG Export Plug-In . SVG Version: 6.00 Build 0)  -->
<svg version="1.1" id="Layer_1" xmlns="http://www.w3.org/2000/svg" xmlns:xlink="http://www.w3.org/1999/xlink" x="0px" y="0px"
	 viewBox="0 0 512.002 512.002" style="enable-background:new 0 0 512.002 512.002;" xml:space="preserve">
<path style="fill:#CFF09E;" d="M497.387,134.189c-2.087-23.901-22.137-42.653-46.58-42.653H61.193
	c-24.442,0-44.494,18.752-46.58,42.653h-0.19v4.116v235.389v4.116h0.19c2.087,23.901,22.137,42.653,46.58,42.653h389.613
	c24.442,0,44.494-18.752,46.58-42.653h0.19v-4.116V138.307v-4.116h-0.19v-0.002H497.387z M330.686,286.934
	c-4.371,10.54-1.927,25.939-9.869,33.883c-7.944,7.944-23.343,5.499-33.883,9.869c-10.168,4.216-19.24,16.978-30.933,16.978
	c-11.694,0-20.764-12.762-30.933-16.978c-10.54-4.371-25.939-1.925-33.883-9.869s-5.499-23.343-9.869-33.883
	c-4.216-10.168-16.978-19.24-16.978-30.932c0-11.692,12.761-20.764,16.978-30.933c4.371-10.54,1.927-25.939,9.869-33.883
	c7.944-7.944,23.343-5.499,33.883-9.869c10.168-4.216,19.24-16.978,30.933-16.978c11.694,0,20.764,12.763,30.933,16.978
	c10.54,4.371,25.939,1.925,33.883,9.869s5.499,23.343,9.869,33.883c4.216,10.168,16.978,19.24,16.978,30.932
	C347.664,267.693,334.901,276.765,330.686,286.934z"/>
<g>
	<path style="fill:#507C5C;" d="M450.807,434.888H61.193c-31.079,0-56.708-22.682-60.663-53.187c-0.345-1.237-0.53-2.54-0.53-3.889
		V134.189c0-1.348,0.185-2.652,0.531-3.888c3.953-30.507,29.584-53.187,60.663-53.187h389.615c31.076,0,56.702,22.679,60.661,53.179
		c0.346,1.239,0.532,2.547,0.532,3.897v243.623c0,1.351-0.186,2.658-0.532,3.897C507.51,412.21,481.883,434.888,450.807,434.888z
		 M28.845,375.474c0.058,0.356,0.104,0.718,0.136,1.083c1.444,16.534,15.594,29.485,32.213,29.485h389.615
		c16.619,0,30.768-12.95,32.211-29.484c0.032-0.369,0.078-0.733,0.137-1.093v-238.93c-0.059-0.361-0.104-0.724-0.137-1.093
		c-1.444-16.534-15.592-29.484-32.211-29.484H61.193c-16.619,0-30.769,12.951-32.213,29.485c-0.03,0.365-0.078,0.727-0.136,1.083
		C28.845,136.527,28.845,375.474,28.845,375.474z M256,362.087c-12.079,0-21.009-6.91-28.187-12.461
		c-2.998-2.319-6.099-4.718-8.27-5.619c-2.433-1.008-6.502-1.555-10.435-2.081c-8.855-1.187-19.874-2.667-28.121-10.911
		c-8.245-8.247-9.722-19.264-10.911-28.12c-0.526-3.934-1.073-8.003-2.083-10.436c-0.901-2.173-3.298-5.273-5.619-8.271
		c-5.551-7.177-12.46-16.109-12.46-28.186s6.908-21.009,12.46-28.186c2.319-2.998,4.718-6.099,5.619-8.27
		c1.01-2.435,1.556-6.505,2.083-10.439c1.188-8.854,2.667-19.874,10.912-28.118c8.245-8.245,19.264-9.724,28.12-10.911
		c3.934-0.526,8.003-1.073,10.436-2.081c2.171-0.9,5.27-3.298,8.268-5.619c7.178-5.551,16.109-12.461,28.187-12.461
		c12.078,0,21.009,6.91,28.187,12.461c2.998,2.319,6.099,4.718,8.27,5.619c2.433,1.008,6.502,1.555,10.435,2.081
		c8.855,1.187,19.874,2.667,28.121,10.911c8.245,8.247,9.724,19.266,10.911,28.121c0.526,3.934,1.073,8.003,2.081,10.436
		c0.9,2.171,3.298,5.27,5.619,8.268c5.551,7.178,12.461,16.109,12.461,28.187c0,12.079-6.91,21.009-12.461,28.187
		c-2.319,2.998-4.718,6.099-5.619,8.27c-1.008,2.433-1.555,6.502-2.081,10.435c-1.187,8.855-2.667,19.876-10.912,28.121
		s-19.264,9.724-28.12,10.911c-3.934,0.526-8.003,1.073-10.436,2.081c-2.171,0.9-5.27,3.298-8.268,5.619
		C277.009,355.177,268.079,362.087,256,362.087z M256,178.759c-2.224,0-7.03,3.717-10.539,6.431
		c-4.286,3.316-9.142,7.073-14.87,9.448c-5.916,2.452-12.151,3.288-17.652,4.027c-3.818,0.511-10.208,1.367-11.558,2.719
		c-1.35,1.35-2.207,7.738-2.72,11.557c-0.738,5.501-1.574,11.738-4.027,17.653c-2.374,5.726-6.132,10.583-9.447,14.87
		c-2.714,3.509-6.431,8.315-6.431,10.539s3.717,7.03,6.431,10.539c3.314,4.286,7.071,9.144,9.447,14.871
		c2.453,5.915,3.288,12.15,4.027,17.652c0.512,3.816,1.37,10.207,2.72,11.557c1.35,1.351,7.739,2.207,11.558,2.719
		c5.501,0.738,11.737,1.575,17.65,4.027c5.729,2.374,10.585,6.132,14.871,9.448c3.509,2.714,8.315,6.431,10.539,6.431
		s7.03-3.717,10.539-6.431c4.286-3.316,9.142-7.073,14.87-9.448c5.916-2.452,12.151-3.288,17.652-4.027
		c3.818-0.511,10.208-1.367,11.558-2.719c1.351-1.35,2.207-7.739,2.719-11.558c0.738-5.501,1.575-11.737,4.027-17.65
		c2.374-5.729,6.132-10.585,9.448-14.871c2.714-3.509,6.431-8.315,6.431-10.539s-3.717-7.03-6.431-10.539
		c-3.316-4.286-7.073-9.142-9.448-14.87c-2.452-5.916-3.288-12.151-4.027-17.652c-0.511-3.818-1.367-10.208-2.719-11.558
		c-1.35-1.351-7.739-2.207-11.558-2.719c-5.501-0.738-11.737-1.575-17.65-4.027c-5.729-2.374-10.585-6.132-14.871-9.448
		C263.03,182.476,258.224,178.759,256,178.759z"/>
	<path style="fill:#507C5C;" d="M338.028,229.289c-4.7,0-9.307-2.293-12.076-6.518c-4.366-6.662-2.507-15.602,4.155-19.969
		l86.736-56.857c6.665-4.366,15.602-2.505,19.969,4.155c4.366,6.662,2.507,15.602-4.155,19.969l-86.736,56.857
		C343.483,228.524,340.74,229.289,338.028,229.289z"/>
	<path style="fill:#507C5C;" d="M182.725,235.027c-2.711,0-5.455-0.763-7.893-2.362l-148.31-97.221
		c-6.662-4.366-8.521-13.308-4.155-19.969c4.366-6.66,13.305-8.525,19.969-4.155l148.311,97.221
		c6.662,4.366,8.521,13.308,4.155,19.969C192.032,232.734,187.425,235.027,182.725,235.027z"/>
	<path style="fill:#507C5C;" d="M34.442,421.035c-4.891,0-9.657-2.488-12.366-6.979c-4.113-6.822-1.915-15.686,4.905-19.799
		L86.48,358.39c6.823-4.116,15.686-1.914,19.799,4.905c4.113,6.822,1.915,15.686-4.905,19.799l-59.5,35.867
		C39.545,420.366,36.976,421.035,34.442,421.035z"/>
	<path style="fill:#507C5C;" d="M164.349,339.011c-4.566,0-9.056-2.163-11.86-6.197c-4.543-6.542-2.922-15.53,3.62-20.073
		l18.403-12.78c6.544-4.542,15.53-2.921,20.073,3.62c4.543,6.542,2.922,15.53-3.62,20.073l-18.403,12.78
		C170.055,338.175,167.187,339.011,164.349,339.011z"/>
	<path style="fill:#507C5C;" d="M477.557,421.033c-2.711,0-5.455-0.763-7.893-2.362L327.13,325.238
		c-6.662-4.366-8.521-13.308-4.155-19.969c4.367-6.66,13.305-8.524,19.969-4.155l142.534,93.434
		c6.662,4.366,8.521,13.308,4.155,19.969C486.864,418.74,482.258,421.033,477.557,421.033z"/>
</g>
<g>
</g>
<g>
</g>
<g>
</g>
<g>
</g>
<g>
</g>
<g>
</g>
<g>
</g>
<g>
</g>
<g>
</g>
<g>
</g>
<g>
</g>
<g>
</g>
<g>
</g>
<g>
</g>
<g>
</g>
</svg>
