<?xml version="1.0" encoding="iso-8859-1"?>
<!-- Generator: Adobe Illustrator 19.0.0, SVG Export Plug-In . SVG Version: 6.00 Build 0)  -->
<svg version="1.1" id="Layer_1" xmlns="http://www.w3.org/2000/svg" xmlns:xlink="http://www.w3.org/1999/xlink" x="0px" y="0px"
	 viewBox="0 0 512 512" style="enable-background:new 0 0 512 512;" xml:space="preserve">
<g>
	<path style="fill:#507C5C;" d="M358.16,176.103h-15.779c-7.637,0-13.83-6.192-13.83-13.83s6.193-13.83,13.83-13.83h15.777
		c11.341,0,20.568-9.227,20.568-20.57s-9.228-20.568-20.568-20.568c-2.029,0-6.253,0.29-8.439,0.473
		c-3.838,0.315-7.669-0.983-10.516-3.603c-2.848-2.619-4.467-6.311-4.467-10.179c0-7.171-1.878-15.446-4.673-20.593
		c-0.595-1.093-1.247-2.169-1.942-3.196c-1.04-1.539-2.203-3.021-3.459-4.402c-0.416-0.458-0.845-0.909-1.286-1.348
		c-0.875-0.877-1.805-1.72-2.759-2.509c-1.437-1.185-2.971-2.276-4.563-3.242c-6.037-3.669-12.988-5.608-20.101-5.608
		c-16.423,0-31.126,10.409-36.582,25.898c-2.062,5.854-7.746,9.611-13.97,9.204c-0.826-0.055-1.48-0.082-2.059-0.082
		c-16.631,0-30.162,13.53-30.162,30.162c0,15.657,12.117,28.776,27.662,30.047l36.102,0.075c7.638,0.017,13.818,6.221,13.801,13.859
		c-0.017,7.627-6.206,13.801-13.829,13.801c-0.011,0-0.021,0-0.029,0l-36.6-0.076c-0.304,0-0.607-0.011-0.91-0.032
		c-30.2-2.054-53.856-27.388-53.856-57.675c0-29.822,22.693-54.444,51.719-57.502c11.385-21.474,33.903-35.34,58.715-35.342
		c12.182,0,24.099,3.33,34.463,9.629c2.72,1.651,5.348,3.518,7.807,5.549c1.632,1.347,3.217,2.787,4.712,4.282
		c0.751,0.751,1.483,1.52,2.198,2.305c2.145,2.361,4.131,4.89,5.908,7.521c1.188,1.758,2.307,3.601,3.325,5.474
		c2.982,5.489,5.283,12.366,6.643,19.53c25.271,1.481,45.378,22.51,45.378,48.146C406.388,154.467,384.752,176.103,358.16,176.103z"
		/>
	<path style="fill:#507C5C;" d="M456.563,486.565H124.695c-30.569,0-55.437-24.869-55.437-55.437V320.719
		c0-30.569,24.868-55.437,55.437-55.437h331.867c30.569,0,55.438,24.868,55.438,55.437v110.409
		C512.001,461.696,487.132,486.565,456.563,486.565z M124.695,292.943c-15.316,0-27.777,12.461-27.777,27.777v110.409
		c0,15.317,12.461,27.776,27.777,27.776h331.867c15.317,0,27.778-12.461,27.778-27.776v-110.41
		c0-15.316-12.461-27.777-27.778-27.777H124.695V292.943z"/>
</g>
<path style="fill:#CFF09E;" d="M284.453,412.303h-35.702c-11.146,0-20.182-9.035-20.182-20.182v-32.394
	c0-11.146,9.035-20.182,20.182-20.182h35.703c11.146,0,20.182,9.035,20.182,20.182v32.394
	C304.634,403.268,295.599,412.303,284.453,412.303z"/>
<path style="fill:#507C5C;" d="M284.453,426.133h-35.702c-18.755,0-34.013-15.257-34.013-34.013v-32.394
	c0-18.755,15.257-34.013,34.013-34.013h35.701c18.755,0,34.013,15.257,34.013,34.013v32.394
	C318.464,410.875,303.207,426.133,284.453,426.133z M248.751,353.374c-3.502,0-6.352,2.85-6.352,6.352v32.394
	c0,3.502,2.85,6.352,6.352,6.352h35.701c3.502,0,6.352-2.85,6.352-6.352v-32.394c0-3.502-2.85-6.352-6.352-6.352H248.751
	L248.751,353.374z"/>
<path style="fill:#CFF09E;" d="M414.111,412.303h-35.703c-11.146,0-20.182-9.035-20.182-20.182v-32.394
	c0-11.146,9.035-20.182,20.182-20.182h35.703c11.146,0,20.182,9.035,20.182,20.182v32.394
	C434.293,403.268,425.257,412.303,414.111,412.303z"/>
<path style="fill:#507C5C;" d="M414.111,426.133h-35.703c-18.755,0-34.013-15.257-34.013-34.013v-32.394
	c0-18.755,15.257-34.013,34.013-34.013h35.701c18.755,0,34.013,15.257,34.013,34.013v32.394
	C448.122,410.875,432.865,426.133,414.111,426.133z M378.408,353.374c-3.502,0-6.352,2.85-6.352,6.352v32.394
	c0,3.502,2.85,6.352,6.352,6.352h35.701c3.502,0,6.352-2.85,6.352-6.352v-32.394c0-3.502-2.85-6.352-6.352-6.352H378.408
	L378.408,353.374z"/>
<path style="fill:#CFF09E;" d="M176.044,472.735H45.642c-18.967,0-33.721-16.491-31.616-35.342l34.389-308.07
	c1.798-16.104,15.412-28.283,31.616-28.283h26.063c16.203,0,29.818,12.179,31.616,28.283L176.044,472.735z"/>
<path style="fill:#507C5C;" d="M176.044,486.565H45.642c-12.97,0-25.369-5.545-34.017-15.212s-12.782-22.604-11.344-35.495
	l34.387-308.069c2.583-23.133,22.085-40.578,45.363-40.578h26.063c23.278,0,42.779,17.445,45.362,40.579l38.334,343.411
	c0.436,3.911-0.815,7.822-3.437,10.756C183.728,484.889,179.98,486.565,176.044,486.565z M80.031,114.871
	c-9.171,0-16.855,6.874-17.871,15.988L27.772,438.927c-0.575,5.153,1.011,10.12,4.469,13.985c3.456,3.864,8.215,5.993,13.4,5.993
	h114.941l-36.617-328.046c-1.017-9.114-8.701-15.988-17.871-15.988H80.031z"/>
<g>
</g>
<g>
</g>
<g>
</g>
<g>
</g>
<g>
</g>
<g>
</g>
<g>
</g>
<g>
</g>
<g>
</g>
<g>
</g>
<g>
</g>
<g>
</g>
<g>
</g>
<g>
</g>
<g>
</g>
</svg>
