<?xml version="1.0" encoding="iso-8859-1"?>
<!-- Generator: Adobe Illustrator 19.0.0, SVG Export Plug-In . SVG Version: 6.00 Build 0)  -->
<svg version="1.1" id="Layer_1" xmlns="http://www.w3.org/2000/svg" xmlns:xlink="http://www.w3.org/1999/xlink" x="0px" y="0px"
	 viewBox="0 0 512.001 512.001" style="enable-background:new 0 0 512.001 512.001;" xml:space="preserve">
<path style="fill:#CFF09E;" d="M88.919,465.139H40.548c-14.536,0-26.32-11.784-26.32-26.32V103.057
	c0-14.536,11.784-26.32,26.32-26.32h48.371c14.536,0,26.32,11.784,26.32,26.32v335.762
	C115.239,453.356,103.456,465.139,88.919,465.139z"/>
<g>
	<path style="fill:#507C5C;" d="M88.919,479.368H40.548C18.189,479.368,0,461.179,0,438.821V103.059
		c0-22.358,18.189-40.548,40.548-40.548h48.371c22.358,0,40.548,18.189,40.548,40.548v335.762
		C129.466,461.177,111.277,479.368,88.919,479.368z M40.548,90.965c-6.668,0-12.093,5.425-12.093,12.093v335.763
		c0,6.668,5.425,12.093,12.093,12.093h48.371c6.668,0,12.093-5.425,12.093-12.093V103.059c0-6.668-5.425-12.093-12.093-12.093
		L40.548,90.965L40.548,90.965z"/>
	<path style="fill:#507C5C;" d="M428.771,281.61H239.549c-20.396,0-36.989-16.595-36.989-36.991V123.11
		c0-9.862,3.836-19.14,10.798-26.121l53.335-53.484c6.991-7.011,16.293-10.871,26.194-10.871h135.884
		c20.396,0,36.991,16.595,36.991,36.991v174.993C465.762,265.015,449.167,281.61,428.771,281.61z M292.887,61.09
		c-2.285,0-4.432,0.891-6.045,2.508l-53.336,53.486c-1.608,1.612-2.491,3.752-2.491,6.028v121.507c0,4.708,3.829,8.536,8.535,8.536
		h189.222c4.708,0,8.536-3.829,8.536-8.536V69.626c0-4.708-3.829-8.536-8.536-8.536H292.887z"/>
	<path style="fill:#507C5C;" d="M475.009,479.368H193.311c-20.396,0-36.989-16.595-36.989-36.991V162.101
		c0-20.396,16.595-36.991,36.989-36.991h19.92c7.858,0,14.227,6.37,14.227,14.227c0,7.858-6.37,14.227-14.227,14.227h-19.92
		c-4.706,0-8.535,3.829-8.535,8.536v280.276c0,4.708,3.829,8.536,8.535,8.536H475.01c4.708,0,8.536-3.829,8.536-8.536V162.101
		c0-4.708-3.829-8.536-8.536-8.536h-21.342c-7.858,0-14.227-6.37-14.227-14.227c0-7.858,6.37-14.227,14.227-14.227h21.342
		c20.396,0,36.991,16.595,36.991,36.991v280.276C512,462.773,495.405,479.368,475.009,479.368z"/>
	<path style="fill:#507C5C;" d="M270.138,344.21h-38.412c-7.858,0-14.227-6.37-14.227-14.227c0-7.858,6.37-14.227,14.227-14.227
		h38.412c7.858,0,14.227,6.37,14.227,14.227C284.365,337.84,277.995,344.21,270.138,344.21z"/>
	<path style="fill:#507C5C;" d="M353.367,344.21h-38.413c-7.858,0-14.227-6.37-14.227-14.227c0-7.858,6.37-14.227,14.227-14.227
		h38.413c7.858,0,14.227,6.37,14.227,14.227C367.594,337.84,361.224,344.21,353.367,344.21z"/>
	<path style="fill:#507C5C;" d="M436.596,344.21h-38.413c-7.858,0-14.227-6.37-14.227-14.227c0-7.858,6.37-14.227,14.227-14.227
		h38.413c7.858,0,14.227,6.37,14.227,14.227C450.823,337.84,444.454,344.21,436.596,344.21z"/>
	<path style="fill:#507C5C;" d="M270.138,411.078h-38.412c-7.858,0-14.227-6.37-14.227-14.227s6.37-14.227,14.227-14.227h38.412
		c7.858,0,14.227,6.37,14.227,14.227S277.995,411.078,270.138,411.078z"/>
	<path style="fill:#507C5C;" d="M353.367,411.078h-38.413c-7.858,0-14.227-6.37-14.227-14.227s6.37-14.227,14.227-14.227h38.413
		c7.858,0,14.227,6.37,14.227,14.227S361.224,411.078,353.367,411.078z"/>
	<path style="fill:#507C5C;" d="M436.596,411.078h-38.413c-7.858,0-14.227-6.37-14.227-14.227s6.37-14.227,14.227-14.227h38.413
		c7.858,0,14.227,6.37,14.227,14.227S444.454,411.078,436.596,411.078z"/>
</g>
<g>
</g>
<g>
</g>
<g>
</g>
<g>
</g>
<g>
</g>
<g>
</g>
<g>
</g>
<g>
</g>
<g>
</g>
<g>
</g>
<g>
</g>
<g>
</g>
<g>
</g>
<g>
</g>
<g>
</g>
</svg>
