<?xml version="1.0" encoding="iso-8859-1"?>
<!-- Generator: Adobe Illustrator 19.0.0, SVG Export Plug-In . SVG Version: 6.00 Build 0)  -->
<svg version="1.1" id="Layer_1" xmlns="http://www.w3.org/2000/svg" xmlns:xlink="http://www.w3.org/1999/xlink" x="0px" y="0px"
	 viewBox="0 0 512 512" style="enable-background:new 0 0 512 512;" xml:space="preserve">
<path style="fill:#507C5C;" d="M410.274,512H101.723c-31.07,0-56.349-25.279-56.349-56.349V126.322
	c0-18.14,7.064-35.195,19.891-48.023l58.409-58.409C136.5,7.064,153.557,0,171.697,0h238.578c31.072,0,56.351,25.279,56.351,56.351
	v399.3C466.625,486.721,441.346,512,410.274,512z M171.697,28c-10.661,0-20.684,4.152-28.223,11.692L85.065,98.1
	c-7.539,7.539-11.692,17.562-11.692,28.223v329.328c0,15.631,12.718,28.349,28.349,28.349h308.552
	c15.633,0,28.35-12.718,28.35-28.349v-399.3c0-15.633-12.718-28.35-28.35-28.35H171.697V28z"/>
<path style="fill:#CFF09E;" d="M352.133,195.296H159.865c-7.521,0-13.618-6.097-13.618-13.618v-72.092
	c0-7.521,6.097-13.618,13.618-13.618h192.268c7.521,0,13.618,6.097,13.618,13.618v72.092
	C365.751,189.199,359.654,195.296,352.133,195.296z"/>
<g>
	<path style="fill:#507C5C;" d="M352.132,209.296H159.865c-15.229,0-27.619-12.39-27.619-27.618v-72.092
		c0-15.228,12.39-27.618,27.619-27.618h192.267c15.229,0,27.619,12.39,27.619,27.618v72.092
		C379.751,196.906,367.361,209.296,352.132,209.296z M160.247,181.296h191.504V109.97H160.247V181.296z"/>
	<path style="fill:#507C5C;" d="M365.475,290.494H146.523c-7.731,0-14-6.269-14-14s6.269-14,14-14h218.952c7.731,0,14,6.269,14,14
		C379.475,284.225,373.206,290.494,365.475,290.494z"/>
	<path style="fill:#507C5C;" d="M227.724,430.031h-80.351c-7.731,0-14-6.269-14-14s6.269-14,14-14h80.351c7.731,0,14,6.269,14,14
		C241.724,423.761,235.456,430.031,227.724,430.031z"/>
	<path style="fill:#507C5C;" d="M365.475,360.262H146.523c-7.731,0-14-6.269-14-14s6.269-14,14-14h218.952c7.731,0,14,6.269,14,14
		S373.206,360.262,365.475,360.262z"/>
</g>
<g>
</g>
<g>
</g>
<g>
</g>
<g>
</g>
<g>
</g>
<g>
</g>
<g>
</g>
<g>
</g>
<g>
</g>
<g>
</g>
<g>
</g>
<g>
</g>
<g>
</g>
<g>
</g>
<g>
</g>
</svg>
