<?xml version="1.0" encoding="iso-8859-1"?>
<!-- Generator: Adobe Illustrator 19.0.0, SVG Export Plug-In . SVG Version: 6.00 Build 0)  -->
<svg version="1.1" id="Layer_1" xmlns="http://www.w3.org/2000/svg" xmlns:xlink="http://www.w3.org/1999/xlink" x="0px" y="0px"
	 viewBox="0 0 512 512" style="enable-background:new 0 0 512 512;" xml:space="preserve">
<path style="fill:#CFF09E;" d="M155.893,15.168v68.907c0,29.425-23.859,53.284-53.284,53.284H37.783V68.452
	c0-29.425,23.859-53.284,53.284-53.284C91.067,15.168,155.893,15.168,155.893,15.168z"/>
<g>
	<path style="fill:#507C5C;" d="M102.609,152.526H37.783c-8.376,0-15.168-6.791-15.168-15.168V68.452
		C22.615,30.707,53.323,0,91.068,0h64.825c8.376,0,15.168,6.791,15.168,15.168v68.907
		C171.061,121.818,140.354,152.526,102.609,152.526z M52.95,122.191h49.659c21.016,0,38.116-17.099,38.116-38.116v-53.74H91.068
		c-21.019,0-38.118,17.099-38.118,38.116V122.191z"/>
	<path style="fill:#507C5C;" d="M420.932,512H91.067c-37.745,0-68.452-30.707-68.452-68.452V137.853
		c0-15.445,6.014-29.964,16.935-40.884l80.035-80.034C130.504,6.014,145.024,0,160.468,0h260.465
		c37.745,0,68.452,30.707,68.452,68.452v375.097C489.385,481.292,458.677,512,420.932,512z M160.468,30.335
		c-7.341,0-14.244,2.859-19.434,8.049L61,118.419c-5.192,5.19-8.051,12.093-8.051,19.434v305.695
		c0,21.016,17.099,38.116,38.116,38.116H420.93c21.018,0,38.118-17.099,38.118-38.116V68.452c0-21.016-17.099-38.116-38.116-38.116
		C420.932,30.335,160.468,30.335,160.468,30.335z"/>
	<path style="fill:#507C5C;" d="M399.482,155.494c-8.376,0-15.168-6.791-15.168-15.168v-30.473c0-3.827-3.114-6.941-6.941-6.941
		h-119.52c-3.825,0-6.939,3.114-6.939,6.941v30.473c0,8.377-6.792,15.168-15.168,15.168s-15.168-6.791-15.168-15.168v-30.473
		c0-20.554,16.721-37.276,37.275-37.276h119.52c20.555,0,37.276,16.721,37.276,37.276v30.473
		C414.649,148.704,407.859,155.494,399.482,155.494z"/>
	<path style="fill:#507C5C;" d="M400.093,233.74H111.907c-8.376,0-15.168-6.791-15.168-15.168s6.792-15.168,15.168-15.168h288.186
		c8.376,0,15.168,6.791,15.168,15.168C415.261,226.949,408.469,233.74,400.093,233.74z"/>
	<path style="fill:#507C5C;" d="M400.093,327.021H111.907c-8.376,0-15.168-6.791-15.168-15.168s6.792-15.168,15.168-15.168h288.186
		c8.376,0,15.168,6.791,15.168,15.168S408.469,327.021,400.093,327.021z"/>
	<path style="fill:#507C5C;" d="M400.093,420.302H111.907c-8.376,0-15.168-6.791-15.168-15.168s6.792-15.168,15.168-15.168h288.186
		c8.376,0,15.168,6.791,15.168,15.168C415.261,413.512,408.469,420.302,400.093,420.302z"/>
</g>
<g>
</g>
<g>
</g>
<g>
</g>
<g>
</g>
<g>
</g>
<g>
</g>
<g>
</g>
<g>
</g>
<g>
</g>
<g>
</g>
<g>
</g>
<g>
</g>
<g>
</g>
<g>
</g>
<g>
</g>
</svg>
