<?xml version="1.0" encoding="iso-8859-1"?>
<!-- Generator: Adobe Illustrator 19.0.0, SVG Export Plug-In . SVG Version: 6.00 Build 0)  -->
<svg version="1.1" id="Layer_1" xmlns="http://www.w3.org/2000/svg" xmlns:xlink="http://www.w3.org/1999/xlink" x="0px" y="0px"
	 viewBox="0 0 512 512" style="enable-background:new 0 0 512 512;" xml:space="preserve">
<path style="fill:#507C5C;" d="M105.16,478.266H48.95c-26.99,0-48.95-21.958-48.95-48.95V150.082
	c0-26.992,21.96-48.951,48.951-48.951h56.21c26.991,0,48.951,21.959,48.951,48.951v279.233
	C154.111,456.307,132.151,478.266,105.16,478.266z M48.951,127.8c-12.287,0-22.283,9.997-22.283,22.283v279.233
	c0,12.286,9.995,22.283,22.283,22.283h56.21c12.287,0,22.283-9.997,22.283-22.283V150.082c0-12.286-9.995-22.283-22.283-22.283
	h-56.21V127.8z"/>
<circle style="fill:#CFF09E;" cx="77.06" cy="394.1" r="26.855"/>
<g>
	<path style="fill:#507C5C;" d="M77.055,434.291c-22.159,0-40.186-18.028-40.186-40.186c0-22.159,18.028-40.185,40.186-40.185
		s40.186,18.028,40.186,40.185C117.241,416.266,99.213,434.291,77.055,434.291z M77.055,380.589
		c-7.454,0-13.518,6.063-13.518,13.517s6.064,13.518,13.518,13.518s13.518-6.064,13.518-13.518S84.509,380.589,77.055,380.589z"/>
	<path style="fill:#507C5C;" d="M95.991,187.996H58.655c-7.363,0-13.334-5.97-13.334-13.334s5.971-13.334,13.334-13.334H95.99
		c7.363,0,13.334,5.97,13.334,13.334S103.355,187.996,95.991,187.996z"/>
	<path style="fill:#507C5C;" d="M95.991,241.333H58.655c-7.363,0-13.334-5.97-13.334-13.334s5.971-13.334,13.334-13.334H95.99
		c7.363,0,13.334,5.97,13.334,13.334S103.355,241.333,95.991,241.333z"/>
	<path style="fill:#507C5C;" d="M463.049,478.266h-56.21c-26.991,0-48.951-21.959-48.951-48.951V150.082
		c0-26.992,21.96-48.951,48.951-48.951h56.21c26.991,0,48.951,21.959,48.951,48.951v279.233
		C512,456.307,490.04,478.266,463.049,478.266z M406.838,127.8c-12.287,0-22.283,9.997-22.283,22.283v279.233
		c0,12.286,9.995,22.283,22.283,22.283h56.21c12.287,0,22.283-9.997,22.283-22.283V150.082c0-12.286-9.995-22.283-22.283-22.283
		h-56.21V127.8z"/>
</g>
<circle style="fill:#CFF09E;" cx="434.94" cy="394.1" r="26.855"/>
<g>
	<path style="fill:#507C5C;" d="M434.944,434.291c-22.159,0-40.186-18.028-40.186-40.186c0-22.159,18.028-40.185,40.186-40.185
		c22.159,0,40.186,18.028,40.186,40.185C475.13,416.266,457.104,434.291,434.944,434.291z M434.944,380.589
		c-7.454,0-13.518,6.063-13.518,13.517s6.064,13.518,13.518,13.518s13.518-6.064,13.518-13.518S442.398,380.589,434.944,380.589z"/>
	<path style="fill:#507C5C;" d="M453.343,187.996h-37.335c-7.363,0-13.334-5.97-13.334-13.334s5.971-13.334,13.334-13.334h37.335
		c7.363,0,13.334,5.97,13.334,13.334S460.708,187.996,453.343,187.996z"/>
	<path style="fill:#507C5C;" d="M453.343,241.333h-37.335c-7.363,0-13.334-5.97-13.334-13.334s5.971-13.334,13.334-13.334h37.335
		c7.363,0,13.334,5.97,13.334,13.334S460.708,241.333,453.343,241.333z"/>
	<path style="fill:#507C5C;" d="M284.104,478.266h-56.208c-26.991,0-48.951-21.959-48.951-48.951V82.685
		c0-26.992,21.96-48.951,48.951-48.951h56.208c26.991,0,48.951,21.959,48.951,48.951v346.63
		C333.054,456.307,311.096,478.266,284.104,478.266z M227.895,60.403c-12.287,0-22.283,9.997-22.283,22.283v346.63
		c0,12.286,9.995,22.283,22.283,22.283h56.208c12.287,0,22.283-9.997,22.283-22.283V82.685c0-12.286-9.995-22.283-22.283-22.283
		C284.104,60.403,227.895,60.403,227.895,60.403z"/>
</g>
<circle style="fill:#CFF09E;" cx="256" cy="394.1" r="26.855"/>
<g>
	<path style="fill:#507C5C;" d="M255.999,434.291c-22.159,0-40.186-18.028-40.186-40.186c0-22.159,18.028-40.185,40.186-40.185
		s40.186,18.028,40.186,40.185C296.186,416.266,278.158,434.291,255.999,434.291z M255.999,380.589
		c-7.454,0-13.518,6.063-13.518,13.517s6.064,13.518,13.518,13.518s13.518-6.064,13.518-13.518S263.453,380.589,255.999,380.589z"/>
	<path style="fill:#507C5C;" d="M273.334,121.326h-36.002c-7.363,0-13.334-5.97-13.334-13.334s5.971-13.334,13.334-13.334h36.002
		c7.363,0,13.334,5.97,13.334,13.334S280.698,121.326,273.334,121.326z"/>
	<path style="fill:#507C5C;" d="M273.334,171.995h-36.002c-7.363,0-13.334-5.97-13.334-13.334s5.971-13.334,13.334-13.334h36.002
		c7.363,0,13.334,5.97,13.334,13.334S280.698,171.995,273.334,171.995z"/>
	<path style="fill:#507C5C;" d="M273.334,223.998h-36.002c-7.363,0-13.334-5.97-13.334-13.334s5.971-13.334,13.334-13.334h36.002
		c7.363,0,13.334,5.97,13.334,13.334S280.698,223.998,273.334,223.998z"/>
</g>
<g>
</g>
<g>
</g>
<g>
</g>
<g>
</g>
<g>
</g>
<g>
</g>
<g>
</g>
<g>
</g>
<g>
</g>
<g>
</g>
<g>
</g>
<g>
</g>
<g>
</g>
<g>
</g>
<g>
</g>
</svg>
