<?xml version="1.0" encoding="iso-8859-1"?>
<!-- Generator: Adobe Illustrator 19.0.0, SVG Export Plug-In . SVG Version: 6.00 Build 0)  -->
<svg version="1.1" id="Layer_1" xmlns="http://www.w3.org/2000/svg" xmlns:xlink="http://www.w3.org/1999/xlink" x="0px" y="0px"
	 viewBox="0 0 512 512" style="enable-background:new 0 0 512 512;" xml:space="preserve">
<path style="fill:#507C5C;" d="M403.539,512H81.464c-25.392,0-46.051-20.659-46.051-46.051V274.773
	c0-25.392,20.659-46.051,46.051-46.051h349.073c13.343,0,26.015,5.776,34.765,15.85c8.752,10.074,12.699,23.43,10.833,36.641
	l-27,191.175C445.947,494.971,426.346,512,403.539,512z M81.464,257.1c-9.745,0-17.673,7.929-17.673,17.673v191.175
	c0,9.745,7.929,17.673,17.673,17.673h322.074c8.753,0,16.276-6.534,17.5-15.202l27-191.175c0.726-5.146-0.749-10.139-4.159-14.062
	c-3.407-3.923-8.146-6.083-13.342-6.083H81.464V257.1z"/>
<path style="fill:#CFF09E;" d="M112.985,124.755H77.848c-15.6,0-28.247,12.646-28.247,28.247v14.834v106.938
	c0-17.597,14.265-31.862,31.862-31.862h31.521V124.755H112.985z"/>
<path style="fill:#507C5C;" d="M49.6,288.962c-7.835,0-14.189-6.354-14.189-14.189V153.002c0-23.398,19.037-42.435,42.435-42.435
	h35.137c7.835,0,14.189,6.354,14.189,14.189v118.156c0,7.835-6.354,14.189-14.189,14.189H81.462
	c-9.745,0-17.673,7.929-17.673,17.673C63.789,282.609,57.437,288.962,49.6,288.962z M77.848,138.944
	c-7.753,0-14.058,6.305-14.058,14.058v79.248c5.444-2.272,11.415-3.526,17.673-3.526h17.333v-89.78H77.848z"/>
<path style="fill:#CFF09E;" d="M399.023,170.302v72.609h23.634V198.14C422.658,184.115,412.424,172.508,399.023,170.302z"/>
<g>
	<path style="fill:#507C5C;" d="M422.657,257.1h-23.634c-7.835,0-14.189-6.354-14.189-14.189v-72.609
		c0-4.166,1.83-8.122,5.006-10.817c3.175-2.693,7.375-3.856,11.487-3.183c20.581,3.388,35.518,20.984,35.518,41.838v44.771
		C436.845,250.747,430.493,257.1,422.657,257.1z"/>
	<path style="fill:#507C5C;" d="M335.633,197.107H176.374c-7.835,0-14.189-6.354-14.189-14.189c0-7.835,6.354-14.189,14.189-14.189
		h159.259c7.835,0,14.189,6.354,14.189,14.189C349.822,190.754,343.47,197.107,335.633,197.107z"/>
	<path style="fill:#507C5C;" d="M335.633,129.713H176.374c-7.835,0-14.189-6.354-14.189-14.189s6.354-14.189,14.189-14.189h159.259
		c7.835,0,14.189,6.354,14.189,14.189S343.47,129.713,335.633,129.713z"/>
	<path style="fill:#507C5C;" d="M399.023,257.1H112.984c-7.835,0-14.189-6.354-14.189-14.189V95.888
		c0-14.265,5.555-27.676,15.642-37.763l42.484-42.484C167.008,5.555,180.42,0,194.683,0h173.536
		c24.809,0,44.992,20.183,44.992,44.992v197.919C413.211,250.747,406.857,257.1,399.023,257.1z M127.172,228.722h257.662V44.992
		c0-9.162-7.453-16.615-16.615-16.615H194.683c-6.684,0-12.97,2.604-17.696,7.33l-42.484,42.484
		c-4.728,4.728-7.331,11.013-7.331,17.697C127.172,95.888,127.172,228.722,127.172,228.722z"/>
</g>
<g>
</g>
<g>
</g>
<g>
</g>
<g>
</g>
<g>
</g>
<g>
</g>
<g>
</g>
<g>
</g>
<g>
</g>
<g>
</g>
<g>
</g>
<g>
</g>
<g>
</g>
<g>
</g>
<g>
</g>
</svg>
