<?xml version="1.0" encoding="iso-8859-1"?>
<!-- Generator: Adobe Illustrator 19.0.0, SVG Export Plug-In . SVG Version: 6.00 Build 0)  -->
<svg version="1.1" id="Layer_1" xmlns="http://www.w3.org/2000/svg" xmlns:xlink="http://www.w3.org/1999/xlink" x="0px" y="0px"
	 viewBox="0 0 512 512" style="enable-background:new 0 0 512 512;" xml:space="preserve">
<g>
	<path style="fill:#507C5C;" d="M331.261,95.748h-147.97c-8.11,0-14.684-6.574-14.684-14.684s6.574-14.684,14.684-14.684h133.286
		V56.188c0-14.788-12.031-26.819-26.819-26.819h-109.02c-8.11,0-14.684-6.574-14.684-14.684S172.627,0,180.738,0h109.02
		c30.982,0,56.188,25.205,56.188,56.188v24.877C345.945,89.174,339.371,95.748,331.261,95.748z"/>
	<path style="fill:#507C5C;" d="M349.813,512H162.187c-36.799,0-67.872-28.738-70.74-65.425L64.58,102.951
		c-0.319-4.081,1.079-8.109,3.859-11.114c2.78-3.004,6.687-4.714,10.78-4.714h353.56c4.094,0,8.001,1.709,10.78,4.714
		c2.78,3.006,4.179,7.035,3.859,11.114L420.55,446.575C417.683,483.262,386.612,512,349.813,512z M95.096,116.491l25.63,327.794
		c1.681,21.502,19.893,38.346,41.461,38.346h187.624c21.568,0,39.779-16.844,41.461-38.346l25.63-327.794H95.096L95.096,116.491z"/>
</g>
<path style="fill:#CFF09E;" d="M427.479,143.294H84.521c-20.239,0-36.647-16.407-36.647-36.647l0,0
	C47.873,86.408,64.28,70,84.521,70h342.958c20.239,0,36.647,16.407,36.647,36.647l0,0
	C464.127,126.886,447.718,143.294,427.479,143.294z"/>
<g>
	<path style="fill:#507C5C;" d="M427.479,157.977H84.521c-28.304,0-51.332-23.028-51.332-51.332s23.028-51.33,51.332-51.33h342.958
		c28.304,0,51.332,23.028,51.332,51.332S455.783,157.977,427.479,157.977z M84.521,84.684c-12.112,0-21.963,9.852-21.963,21.963
		s9.852,21.963,21.963,21.963h342.958c12.112,0,21.963-9.852,21.963-21.963s-9.852-21.963-21.963-21.963
		C427.479,84.684,84.521,84.684,84.521,84.684z"/>
	<path style="fill:#507C5C;" d="M179.439,505.631c-7.577,0-14.003-5.825-14.621-13.508l-17.621-219.237
		c-0.649-8.084,5.377-15.164,13.461-15.813c8.078-0.646,15.164,5.377,15.813,13.461l17.621,219.237
		c0.649,8.084-5.377,15.164-13.461,15.813C180.232,505.617,179.835,505.631,179.439,505.631z"/>
	<path style="fill:#507C5C;" d="M332.561,505.631c-0.395,0-0.793-0.016-1.194-0.048c-8.084-0.649-14.11-7.73-13.461-15.813
		l17.621-219.237c0.649-8.082,7.727-14.107,15.813-13.461c8.084,0.649,14.11,7.73,13.461,15.813L347.18,492.122
		C346.563,499.806,340.136,505.631,332.561,505.631z"/>
	<path style="fill:#507C5C;" d="M256,512c-8.11,0-14.684-6.574-14.684-14.684V270.195c0-8.11,6.574-14.684,14.684-14.684
		c8.11,0,14.684,6.574,14.684,14.684v227.121C270.684,505.426,264.11,512,256,512z"/>
</g>
<g>
</g>
<g>
</g>
<g>
</g>
<g>
</g>
<g>
</g>
<g>
</g>
<g>
</g>
<g>
</g>
<g>
</g>
<g>
</g>
<g>
</g>
<g>
</g>
<g>
</g>
<g>
</g>
<g>
</g>
</svg>
