<?xml version="1.0" encoding="iso-8859-1"?>
<!-- Generator: Adobe Illustrator 19.0.0, SVG Export Plug-In . SVG Version: 6.00 Build 0)  -->
<svg version="1.1" id="Layer_1" xmlns="http://www.w3.org/2000/svg" xmlns:xlink="http://www.w3.org/1999/xlink" x="0px" y="0px"
	 viewBox="0 0 512 512" style="enable-background:new 0 0 512 512;" xml:space="preserve">
<g>
	<path style="fill:#507C5C;" d="M282.427,356.121h-52.854c-7.718,0-13.975-6.258-13.975-13.975s6.257-13.975,13.975-13.975h52.854
		c7.717,0,13.975,6.258,13.975,13.975S290.144,356.121,282.427,356.121z"/>
	<path style="fill:#507C5C;" d="M51.67,360.082H29.644c-8.993,0-17.393-4.011-23.048-11.005c-5.653-6.995-7.815-16.048-5.931-24.841
		l37.773-176.282c3.611-23.591,22.652-67.374,69.657-67.374c38.529,0,69.875,31.346,69.875,69.875
		c0,7.717-6.257,13.975-13.975,13.975s-13.975-6.258-13.975-13.975c0-23.118-18.808-41.925-41.925-41.925
		c-34.914,0-41.804,42.198-42.079,43.994c-0.041,0.27-0.099,0.593-0.157,0.859L27.995,330.092c-0.112,0.521,0.001,0.998,0.338,1.413
		c0.335,0.416,0.777,0.626,1.311,0.626h22.028c7.718,0,13.975,6.258,13.975,13.975C65.646,353.823,59.388,360.082,51.67,360.082z"/>
	<path style="fill:#507C5C;" d="M482.356,360.082h-22.028c-7.717,0-13.975-6.258-13.975-13.975s6.258-13.975,13.975-13.975h22.028
		c0.534,0,0.975-0.21,1.311-0.626c0.335-0.415,0.449-0.892,0.337-1.413l-37.867-176.708c-0.064-0.303-0.119-0.607-0.164-0.911
		c-0.267-1.744-7.157-43.942-42.071-43.942c-23.118,0-41.925,18.808-41.925,41.925c0,7.717-6.258,13.975-13.975,13.975
		s-13.975-6.258-13.975-13.975c0-38.529,31.346-69.875,69.875-69.875c47.005,0,66.046,43.784,69.657,67.375l37.775,176.28
		c1.885,8.793-0.277,17.848-5.931,24.841C499.749,356.071,491.349,360.082,482.356,360.082z"/>
</g>
<path style="fill:#CFF09E;" d="M178.856,417.445H81.592c-25.766,0-46.653-20.887-46.653-46.653v-74.395
	c0-25.766,20.887-46.653,46.653-46.653h97.264c25.766,0,46.653,20.887,46.653,46.653v74.395
	C225.509,396.558,204.622,417.445,178.856,417.445z"/>
<g>
	<path style="fill:#507C5C;" d="M178.856,431.419H81.591c-33.43,0-60.628-27.198-60.628-60.628v-74.395
		c0-33.43,27.197-60.628,60.628-60.628h97.265c33.43,0,60.628,27.198,60.628,60.628v74.395
		C239.484,404.222,212.287,431.419,178.856,431.419z M81.591,263.718c-18.019,0-32.678,14.658-32.678,32.678v74.395
		c0,18.02,14.658,32.678,32.678,32.678h97.265c18.019,0,32.678-14.659,32.678-32.678v-74.395c0-18.019-14.658-32.678-32.678-32.678
		H81.591z"/>
	<path style="fill:#507C5C;" d="M80.264,354.557c-7.718,0-13.975-6.258-13.975-13.975v-33.978c0-13.392,10.895-24.287,24.286-24.287
		h31.008c7.718,0,13.975,6.258,13.975,13.975s-6.257,13.975-13.975,13.975H94.24v30.313C94.24,348.3,87.983,354.557,80.264,354.557z
		"/>
</g>
<path style="fill:#CFF09E;" d="M430.408,417.445h-97.264c-25.766,0-46.653-20.887-46.653-46.653v-74.395
	c0-25.766,20.887-46.653,46.653-46.653h97.264c25.766,0,46.653,20.887,46.653,46.653v74.395
	C477.061,396.558,456.174,417.445,430.408,417.445z"/>
<g>
	<path style="fill:#507C5C;" d="M430.408,431.419h-97.264c-33.431,0-60.63-27.198-60.63-60.628v-74.395
		c0-33.43,27.198-60.628,60.63-60.628h97.264c33.431,0,60.63,27.198,60.63,60.628v74.395
		C491.036,404.222,463.839,431.419,430.408,431.419z M333.144,263.718c-18.019,0-32.679,14.658-32.679,32.678v74.395
		c0,18.02,14.66,32.678,32.679,32.678h97.264c18.02,0,32.679-14.659,32.679-32.678v-74.395c0-18.019-14.66-32.678-32.679-32.678
		H333.144z"/>
	<path style="fill:#507C5C;" d="M331.818,354.557c-7.717,0-13.975-6.258-13.975-13.975v-33.978
		c0-13.392,10.895-24.287,24.286-24.287h31.008c7.717,0,13.975,6.258,13.975,13.975s-6.258,13.975-13.975,13.975h-27.344v30.313
		C345.793,348.3,339.535,354.557,331.818,354.557z"/>
</g>
<g>
</g>
<g>
</g>
<g>
</g>
<g>
</g>
<g>
</g>
<g>
</g>
<g>
</g>
<g>
</g>
<g>
</g>
<g>
</g>
<g>
</g>
<g>
</g>
<g>
</g>
<g>
</g>
<g>
</g>
</svg>
