<?xml version="1.0" encoding="iso-8859-1"?>
<!-- Generator: Adobe Illustrator 19.0.0, SVG Export Plug-In . SVG Version: 6.00 Build 0)  -->
<svg version="1.1" id="Layer_1" xmlns="http://www.w3.org/2000/svg" xmlns:xlink="http://www.w3.org/1999/xlink" x="0px" y="0px"
	 viewBox="0 0 512 512" style="enable-background:new 0 0 512 512;" xml:space="preserve">
<g>
	<path style="fill:#507C5C;" d="M342.186,403.518H169.793c-7.09,0-13.081-5.259-13.997-12.29
		c-2.496-19.135-11.273-27.624-25.813-41.688c-1.097-1.06-2.21-2.138-3.338-3.237c-24.542-23.915-58.155-56.665-58.155-134.584
		c0-49.991,19.889-95.524,56.001-128.214C159.035,52.237,205.738,35.016,256,35.016s96.966,17.221,131.509,48.489
		c7.826,7.085,15.002,14.895,21.327,23.214c3.585,4.715,6.957,9.676,10.023,14.746c1.53,2.532,3.009,5.134,4.4,7.734
		c2.781,5.207,5.319,10.629,7.542,16.116c1.667,4.116,3.193,8.353,4.535,12.602c5.424,17.153,8.174,35.255,8.174,53.802
		c0,32.525-5.724,59.661-17.497,82.962c-0.699,1.382-1.41,2.736-2.136,4.064c-2.081,3.81-4.38,7.594-6.829,11.244
		c-0.786,1.173-1.582,2.322-2.385,3.451c-3.007,4.22-6.235,8.308-9.869,12.498c-6.559,7.563-13.349,14.153-19.338,19.968
		c-1.203,1.167-2.384,2.306-3.549,3.426c-14.509,13.97-23.268,22.404-25.714,41.834C355.302,398.223,349.3,403.518,342.186,403.518z
		 M181.326,375.287H330.59c5.789-21.309,18.449-33.499,31.734-46.291c1.136-1.093,2.291-2.205,3.461-3.343
		c5.859-5.687,11.913-11.565,17.68-18.213c3.039-3.505,5.722-6.9,8.201-10.379c0.652-0.916,1.299-1.852,1.939-2.806
		c1.973-2.94,3.824-5.985,5.498-9.049c0.583-1.066,1.153-2.15,1.712-3.256c9.733-19.262,14.464-42.233,14.464-70.23
		c0-15.655-2.308-30.894-6.86-45.289c-1.121-3.546-2.394-7.083-3.784-10.513c-1.851-4.568-3.964-9.082-6.277-13.414
		c-1.155-2.162-2.387-4.326-3.659-6.432c-2.549-4.215-5.354-8.344-8.335-12.265c-5.273-6.936-11.263-13.453-17.799-19.371
		c-29.345-26.561-69.319-41.189-112.566-41.189s-83.221,14.628-112.563,41.187c-30.125,27.27-46.716,65.371-46.716,107.285
		c0,66.009,26.365,91.698,49.625,114.363c1.104,1.074,2.192,2.129,3.265,3.166C162.859,342.062,175.482,354.272,181.326,375.287z"/>
	<path style="fill:#507C5C;" d="M255.999,410.948c-7.796,0-14.115-6.319-14.115-14.115V296.498c0-7.796,6.319-14.115,14.115-14.115
		c7.796,0,14.115,6.319,14.115,14.115v100.335C270.114,404.627,263.795,410.948,255.999,410.948z"/>
	<path style="fill:#507C5C;" d="M255.999,315.618c-3.612,0-7.226-1.378-9.981-4.134l-61.028-61.028
		c-5.512-5.512-5.512-14.45,0-19.963c5.512-5.512,14.45-5.512,19.963,0L256,281.54l51.047-51.047c5.512-5.512,14.45-5.512,19.963,0
		c5.512,5.512,5.512,14.45,0,19.963l-61.028,61.028C263.225,314.241,259.612,315.618,255.999,315.618z"/>
	<path style="fill:#507C5C;" d="M427.066,57.954c-3.612,0-7.226-1.378-9.981-4.134c-5.512-5.512-5.512-14.45,0-19.963l29.723-29.723
		c5.512-5.512,14.45-5.512,19.963,0s5.512,14.45,0,19.963l-29.723,29.722C434.29,56.576,430.678,57.954,427.066,57.954z"/>
	<path style="fill:#507C5C;" d="M84.933,57.954c-3.612,0-7.226-1.378-9.981-4.134L45.229,24.098c-5.512-5.512-5.512-14.45,0-19.963
		s14.45-5.512,19.963,0l29.723,29.723c5.512,5.512,5.512,14.45,0,19.963C92.159,56.576,88.545,57.954,84.933,57.954z"/>
	<path style="fill:#507C5C;" d="M456.787,420.13c-3.612,0-7.226-1.378-9.981-4.134l-29.723-29.723
		c-5.512-5.512-5.512-14.45,0-19.963s14.45-5.512,19.963,0l29.723,29.723c5.512,5.512,5.512,14.45,0,19.963
		C464.013,418.752,460.401,420.13,456.787,420.13z"/>
	<path style="fill:#507C5C;" d="M55.21,420.13c-3.612,0-7.226-1.378-9.981-4.134c-5.512-5.512-5.512-14.45,0-19.963l29.723-29.721
		c5.512-5.512,14.45-5.512,19.963,0s5.512,14.45,0,19.963l-29.723,29.723C62.436,418.752,58.823,420.13,55.21,420.13z"/>
</g>
<path style="fill:#CFF09E;" d="M163.779,376.293v33.822c0,15.806,12.814,28.62,28.62,28.62h4.442
	c0.006,32.533,26.624,59.149,59.159,59.149l0,0c32.535,0,59.153-26.616,59.159-59.149h4.442c15.806,0,28.62-12.814,28.62-28.62
	v-33.822H163.779z"/>
<path style="fill:#507C5C;" d="M255.999,512c-35.867,0-65.802-25.906-72.067-59.99c-19.523-3.94-34.268-21.227-34.268-41.893
	v-33.822c0-7.796,6.319-14.115,14.115-14.115H348.22c7.796,0,14.115,6.319,14.115,14.115v33.822
	c0,20.666-14.746,37.953-34.268,41.893C321.801,486.094,291.867,512,255.999,512z M177.894,390.409v19.706
	c0,7.998,6.507,14.505,14.505,14.505h4.442c7.795,0,14.114,6.318,14.115,14.114c0.004,24.833,20.21,45.035,45.044,45.035
	c24.833,0,45.039-20.203,45.044-45.035c0.001-7.795,6.321-14.114,14.115-14.114h4.442c7.998,0,14.505-6.507,14.505-14.505v-19.706
	H177.894z"/>
<g>
</g>
<g>
</g>
<g>
</g>
<g>
</g>
<g>
</g>
<g>
</g>
<g>
</g>
<g>
</g>
<g>
</g>
<g>
</g>
<g>
</g>
<g>
</g>
<g>
</g>
<g>
</g>
<g>
</g>
</svg>
