<?xml version="1.0" encoding="iso-8859-1"?>
<!-- Generator: Adobe Illustrator 19.0.0, SVG Export Plug-In . SVG Version: 6.00 Build 0)  -->
<svg version="1.1" id="Layer_1" xmlns="http://www.w3.org/2000/svg" xmlns:xlink="http://www.w3.org/1999/xlink" x="0px" y="0px"
	 viewBox="0 0 511.999 511.999" style="enable-background:new 0 0 511.999 511.999;" xml:space="preserve">
<path style="fill:#507C5C;" d="M300.051,490.06h-77.234c-7.662,0-13.875-6.213-13.875-13.875V334.746
	c0-7.662,6.213-13.875,13.875-13.875s13.875,6.213,13.875,13.875v127.563h49.484V236.16c0-13.644-11.099-24.743-24.741-24.743
	c-13.644,0-24.743,11.099-24.743,24.743v31.555c0,7.662-6.213,13.875-13.875,13.875s-13.875-6.213-13.875-13.875V236.16
	c0-28.944,23.548-52.493,52.492-52.493s52.493,23.549,52.493,52.493v240.023C313.927,483.846,307.715,490.06,300.051,490.06z"/>
<path style="fill:#CFF09E;" d="M78.629,476.183V134.035c0-21.328,17.29-38.618,38.618-38.618l0,0
	c21.328,0,38.618,17.29,38.618,38.618v342.146H78.629V476.183z"/>
<g>
	<path style="fill:#507C5C;" d="M155.864,490.06H78.629c-7.662,0-13.875-6.213-13.875-13.875V134.037
		c0-28.944,23.549-52.493,52.493-52.493s52.493,23.549,52.493,52.493v342.146C169.74,483.846,163.526,490.06,155.864,490.06z
		 M92.504,462.309h49.485V134.037c0-13.644-11.099-24.743-24.743-24.743s-24.743,11.099-24.743,24.743L92.504,462.309
		L92.504,462.309z"/>
	<path style="fill:#507C5C;" d="M444.24,490.06h-77.236c-7.662,0-13.875-6.213-13.875-13.875V288.702
		c0-28.944,23.549-52.492,52.493-52.492s52.493,23.548,52.493,52.492v187.481C458.115,483.846,451.903,490.06,444.24,490.06z
		 M380.879,462.309h49.485V288.702c0-13.642-11.099-24.741-24.743-24.741s-24.742,11.099-24.742,24.741V462.309z"/>
	<path style="fill:#507C5C;" d="M498.125,489.777H62.388C27.987,489.777,0,461.79,0,427.389V35.815
		c0-7.662,6.213-13.876,13.875-13.876S27.75,28.152,27.75,35.814V427.39c0,19.099,15.538,34.637,34.637,34.637h435.737
		c7.662,0,13.875,6.213,13.875,13.875S505.787,489.777,498.125,489.777z"/>
</g>
<g>
</g>
<g>
</g>
<g>
</g>
<g>
</g>
<g>
</g>
<g>
</g>
<g>
</g>
<g>
</g>
<g>
</g>
<g>
</g>
<g>
</g>
<g>
</g>
<g>
</g>
<g>
</g>
<g>
</g>
</svg>
