<?xml version="1.0" encoding="iso-8859-1"?>
<!-- Generator: Adobe Illustrator 19.0.0, SVG Export Plug-In . SVG Version: 6.00 Build 0)  -->
<svg version="1.1" id="Layer_1" xmlns="http://www.w3.org/2000/svg" xmlns:xlink="http://www.w3.org/1999/xlink" x="0px" y="0px"
	 viewBox="0 0 512 512" style="enable-background:new 0 0 512 512;" xml:space="preserve">
<path style="fill:#CFF09E;" d="M142.421,455.733v14.48c0,15.086,12.344,27.43,27.43,27.43l0,0c15.086,0,27.43-12.344,27.43-27.43
	v-14.48"/>
<path style="fill:#507C5C;" d="M169.851,512c-23.042,0-41.788-18.746-41.788-41.788v-14.48h28.716v14.48
	c0,7.208,5.864,13.072,13.072,13.072s13.072-5.864,13.072-13.072v-14.48h28.716v14.48C211.638,493.254,192.893,512,169.851,512z"/>
<path style="fill:#CFF09E;" d="M314.72,455.733v14.48c0,15.086,12.344,27.43,27.43,27.43l0,0c15.086,0,27.43-12.344,27.43-27.43
	v-14.48"/>
<g>
	<path style="fill:#507C5C;" d="M342.15,512c-23.042,0-41.788-18.746-41.788-41.788v-14.48h28.716v14.48
		c0,7.208,5.864,13.072,13.072,13.072s13.072-5.864,13.072-13.072v-14.48h28.716v14.48C383.937,493.254,365.192,512,342.15,512z"/>
	<path style="fill:#507C5C;" d="M380.767,462.911H131.233c-34.127,0-61.89-27.763-61.89-61.89V137.128
		c0-34.127,27.763-61.89,61.89-61.89h249.533c34.127,0,61.89,27.763,61.89,61.89v263.894
		C442.656,435.148,414.893,462.911,380.767,462.911z M131.233,103.955c-18.291,0-33.173,14.881-33.173,33.173v263.894
		c0,18.291,14.881,33.173,33.173,33.173h249.533c18.291,0,33.173-14.881,33.173-33.173V137.128
		c0-18.291-14.881-33.173-33.173-33.173H131.233z"/>
</g>
<path style="fill:#CFF09E;" d="M428.298,175.749v-38.621c0-26.251-21.28-47.531-47.53-47.531H131.233
	c-26.25,0-47.53,21.28-47.53,47.531v38.621H428.298z"/>
<g>
	<path style="fill:#507C5C;" d="M428.298,190.107H83.703c-7.929,0-14.358-6.43-14.358-14.358v-38.621
		c0-34.127,27.763-61.89,61.89-61.89h249.532c34.127,0,61.89,27.763,61.89,61.89v38.621
		C442.656,183.679,436.227,190.107,428.298,190.107z M98.062,161.391H413.94v-24.263c0-18.291-14.881-33.173-33.173-33.173H131.233
		c-18.291,0-33.173,14.881-33.173,33.173v24.263H98.062z"/>
	<path style="fill:#507C5C;" d="M343.495,239.403c-7.929,0-14.358-6.43-14.358-14.358V25.746c0-7.929,6.43-14.358,14.358-14.358
		s14.358,6.43,14.358,14.358v199.301C357.854,232.975,351.426,239.403,343.495,239.403z"/>
	<path style="fill:#507C5C;" d="M168.505,399.737c-7.929,0-14.358-6.43-14.358-14.358V25.746c0-7.929,6.43-14.358,14.358-14.358
		s14.358,6.43,14.358,14.358v359.635C182.863,393.309,176.435,399.737,168.505,399.737z"/>
	<path style="fill:#507C5C;" d="M301.677,269.033H168.505c-7.929,0-14.358-6.43-14.358-14.358s6.43-14.358,14.358-14.358h133.173
		c7.929,0,14.358,6.43,14.358,14.358S309.607,269.033,301.677,269.033z"/>
	<path style="fill:#507C5C;" d="M301.677,355.224H168.505c-7.929,0-14.358-6.43-14.358-14.358s6.43-14.358,14.358-14.358h133.173
		c7.929,0,14.358,6.43,14.358,14.358S309.607,355.224,301.677,355.224z"/>
	<path style="fill:#507C5C;" d="M353.637,28.716H158.365c-7.929,0-14.358-6.43-14.358-14.358S150.436,0,158.365,0h195.272
		c7.929,0,14.358,6.43,14.358,14.358S361.565,28.716,353.637,28.716z"/>
</g>
<g>
</g>
<g>
</g>
<g>
</g>
<g>
</g>
<g>
</g>
<g>
</g>
<g>
</g>
<g>
</g>
<g>
</g>
<g>
</g>
<g>
</g>
<g>
</g>
<g>
</g>
<g>
</g>
<g>
</g>
</svg>
