<?xml version="1.0" encoding="iso-8859-1"?>
<!-- Generator: Adobe Illustrator 19.0.0, SVG Export Plug-In . SVG Version: 6.00 Build 0)  -->
<svg version="1.1" id="Layer_1" xmlns="http://www.w3.org/2000/svg" xmlns:xlink="http://www.w3.org/1999/xlink" x="0px" y="0px"
	 viewBox="0 0 511.999 511.999" style="enable-background:new 0 0 511.999 511.999;" xml:space="preserve">
<path style="fill:#CFF09E;" d="M213.559,86.231V30.389c0-11.301,11.427-19.018,21.909-14.799l52.974,21.322
	c6.04,2.43,9.996,8.289,9.996,14.799v34.522"/>
<g>
	<path style="fill:#507C5C;" d="M312.871,86.231h-28.866v-34.52c0-0.624-0.374-1.176-0.953-1.412l-52.973-21.321
		c-0.202-0.082-0.749-0.3-1.417,0.152c-0.67,0.452-0.67,1.038-0.67,1.259V86.23h-28.866V30.389c0-10.107,5.001-19.52,13.376-25.178
		c8.377-5.656,18.973-6.783,28.355-3.011l52.974,21.323c11.566,4.656,19.04,15.72,19.04,28.187V86.231z"/>
	<path style="fill:#507C5C;" d="M289.916,511.999h-67.834c-37.007,0-67.113-30.106-67.113-67.113V161.281
		c0-19.896,16.186-36.082,36.082-36.082h129.896c19.896,0,36.082,16.186,36.082,36.082v283.606
		C357.029,481.894,326.923,511.999,289.916,511.999z M191.051,154.064c-3.979,0-7.216,3.237-7.216,7.216v283.606
		c0,21.089,17.158,38.247,38.247,38.247h67.834c21.089,0,38.247-17.158,38.247-38.247V161.281c0-3.979-3.237-7.216-7.216-7.216
		H191.051V154.064z"/>
	<path style="fill:#507C5C;" d="M259.415,461.484h-20.066c-20.588,0-37.336-16.748-37.336-37.335v-97.94
		c0-7.97,6.463-14.433,14.433-14.433s14.433,6.463,14.433,14.433v97.94c0,4.669,3.8,8.469,8.471,8.469h20.066
		c7.97,0,14.433,6.463,14.433,14.433S267.386,461.484,259.415,461.484z"/>
</g>
<path style="fill:#CFF09E;" d="M311.085,139.631h-110.17c-7.971,0-14.433-6.462-14.433-14.433v-19.725
	c0-7.971,6.462-14.433,14.433-14.433h110.17c7.971,0,14.433,6.462,14.433,14.433v19.725
	C325.517,133.17,319.056,139.631,311.085,139.631z"/>
<path style="fill:#507C5C;" d="M311.085,154.064H200.913c-15.917,0-28.866-12.949-28.866-28.866v-19.725
	c0-15.917,12.949-28.866,28.866-28.866h110.172c15.917,0,28.866,12.949,28.866,28.866v19.725
	C339.95,141.117,327.001,154.064,311.085,154.064z M200.913,105.473v19.725h110.172c0.013,0,0.019,0,0.019,0l-0.019-19.725H200.913z
	"/>
<g>
</g>
<g>
</g>
<g>
</g>
<g>
</g>
<g>
</g>
<g>
</g>
<g>
</g>
<g>
</g>
<g>
</g>
<g>
</g>
<g>
</g>
<g>
</g>
<g>
</g>
<g>
</g>
<g>
</g>
</svg>
