<?xml version="1.0" encoding="iso-8859-1"?>
<!-- Generator: Adobe Illustrator 19.0.0, SVG Export Plug-In . SVG Version: 6.00 Build 0)  -->
<svg version="1.1" id="Layer_1" xmlns="http://www.w3.org/2000/svg" xmlns:xlink="http://www.w3.org/1999/xlink" x="0px" y="0px"
	 viewBox="0 0 512 512" style="enable-background:new 0 0 512 512;" xml:space="preserve">
<g>
	<path style="fill:#507C5C;" d="M222.539,500.406H73.709c-27.175,0-49.285-22.108-49.285-49.285
		c0-27.176,22.108-49.285,49.285-49.285h9.841l11.047-170.661c0.537-8.305,7.693-14.591,16.012-14.065
		c8.305,0.537,14.603,7.707,14.065,16.012L112.716,417.88c-0.512,7.928-7.094,14.097-15.039,14.097H73.709
		c-10.555,0-19.144,8.587-19.144,19.144s8.587,19.144,19.144,19.144h148.83c10.555,0,19.144-8.587,19.144-19.144
		s-8.587-19.144-19.144-19.144h-23.966c-7.945,0-14.526-6.168-15.039-14.097l-11.96-184.758c-0.538-8.305,5.76-15.476,14.065-16.012
		c8.316-0.552,15.476,5.76,16.012,14.065l11.047,170.661h9.841c27.175,0,49.285,22.108,49.285,49.285
		C271.824,478.298,249.714,500.406,222.539,500.406z"/>
	<path style="fill:#507C5C;" d="M344.244,312.19c-6.327,0-12.531-1.283-18.44-3.808l-18.541-7.93
		c-20.856-8.92-41.599-13.256-63.411-13.256H125.304C56.211,287.194,0,230.983,0,161.892S56.211,36.588,125.304,36.588h118.549
		c21.814,0,42.557-4.336,63.412-13.256l18.541-7.93c5.909-2.527,12.114-3.808,18.442-3.808c25.825,0,46.833,21.032,46.833,46.884
		v206.827C391.079,291.156,370.069,312.19,344.244,312.19z M125.304,66.728c-52.473,0-95.163,42.69-95.163,95.163
		s42.69,95.163,95.163,95.163h118.549c25.969,0,50.588,5.13,75.264,15.685l18.541,7.93c2.142,0.916,4.358,1.38,6.587,1.38
		c8.028,0,16.693-6.402,16.693-16.743V58.477c0-10.343-8.664-16.743-16.692-16.743c-2.23,0-4.447,0.464-6.589,1.38l-18.541,7.93
		c-24.675,10.554-49.295,15.684-75.264,15.684C243.852,66.728,125.304,66.728,125.304,66.728z"/>
	<path style="fill:#507C5C;" d="M442.669,91.634c-3.3,0-6.625-1.079-9.402-3.302c-6.5-5.199-7.555-14.683-2.355-21.181l24.11-30.142
		c5.201-6.498,14.683-7.555,21.183-2.355c6.5,5.199,7.555,14.683,2.355,21.181l-24.111,30.142
		C451.471,89.697,447.089,91.634,442.669,91.634z"/>
	<path style="fill:#507C5C;" d="M496.93,176.962h-39.181c-8.322,0-15.07-6.747-15.07-15.07c0-8.323,6.749-15.07,15.07-15.07h39.181
		c8.322,0,15.07,6.747,15.07,15.07C512,170.215,505.251,176.962,496.93,176.962z"/>
	<path style="fill:#507C5C;" d="M466.8,292.434c-4.423,0-8.803-1.937-11.779-5.657l-24.109-30.142
		c-5.198-6.5-4.144-15.982,2.355-21.181c6.503-5.202,15.982-4.144,21.183,2.355l24.11,30.142c5.198,6.5,4.144,15.982-2.355,21.181
		C473.423,291.354,470.098,292.434,466.8,292.434z"/>
</g>
<path style="fill:#CFF09E;" d="M195.524,51.658h-70.222c-60.628,0-110.232,49.606-110.232,110.234l0,0
	c0,60.628,49.604,110.232,110.232,110.232h70.22V51.658H195.524z"/>
<path style="fill:#507C5C;" d="M195.524,287.194h-70.22C56.211,287.194,0,230.983,0,161.892S56.211,36.588,125.302,36.588h70.222
	c8.323,0,15.07,6.747,15.07,15.07v220.466C210.595,280.447,203.848,287.194,195.524,287.194z M125.302,66.728
	c-52.472,0-95.162,42.69-95.162,95.163s42.69,95.163,95.163,95.163h55.15V66.728H125.302z"/>
<g>
</g>
<g>
</g>
<g>
</g>
<g>
</g>
<g>
</g>
<g>
</g>
<g>
</g>
<g>
</g>
<g>
</g>
<g>
</g>
<g>
</g>
<g>
</g>
<g>
</g>
<g>
</g>
<g>
</g>
</svg>
