<?xml version="1.0" encoding="iso-8859-1"?>
<!-- Generator: Adobe Illustrator 19.0.0, SVG Export Plug-In . SVG Version: 6.00 Build 0)  -->
<svg version="1.1" id="Layer_1" xmlns="http://www.w3.org/2000/svg" xmlns:xlink="http://www.w3.org/1999/xlink" x="0px" y="0px"
	 viewBox="0 0 512 512" style="enable-background:new 0 0 512 512;" xml:space="preserve">
<path style="fill:#507C5C;" d="M441.937,404.211H70.063C31.43,404.211,0,372.78,0,334.147V177.853
	c0-38.633,31.43-70.063,70.063-70.063h371.874c38.633,0,70.063,31.43,70.063,70.063v156.295
	C512,372.78,480.57,404.211,441.937,404.211z M70.063,134.737c-23.774,0-43.116,19.341-43.116,43.116v156.295
	c0,23.774,19.341,43.116,43.116,43.116h371.874c23.774,0,43.116-19.341,43.116-43.116V177.853c0-23.774-19.341-43.116-43.116-43.116
	H70.063z"/>
<path style="fill:#CFF09E;" d="M498.526,177.853v21.423c-7.033,2.533-14.605,3.907-22.501,3.907c-36.756,0-66.56-29.804-66.56-66.56
	c0-5.282,0.62-10.429,1.792-15.36h30.68C473.196,121.263,498.526,146.594,498.526,177.853z"/>
<path style="fill:#507C5C;" d="M476.025,216.656c-44.13,0-80.034-35.902-80.034-80.034c0-6.238,0.726-12.454,2.157-18.476
	c1.443-6.071,6.868-10.357,13.109-10.357h30.68c38.633,0,70.063,31.43,70.063,70.063v21.423c0,5.681-3.564,10.752-8.909,12.676
	C494.425,215.074,485.318,216.656,476.025,216.656z M422.971,134.737c-0.022,0.628-0.032,1.257-0.032,1.886
	c0,29.272,23.815,53.086,53.086,53.086c3.049,0,6.065-0.255,9.027-0.763v-11.094c0-23.774-19.341-43.116-43.116-43.116
	L422.971,134.737L422.971,134.737z"/>
<path style="fill:#CFF09E;" d="M102.535,136.622c0,36.756-29.804,66.56-66.56,66.56c-7.896,0-15.468-1.374-22.501-3.907v-21.423
	c0-31.259,25.331-56.589,56.589-56.589h30.68C101.915,126.195,102.535,131.341,102.535,136.622z"/>
<path style="fill:#507C5C;" d="M35.975,216.656c-9.293,0-18.4-1.583-27.066-4.705C3.564,210.027,0,204.956,0,199.276v-21.423
	c0-38.633,31.43-70.063,70.063-70.063h30.68c6.241,0,11.666,4.286,13.109,10.357c1.432,6.023,2.157,12.238,2.157,18.476
	C116.008,180.754,80.106,216.656,35.975,216.656z M26.947,188.945c2.963,0.508,5.978,0.763,9.027,0.763
	c29.272,0,53.086-23.815,53.086-53.086c0-0.629-0.011-1.258-0.032-1.886H70.063c-23.774,0-43.116,19.341-43.116,43.116
	C26.947,177.853,26.947,188.945,26.947,188.945z"/>
<path style="fill:#CFF09E;" d="M498.526,312.724v21.423c0,31.259-25.331,56.589-56.589,56.589h-30.68
	c-1.172-4.931-1.792-10.078-1.792-15.36c0-36.756,29.804-66.56,66.56-66.56C483.921,308.816,491.493,310.191,498.526,312.724z"/>
<path style="fill:#507C5C;" d="M441.937,404.211h-30.68c-6.241,0-11.665-4.286-13.109-10.357
	c-1.432-6.023-2.157-12.238-2.157-18.476c0-44.13,35.902-80.034,80.034-80.034c9.295,0,18.402,1.583,27.067,4.705
	c5.345,1.925,8.907,6.996,8.907,12.676v21.423C512,372.78,480.57,404.211,441.937,404.211z M422.971,377.263h18.966
	c23.774,0,43.116-19.341,43.116-43.116v-11.094c-2.962-0.507-5.978-0.763-9.027-0.763c-29.272,0-53.086,23.815-53.086,53.086
	C422.939,376.006,422.95,376.635,422.971,377.263z"/>
<path style="fill:#CFF09E;" d="M102.535,375.377c0,5.282-0.62,10.429-1.792,15.36h-30.68c-31.259,0-56.589-25.331-56.589-56.589
	v-21.423c7.033-2.533,14.605-3.907,22.501-3.907C72.731,308.816,102.535,338.621,102.535,375.377z"/>
<g>
	<path style="fill:#507C5C;" d="M100.743,404.211h-30.68C31.43,404.211,0,372.78,0,334.147v-21.423
		c0-5.681,3.562-10.751,8.907-12.676c8.666-3.122,17.772-4.705,27.067-4.705c44.13,0,80.034,35.902,80.034,80.034
		c0,6.238-0.726,12.454-2.157,18.476C112.408,399.924,106.984,404.211,100.743,404.211z M26.947,323.053v11.094
		c0,23.774,19.341,43.116,43.116,43.116h18.966c0.022-0.628,0.032-1.257,0.032-1.886c0-29.272-23.815-53.086-53.086-53.086
		C32.926,322.29,29.909,322.547,26.947,323.053z"/>
	<path style="fill:#507C5C;" d="M256,386.246c-71.817,0-130.246-58.427-130.246-130.246S184.183,125.754,256,125.754
		c40.346,0,77.757,18.246,102.641,50.057c4.585,5.861,3.55,14.329-2.311,18.914s-14.329,3.55-18.914-2.311
		C317.674,167.177,288,152.701,256,152.701c-56.959,0-103.299,46.34-103.299,103.299S199.041,359.299,256,359.299
		S359.299,312.959,359.299,256c0-6.396-0.587-12.793-1.743-19.017c-1.361-7.316,3.468-14.349,10.783-15.71
		c7.315-1.362,14.348,3.468,15.71,10.783c1.459,7.843,2.198,15.899,2.198,23.943C386.246,327.816,327.817,386.246,256,386.246z"/>
	<path style="fill:#507C5C;" d="M250.678,326.841c-22.422-0.748-40.731-12.331-40.731-24.289c0-6.353,5.605-15.694,12.706-15.694
		c7.847,0,14.2,11.024,28.027,13.452v-30.27c-17.19-6.54-37.368-14.573-37.368-38.489c0-23.729,17.563-35.126,37.368-37.928v-5.232
		c0-2.615,2.99-5.045,7.101-5.045c3.55,0,7.101,2.429,7.101,5.045v4.671c11.585,0.373,33.444,3.363,33.444,16.255
		c0,5.045-3.363,15.321-11.585,15.321c-6.166,0-9.716-5.98-21.861-6.913v27.279c17.002,6.353,36.807,15.134,36.807,40.358
		c0,23.168-14.948,37.182-36.807,40.731v5.418c0,2.615-3.55,5.045-7.101,5.045c-4.111,0-7.101-2.429-7.101-5.045L250.678,326.841
		L250.678,326.841z M252.547,240.52v-22.234c-8.408,1.682-11.958,5.98-11.958,10.464C240.589,234.167,245.446,237.53,252.547,240.52
		z M263.009,275.085v25.037c6.353-1.494,11.397-5.045,11.397-11.771C274.406,282.186,269.735,278.26,263.009,275.085z"/>
</g>
<g>
</g>
<g>
</g>
<g>
</g>
<g>
</g>
<g>
</g>
<g>
</g>
<g>
</g>
<g>
</g>
<g>
</g>
<g>
</g>
<g>
</g>
<g>
</g>
<g>
</g>
<g>
</g>
<g>
</g>
</svg>
