<?xml version="1.0" encoding="iso-8859-1"?>
<!-- Generator: Adobe Illustrator 19.0.0, SVG Export Plug-In . SVG Version: 6.00 Build 0)  -->
<svg version="1.1" id="Layer_1" xmlns="http://www.w3.org/2000/svg" xmlns:xlink="http://www.w3.org/1999/xlink" x="0px" y="0px"
	 viewBox="0 0 512 512" style="enable-background:new 0 0 512 512;" xml:space="preserve">
<path style="fill:#507C5C;" d="M387.696,289.332h-29.104v-39.049c0-56.57-46.022-102.592-102.592-102.592
	s-102.592,46.022-102.592,102.592v39.049h-29.104v-39.049c0-72.618,59.078-131.696,131.696-131.696s131.696,59.078,131.696,131.696
	L387.696,289.332L387.696,289.332z"/>
<path style="fill:#CFF09E;" d="M138.856,289.332v90.972c0,64.429,52.715,117.144,117.144,117.144l0,0
	c64.429,0,117.144-52.715,117.144-117.144v-90.972l-42.632,13.762c-48.172,15.55-100.006,15.606-148.21,0.16L138.856,289.332z"/>
<g>
	<path style="fill:#507C5C;" d="M256,512c-72.618,0-131.696-59.078-131.696-131.696v-90.972c0-4.646,2.219-9.015,5.974-11.755
		c3.756-2.74,8.593-3.519,13.018-2.103l43.447,13.921c22.467,7.2,45.823,10.852,69.416,10.852c23.761,0,47.272-3.702,69.883-11.001
		l42.632-13.762c4.427-1.426,9.273-0.652,13.036,2.084c3.762,2.74,5.987,7.113,5.987,11.765v90.972
		C387.696,452.922,328.618,512,256,512z M153.408,309.275v71.029c0,56.57,46.022,102.592,102.592,102.592
		s102.592-46.022,102.592-102.592v-70.982l-23.609,7.621c-25.504,8.232-52.024,12.407-78.824,12.407
		c-26.613,0-52.955-4.118-78.297-12.238L153.408,309.275z"/>
	<path style="fill:#507C5C;" d="M256,261.798c-8.037,0-14.552-6.516-14.552-14.552v-35.577c0-8.036,6.515-14.552,14.552-14.552
		c8.037,0,14.552,6.516,14.552,14.552v35.577C270.552,255.283,264.036,261.798,256,261.798z"/>
	<path style="fill:#507C5C;" d="M256,146.976c-8.037,0-14.552-6.516-14.552-14.552V88.766c0-21.665,17.625-39.291,39.291-39.291
		h37.835c5.617,0,10.186-4.571,10.186-10.186V14.552C328.76,6.516,335.275,0,343.312,0c8.037,0,14.552,6.516,14.552,14.552v24.737
		c0,21.665-17.625,39.291-39.291,39.291h-37.835c-5.617,0-10.186,4.571-10.186,10.186v43.658
		C270.552,140.459,264.036,146.976,256,146.976z"/>
</g>
<g>
</g>
<g>
</g>
<g>
</g>
<g>
</g>
<g>
</g>
<g>
</g>
<g>
</g>
<g>
</g>
<g>
</g>
<g>
</g>
<g>
</g>
<g>
</g>
<g>
</g>
<g>
</g>
<g>
</g>
</svg>
