<?xml version="1.0" encoding="iso-8859-1"?>
<!-- Generator: Adobe Illustrator 19.0.0, SVG Export Plug-In . SVG Version: 6.00 Build 0)  -->
<svg version="1.1" id="Layer_1" xmlns="http://www.w3.org/2000/svg" xmlns:xlink="http://www.w3.org/1999/xlink" x="0px" y="0px"
	 viewBox="0 0 512.002 512.002" style="enable-background:new 0 0 512.002 512.002;" xml:space="preserve">
<g>
	<path style="fill:#507C5C;" d="M451.372,507.271H106.185c-8.025,0-14.529-6.506-14.529-14.529V65.358
		c0-33.429,27.198-60.627,60.627-60.627h299.091c33.431,0,60.628,27.198,60.628,60.627v381.288
		C512,480.075,484.802,507.271,451.372,507.271z M120.715,478.212h330.659c17.406,0,31.569-14.16,31.569-31.568V65.358
		c0-17.406-14.162-31.568-31.569-31.568H152.283c-17.406,0-31.568,14.16-31.568,31.568
		C120.715,65.358,120.715,478.212,120.715,478.212z"/>
	<path style="fill:#507C5C;" d="M114.338,507.271H93.715C42.041,507.271,0,465.23,0,413.556V192.727
		c0-18.906,15.381-34.285,34.286-34.285h26.849c8.025,0,14.529,6.506,14.529,14.529S69.16,187.5,61.135,187.5H34.286
		c-2.883,0-5.228,2.344-5.228,5.226v220.829c0,35.651,29.004,64.656,64.656,64.656h20.623c8.025,0,14.529,6.506,14.529,14.529
		C128.867,500.764,122.362,507.271,114.338,507.271z"/>
</g>
<path style="fill:#CFF09E;" d="M194.068,237.801h215.52c7.805,0,14.133-6.328,14.133-14.133V134.32
	c0-7.805-6.328-14.133-14.133-14.133h-215.52c-7.805,0-14.133,6.328-14.133,14.133v89.349
	C179.935,231.474,186.263,237.801,194.068,237.801z"/>
<g>
	<path style="fill:#507C5C;" d="M409.587,252.329h-215.52c-15.804,0-28.662-12.859-28.662-28.662v-89.346
		c0-15.805,12.857-28.664,28.662-28.664h215.52c15.804,0,28.662,12.859,28.662,28.664v89.347
		C438.249,239.472,425.392,252.329,409.587,252.329z M194.464,223.27H409.19v-88.554H194.464V223.27z"/>
	<path style="fill:#507C5C;" d="M422.265,394.72c-8.025,0-14.529-6.506-14.529-14.529v-49.72h-73.561v49.72
		c0,8.023-6.505,14.529-14.529,14.529c-8.025,0-14.529-6.506-14.529-14.529v-53.676c0-13.841,11.26-25.101,25.102-25.101h81.475
		c13.841,0,25.101,11.26,25.101,25.101v53.676C436.794,388.215,430.29,394.72,422.265,394.72z"/>
	<path style="fill:#507C5C;" d="M264.776,394.72h-83.389c-8.025,0-14.529-6.506-14.529-14.529c0-8.023,6.505-14.529,14.529-14.529
		h83.389c8.025,0,14.529,6.506,14.529,14.529C279.306,388.214,272.801,394.72,264.776,394.72z"/>
	<path style="fill:#507C5C;" d="M264.776,336.603h-83.389c-8.025,0-14.529-6.506-14.529-14.529s6.505-14.529,14.529-14.529h83.389
		c8.025,0,14.529,6.506,14.529,14.529S272.801,336.603,264.776,336.603z"/>
</g>
<g>
</g>
<g>
</g>
<g>
</g>
<g>
</g>
<g>
</g>
<g>
</g>
<g>
</g>
<g>
</g>
<g>
</g>
<g>
</g>
<g>
</g>
<g>
</g>
<g>
</g>
<g>
</g>
<g>
</g>
</svg>
