<?xml version="1.0" encoding="iso-8859-1"?>
<!-- Generator: Adobe Illustrator 19.0.0, SVG Export Plug-In . SVG Version: 6.00 Build 0)  -->
<svg version="1.1" id="Layer_1" xmlns="http://www.w3.org/2000/svg" xmlns:xlink="http://www.w3.org/1999/xlink" x="0px" y="0px"
	 viewBox="0 0 512 512" style="enable-background:new 0 0 512 512;" xml:space="preserve">
<path style="fill:#507C5C;" d="M423.524,512H88.476c-8.011,0-14.504-6.494-14.504-14.504V82.776C73.972,37.134,111.105,0,156.747,0
	h198.505c45.642,0,82.776,37.134,82.776,82.776v414.72C438.028,505.506,431.533,512,423.524,512z M102.98,482.991h306.04V82.776
	c0-29.648-24.121-53.767-53.767-53.767H156.747c-29.647,0-53.767,24.119-53.767,53.767C102.98,82.776,102.98,482.991,102.98,482.991
	z"/>
<path style="fill:#CFF09E;" d="M314.017,416.083v81.412H197.983v-81.412c0-31.909,26.108-58.017,58.017-58.017
	c15.955,0,30.459,6.527,40.975,17.043C307.49,385.624,314.017,400.129,314.017,416.083z"/>
<path style="fill:#507C5C;" d="M314.017,512H197.983c-8.011,0-14.504-6.494-14.504-14.504v-81.412
	c0-39.988,32.533-72.521,72.521-72.521c19.308,0,37.501,7.561,51.23,21.291c13.73,13.73,21.291,31.924,21.291,51.23v81.412
	C328.521,505.506,322.026,512,314.017,512z M212.487,482.991h87.025v-66.908c0-11.558-4.544-22.469-12.794-30.719
	s-19.16-12.794-30.719-12.794c-23.993,0-43.513,19.52-43.513,43.513v66.908H212.487z"/>
<path style="fill:#CFF09E;" d="M208.995,171.149h-39.428c-11.341,0-20.535-9.194-20.535-20.535v-39.428
	c0-11.341,9.194-20.535,20.535-20.535h39.428c11.341,0,20.535,9.194,20.535,20.535v39.428
	C229.53,161.954,220.335,171.149,208.995,171.149z"/>
<path style="fill:#507C5C;" d="M208.995,185.653h-39.428c-19.321,0-35.039-15.718-35.039-35.039v-39.428
	c0-19.321,15.718-35.039,35.039-35.039h39.428c19.321,0,35.039,15.718,35.039,35.039v39.428
	C244.034,169.933,228.316,185.653,208.995,185.653z M169.566,105.154c-3.326,0-6.031,2.705-6.031,6.031v39.428
	c0,3.326,2.705,6.031,6.031,6.031h39.428c3.326,0,6.031-2.705,6.031-6.031v-39.428c0-3.326-2.705-6.031-6.031-6.031
	C208.994,105.154,169.566,105.154,169.566,105.154z"/>
<path style="fill:#CFF09E;" d="M342.434,171.149h-39.428c-11.341,0-20.535-9.194-20.535-20.535v-39.428
	c0-11.341,9.194-20.535,20.535-20.535h39.428c11.341,0,20.535,9.194,20.535,20.535v39.428
	C362.969,161.954,353.775,171.149,342.434,171.149z"/>
<path style="fill:#507C5C;" d="M342.434,185.653h-39.428c-19.321,0-35.039-15.718-35.039-35.039v-39.428
	c0-19.321,15.718-35.039,35.039-35.039h39.428c19.321,0,35.039,15.718,35.039,35.039v39.428
	C377.473,169.933,361.755,185.653,342.434,185.653z M303.005,105.154c-3.326,0-6.031,2.705-6.031,6.031v39.428
	c0,3.326,2.705,6.031,6.031,6.031h39.428c3.326,0,6.031-2.705,6.031-6.031v-39.428c0-3.326-2.705-6.031-6.031-6.031
	C342.433,105.154,303.005,105.154,303.005,105.154z"/>
<path style="fill:#CFF09E;" d="M208.995,303.137h-39.428c-11.341,0-20.535-9.194-20.535-20.535v-39.428
	c0-11.341,9.194-20.535,20.535-20.535h39.428c11.341,0,20.535,9.194,20.535,20.535v39.428
	C229.53,293.943,220.335,303.137,208.995,303.137z"/>
<path style="fill:#507C5C;" d="M208.995,317.642h-39.428c-19.321,0-35.039-15.718-35.039-35.039v-39.428
	c0-19.321,15.718-35.039,35.039-35.039h39.428c19.321,0,35.039,15.718,35.039,35.039v39.428
	C244.034,301.922,228.316,317.642,208.995,317.642z M169.566,237.143c-3.326,0-6.031,2.705-6.031,6.031v39.428
	c0,3.326,2.705,6.031,6.031,6.031h39.428c3.326,0,6.031-2.705,6.031-6.031v-39.428c0-3.326-2.705-6.031-6.031-6.031H169.566z"/>
<path style="fill:#CFF09E;" d="M342.434,303.137h-39.428c-11.341,0-20.535-9.194-20.535-20.535v-39.428
	c0-11.341,9.194-20.535,20.535-20.535h39.428c11.341,0,20.535,9.194,20.535,20.535v39.428
	C362.969,293.943,353.775,303.137,342.434,303.137z"/>
<g>
	<path style="fill:#507C5C;" d="M342.434,317.642h-39.428c-19.321,0-35.039-15.718-35.039-35.039v-39.428
		c0-19.321,15.718-35.039,35.039-35.039h39.428c19.321,0,35.039,15.718,35.039,35.039v39.428
		C377.473,301.922,361.755,317.642,342.434,317.642z M303.005,237.143c-3.326,0-6.031,2.705-6.031,6.031v39.428
		c0,3.326,2.705,6.031,6.031,6.031h39.428c3.326,0,6.031-2.705,6.031-6.031v-39.428c0-3.326-2.705-6.031-6.031-6.031H303.005z"/>
	<path style="fill:#507C5C;" d="M493.929,512H18.071c-8.011,0-14.504-6.494-14.504-14.504s6.494-14.504,14.504-14.504h475.858
		c8.009,0,14.504,6.494,14.504,14.504S501.938,512,493.929,512z"/>
</g>
<g>
</g>
<g>
</g>
<g>
</g>
<g>
</g>
<g>
</g>
<g>
</g>
<g>
</g>
<g>
</g>
<g>
</g>
<g>
</g>
<g>
</g>
<g>
</g>
<g>
</g>
<g>
</g>
<g>
</g>
</svg>
