<?xml version="1.0" encoding="iso-8859-1"?>
<!-- Generator: Adobe Illustrator 19.0.0, SVG Export Plug-In . SVG Version: 6.00 Build 0)  -->
<svg version="1.1" id="Layer_1" xmlns="http://www.w3.org/2000/svg" xmlns:xlink="http://www.w3.org/1999/xlink" x="0px" y="0px"
	 viewBox="0 0 512 512" style="enable-background:new 0 0 512 512;" xml:space="preserve">
<path style="fill:#CFF09E;" d="M410.255,498.013H101.744c-21.024,0-38.068-17.043-38.068-38.068v-144.94
	c0-21.024,17.043-38.068,38.068-38.068h308.512c21.024,0,38.068,17.043,38.068,38.068v144.94
	C448.323,480.97,431.279,498.013,410.255,498.013z"/>
<g>
	<path style="fill:#507C5C;" d="M410.255,512H101.744c-28.703,0-52.055-23.352-52.055-52.055v-144.94
		c0-28.703,23.352-52.056,52.055-52.056h308.511c28.703,0,52.055,23.352,52.055,52.056v144.94
		C462.31,488.647,438.958,512,410.255,512z M101.744,290.924c-13.278,0-24.08,10.804-24.08,24.082v144.94
		c0,13.278,10.802,24.08,24.08,24.08h308.511c13.278,0,24.08-10.802,24.08-24.08v-144.94c0-13.278-10.802-24.082-24.08-24.082
		H101.744z"/>
	<path style="fill:#507C5C;" d="M159.097,428.698c-1.424,0-2.87-0.22-4.298-0.68c-7.352-2.372-11.388-10.255-9.015-17.607
		l71.096-220.32c-32.306-17.613-52.551-51.203-52.551-88.811c0-28.063,11.216-54.161,31.58-73.482
		c20.353-19.314,47.047-29.113,75.149-27.656c52.891,2.779,94.982,46.485,95.822,99.501c0.597,37.691-20.08,72.535-52.55,90.418
		l48.512,150.332c2.372,7.352-1.663,15.235-9.015,17.607c-7.353,2.371-15.236-1.662-17.607-9.015l-52.291-162.044
		c-2.274-7.048,1.339-14.647,8.24-17.332c28.442-11.065,47.225-39.003,46.741-69.522c-0.608-38.367-31.056-69.996-69.319-72.006
		c-20.357-1.071-39.696,6.037-54.427,20.013c-14.741,13.987-22.861,32.877-22.861,53.189c0,30.457,18.35,57.278,46.751,68.328
		c6.901,2.684,10.514,10.283,8.24,17.332l-74.889,232.059C170.494,424.927,165.003,428.698,159.097,428.698z"/>
	<path style="fill:#507C5C;" d="M445.875,436.394H66.124c-7.724,0-13.987-6.263-13.987-13.987S58.4,408.42,66.124,408.42h379.751
		c7.724,0,13.987,6.263,13.987,13.987S453.599,436.394,445.875,436.394z"/>
</g>
<g>
</g>
<g>
</g>
<g>
</g>
<g>
</g>
<g>
</g>
<g>
</g>
<g>
</g>
<g>
</g>
<g>
</g>
<g>
</g>
<g>
</g>
<g>
</g>
<g>
</g>
<g>
</g>
<g>
</g>
</svg>
