<?xml version="1.0" encoding="iso-8859-1"?>
<!-- Generator: Adobe Illustrator 19.0.0, SVG Export Plug-In . SVG Version: 6.00 Build 0)  -->
<svg version="1.1" id="Layer_1" xmlns="http://www.w3.org/2000/svg" xmlns:xlink="http://www.w3.org/1999/xlink" x="0px" y="0px"
	 viewBox="0 0 512 512" style="enable-background:new 0 0 512 512;" xml:space="preserve">
<path style="fill:#507C5C;" d="M256.96,512h-1.92c-71.11,0-128.962-57.852-128.962-128.961v-213.99
	c0-22.635,18.415-41.049,41.05-41.049h177.744c22.635,0,41.05,18.414,41.05,41.049v213.992C385.921,454.148,328.069,512,256.96,512z
	 M167.127,156.132c-7.122,0-12.918,5.794-12.918,12.917v213.992c0,55.597,45.232,100.829,100.83,100.829h1.92
	c55.597,0,100.83-45.23,100.83-100.829V169.049c0-7.122-5.795-12.917-12.918-12.917L167.127,156.132L167.127,156.132z"/>
<path style="fill:#CFF09E;" d="M345.359,142.066V55.23c0-22.733-18.429-41.164-41.164-41.164h-48.196h-48.197
	c-22.733,0-41.164,18.429-41.164,41.164v86.836H345.359z"/>
<g>
	<path style="fill:#507C5C;" d="M345.359,156.132H166.64c-7.767,0-14.066-6.299-14.066-14.066V55.23
		C152.574,24.776,177.35,0,207.802,0h96.392c30.453,0,55.23,24.776,55.23,55.23v86.836
		C359.425,149.833,353.127,156.132,345.359,156.132z M180.706,128h150.589V55.23c0-14.942-12.156-27.098-27.098-27.098h-96.392
		c-14.942,0-27.098,12.156-27.098,27.098V128H180.706z"/>
	<path style="fill:#507C5C;" d="M225.523,108.073c-7.767,0-14.066-6.299-14.066-14.066V71.268c0-7.767,6.299-14.066,14.066-14.066
		s14.066,6.299,14.066,14.066v22.739C239.589,101.774,233.29,108.073,225.523,108.073z"/>
	<path style="fill:#507C5C;" d="M286.476,108.073c-7.767,0-14.066-6.299-14.066-14.066V71.268c0-7.767,6.299-14.066,14.066-14.066
		s14.066,6.299,14.066,14.066v22.739C300.542,101.774,294.243,108.073,286.476,108.073z"/>
</g>
<circle style="fill:#CFF09E;" cx="256" cy="379.78" r="54.857"/>
<path style="fill:#507C5C;" d="M255.999,448.703c-38.005,0-68.923-30.918-68.923-68.923s30.918-68.923,68.923-68.923
	s68.923,30.918,68.923,68.923S294.004,448.703,255.999,448.703z M255.999,338.989c-22.491,0-40.791,18.3-40.791,40.791
	c0,22.491,18.3,40.791,40.791,40.791s40.791-18.3,40.791-40.791C296.791,357.289,278.491,338.989,255.999,338.989z"/>
<g>
</g>
<g>
</g>
<g>
</g>
<g>
</g>
<g>
</g>
<g>
</g>
<g>
</g>
<g>
</g>
<g>
</g>
<g>
</g>
<g>
</g>
<g>
</g>
<g>
</g>
<g>
</g>
<g>
</g>
</svg>
