<?xml version="1.0" encoding="iso-8859-1"?>
<!-- Generator: Adobe Illustrator 19.0.0, SVG Export Plug-In . SVG Version: 6.00 Build 0)  -->
<svg version="1.1" id="Layer_1" xmlns="http://www.w3.org/2000/svg" xmlns:xlink="http://www.w3.org/1999/xlink" x="0px" y="0px"
	 viewBox="0 0 512 512" style="enable-background:new 0 0 512 512;" xml:space="preserve">
<path style="fill:#507C5C;" d="M409.74,512H85.417c-32.785,0-59.459-26.674-59.459-59.46V59.46C25.958,26.674,52.632,0,85.417,0
	H409.74c42.072,0,76.302,34.229,76.302,76.302v359.396C486.042,477.77,451.812,512,409.74,512z M85.417,28.499
	c-17.071,0-30.96,13.889-30.96,30.961v393.08c0,17.071,13.889,30.961,30.96,30.961H409.74c26.359,0,47.803-21.444,47.803-47.803
	V76.302c0-26.359-21.444-47.803-47.803-47.803H85.417z"/>
<path style="fill:#CFF09E;" d="M140.859,14.249H85.417c-24.968,0-45.209,20.241-45.209,45.209V452.54
	c0,24.968,20.241,45.209,45.209,45.209h55.441L140.859,14.249L140.859,14.249L140.859,14.249z"/>
<g>
	<path style="fill:#507C5C;" d="M140.859,512H85.417c-32.785,0-59.459-26.674-59.459-59.46V59.459C25.958,26.674,52.632,0,85.417,0
		h55.442c7.87,0,14.249,6.381,14.249,14.249V497.75C155.109,505.619,148.729,512,140.859,512z M85.417,28.499
		c-17.071,0-30.96,13.888-30.96,30.96V452.54c0,17.071,13.889,30.961,30.96,30.961h41.192V28.499H85.417z"/>
	<path style="fill:#507C5C;" d="M300.378,273.968c-42.473,0-77.028-34.555-77.028-77.028s34.555-77.028,77.028-77.028
		c6.773,0,13.5,0.882,19.991,2.625c7.601,2.039,12.109,9.852,10.07,17.454c-2.038,7.599-9.848,12.115-17.454,10.07
		c-4.084-1.096-8.326-1.65-12.608-1.65c-26.759,0-48.53,21.769-48.53,48.529s21.769,48.53,48.53,48.53
		c26.758,0,48.528-21.769,48.528-48.53c0-7.869,6.381-14.249,14.249-14.249s14.249,6.381,14.249,14.249
		C377.404,239.413,342.85,273.968,300.378,273.968z"/>
</g>
<path style="fill:#CFF09E;" d="M346.937,277.096c-13.576-8.364-29.531-13.199-46.56-13.199l0,0
	c-49.078,0-89.233,40.155-89.233,89.233l0,0c0,10.498,8.51,19.007,19.007,19.007h140.452c10.498,0,19.007-8.51,19.007-19.007l0,0
	C389.61,321.081,372.486,292.839,346.937,277.096"/>
<path style="fill:#507C5C;" d="M370.602,386.386h-140.45c-18.338,0-33.257-14.919-33.257-33.257
	c0-57.061,46.422-103.483,103.483-103.483c19.086,0,37.77,5.297,54.035,15.318c30.961,19.077,49.446,52.036,49.446,88.164
	C403.859,371.467,388.94,386.386,370.602,386.386z M300.378,278.146c-41.346,0-74.984,33.637-74.984,74.984
	c0,2.623,2.135,4.758,4.758,4.758h140.45c2.623,0,4.758-2.135,4.758-4.758c0-26.163-13.42-50.053-35.896-63.902
	C327.694,281.979,314.18,278.146,300.378,278.146z"/>
<g>
</g>
<g>
</g>
<g>
</g>
<g>
</g>
<g>
</g>
<g>
</g>
<g>
</g>
<g>
</g>
<g>
</g>
<g>
</g>
<g>
</g>
<g>
</g>
<g>
</g>
<g>
</g>
<g>
</g>
</svg>
