<?xml version="1.0" encoding="iso-8859-1"?>
<!-- Generator: Adobe Illustrator 19.0.0, SVG Export Plug-In . SVG Version: 6.00 Build 0)  -->
<svg version="1.1" id="Layer_1" xmlns="http://www.w3.org/2000/svg" xmlns:xlink="http://www.w3.org/1999/xlink" x="0px" y="0px"
	 viewBox="0 0 512 512" style="enable-background:new 0 0 512 512;" xml:space="preserve">
<g>
	<path style="fill:#507C5C;" d="M341.993,218.205H170.005c-7.405,0-13.408-6.004-13.408-13.408V73.319
		c0-7.404,6.003-13.408,13.408-13.408h171.988c7.404,0,13.408,6.004,13.408,13.408v131.479
		C355.401,212.202,349.397,218.205,341.993,218.205z M183.413,191.388h145.171V86.727H183.413V191.388L183.413,191.388z"/>
	<path style="fill:#507C5C;" d="M352.316,284.443H159.682c-25.655,0-46.527-20.871-46.527-46.527s20.871-46.527,46.527-46.527
		h192.634c25.655,0,46.527,20.871,46.527,46.527S377.971,284.443,352.316,284.443z M159.682,218.205
		c-10.869,0-19.71,8.843-19.71,19.71s8.841,19.71,19.71,19.71h192.634c10.867,0,19.71-8.843,19.71-19.71
		c0-10.867-8.843-19.71-19.71-19.71L159.682,218.205L159.682,218.205z"/>
</g>
<path style="fill:#CFF09E;" d="M300.513,271.035l-38.448,222.739c-1.495,6.421-10.637,6.421-12.132,0l-38.448-222.739
	L300.513,271.035L300.513,271.035z"/>
<path style="fill:#507C5C;" d="M255.999,512c-9.179,0-17.043-6.244-19.126-15.185c-0.058-0.252-0.11-0.504-0.154-0.758
	l-38.448-222.741c-0.672-3.898,0.41-7.893,2.958-10.918c2.548-3.026,6.301-4.772,10.256-4.772h89.028
	c3.954,0,7.708,1.746,10.255,4.772c2.548,3.025,3.631,7.019,2.958,10.918l-38.448,222.741c-0.044,0.253-0.095,0.508-0.154,0.759
	C273.042,505.756,265.177,512,255.999,512z M227.406,284.443l28.593,165.648l28.593-165.648H227.406L227.406,284.443z"/>
<path style="fill:#CFF09E;" d="M368.008,90.439H143.99c-21.184,0-38.515-17.332-38.515-38.515l0,0
	c0.001-21.184,17.333-38.515,38.515-38.515h224.019c21.182,0,38.515,17.332,38.515,38.515l0,0
	C406.523,73.107,389.191,90.439,368.008,90.439z"/>
<path style="fill:#507C5C;" d="M368.008,103.846H143.99c-28.631,0-51.922-23.293-51.922-51.924S115.36,0,143.99,0h224.019
	c28.631,0,51.924,23.293,51.924,51.924S396.637,103.846,368.008,103.846z M143.99,26.817c-13.844,0-25.106,11.262-25.106,25.107
	S130.145,77.03,143.99,77.03h224.019c13.844,0,25.107-11.262,25.107-25.107s-11.263-25.107-25.107-25.107H143.99V26.817z"/>
<g>
</g>
<g>
</g>
<g>
</g>
<g>
</g>
<g>
</g>
<g>
</g>
<g>
</g>
<g>
</g>
<g>
</g>
<g>
</g>
<g>
</g>
<g>
</g>
<g>
</g>
<g>
</g>
<g>
</g>
</svg>
