<?xml version="1.0" encoding="iso-8859-1"?>
<!-- Generator: Adobe Illustrator 19.0.0, SVG Export Plug-In . SVG Version: 6.00 Build 0)  -->
<svg version="1.1" id="Layer_1" xmlns="http://www.w3.org/2000/svg" xmlns:xlink="http://www.w3.org/1999/xlink" x="0px" y="0px"
	 viewBox="0 0 512.001 512.001" style="enable-background:new 0 0 512.001 512.001;" xml:space="preserve">
<path style="fill:#507C5C;" d="M473.813,501.842h-40.629c-15.607,0-28.303-12.696-28.303-28.305v-50.51c0-5.099-4.15-9.25-9.25-9.25
	H116.369c-5.1,0-9.25,4.15-9.25,9.25v50.51c0,15.607-12.696,28.305-28.303,28.305H38.187C17.131,501.842,0,484.711,0,463.655V48.347
	C0,27.29,17.131,10.159,38.187,10.159h435.627c21.056,0,38.187,17.131,38.187,38.188v415.308
	C512,484.711,494.869,501.842,473.813,501.842z M433.818,472.905h39.995c5.1,0,9.25-4.15,9.25-9.251V48.347
	c0-5.1-4.15-9.251-9.25-9.251H38.187c-5.1,0-9.25,4.15-9.25,9.251v415.308c0,5.1,4.15,9.251,9.25,9.251h39.995v-49.877
	c0-21.056,17.131-38.187,38.187-38.187h279.264c21.056,0,38.187,17.131,38.187,38.187v49.876L433.818,472.905L433.818,472.905z"/>
<path style="fill:#CFF09E;" d="M414.429,312.006c0,8.956-7.26,16.216-16.216,16.216H113.788c-8.956,0-16.216-7.26-16.216-16.216
	V112.944c0-8.956,7.26-16.216,16.216-16.216h284.425c8.956,0,16.216,7.26,16.216,16.216L414.429,312.006L414.429,312.006z"/>
<g>
	<path style="fill:#507C5C;" d="M398.212,342.691H113.788c-16.919,0-30.685-13.767-30.685-30.686V112.943
		c0-16.919,13.765-30.685,30.685-30.685h284.425c16.919,0,30.685,13.765,30.685,30.685v199.062
		C428.899,328.924,415.132,342.691,398.212,342.691z M113.788,111.195c-0.965,0-1.748,0.784-1.748,1.748v199.062
		c0,0.965,0.784,1.749,1.748,1.749h284.425c0.965,0,1.748-0.784,1.748-1.749V112.943c0-0.964-0.784-1.748-1.748-1.748H113.788z"/>
	<path style="fill:#507C5C;" d="M96.848,130.726H24.505c-7.991,0-14.469-6.479-14.469-14.469s6.478-14.469,14.469-14.469h72.343
		c7.991,0,14.469,6.479,14.469,14.469S104.837,130.726,96.848,130.726z"/>
	<path style="fill:#507C5C;" d="M96.848,227.906H24.505c-7.991,0-14.469-6.479-14.469-14.469s6.478-14.469,14.469-14.469h72.343
		c7.991,0,14.469,6.479,14.469,14.469S104.837,227.906,96.848,227.906z"/>
	<path style="fill:#507C5C;" d="M48.739,325.087H24.504c-7.991,0-14.469-6.479-14.469-14.469s6.478-14.469,14.469-14.469h24.235
		c7.991,0,14.469,6.479,14.469,14.469C63.207,318.608,56.73,325.087,48.739,325.087z"/>
	<path style="fill:#507C5C;" d="M256,272.879c-34.305,0-62.215-27.91-62.215-62.215S221.695,148.45,256,148.45
		s62.215,27.91,62.215,62.215S290.305,272.879,256,272.879z M256,177.387c-18.349,0-33.278,14.927-33.278,33.278
		s14.929,33.278,33.278,33.278s33.278-14.927,33.278-33.278S274.349,177.387,256,177.387z"/>
	<path style="fill:#507C5C;" d="M256,172.083c-7.991,0-14.469-6.479-14.469-14.469v-15.432c0-7.99,6.478-14.469,14.469-14.469
		s14.469,6.479,14.469,14.469v15.432C270.469,165.604,263.991,172.083,256,172.083z"/>
	<path style="fill:#507C5C;" d="M256,297.235c-7.991,0-14.469-6.479-14.469-14.469v-15.432c0-7.99,6.478-14.469,14.469-14.469
		s14.469,6.479,14.469,14.469v15.432C270.469,290.756,263.991,297.235,256,297.235z"/>
	<path style="fill:#507C5C;" d="M217.208,188.151c-3.702,0-7.406-1.414-10.231-4.238l-10.912-10.912
		c-5.65-5.65-5.65-14.811,0-20.463c5.65-5.648,14.811-5.648,20.463,0l10.912,10.912c5.65,5.65,5.65,14.811,0,20.463
		C224.613,186.738,220.911,188.151,217.208,188.151z"/>
	<path style="fill:#507C5C;" d="M305.705,276.648c-3.702,0-7.406-1.414-10.231-4.238l-10.912-10.912
		c-5.65-5.65-5.65-14.811,0-20.463c5.65-5.649,14.811-5.649,20.463,0l10.912,10.912c5.65,5.65,5.65,14.811,0,20.463
		C313.11,275.234,309.408,276.648,305.705,276.648z"/>
	<path style="fill:#507C5C;" d="M294.793,188.151c-3.703,0-7.406-1.414-10.231-4.238c-5.65-5.65-5.65-14.811,0-20.463l10.912-10.912
		c5.65-5.648,14.811-5.648,20.463,0c5.65,5.65,5.65,14.811,0,20.463l-10.912,10.912
		C302.198,186.738,298.495,188.151,294.793,188.151z"/>
	<path style="fill:#507C5C;" d="M206.296,276.648c-3.702,0-7.406-1.414-10.231-4.238c-5.65-5.65-5.65-14.811,0-20.463l10.912-10.912
		c5.65-5.649,14.811-5.649,20.463,0c5.65,5.65,5.65,14.811,0,20.463l-10.912,10.912
		C213.701,275.234,209.999,276.648,206.296,276.648z"/>
	<path style="fill:#507C5C;" d="M326.292,226.943H310.86c-7.991,0-14.469-6.479-14.469-14.469s6.478-14.469,14.469-14.469h15.432
		c7.991,0,14.469,6.479,14.469,14.469S334.283,226.943,326.292,226.943z"/>
	<path style="fill:#507C5C;" d="M201.14,226.943h-15.432c-7.991,0-14.469-6.479-14.469-14.469s6.478-14.469,14.469-14.469h15.432
		c7.991,0,14.469,6.479,14.469,14.469S209.131,226.943,201.14,226.943z"/>
</g>
<g>
</g>
<g>
</g>
<g>
</g>
<g>
</g>
<g>
</g>
<g>
</g>
<g>
</g>
<g>
</g>
<g>
</g>
<g>
</g>
<g>
</g>
<g>
</g>
<g>
</g>
<g>
</g>
<g>
</g>
</svg>
