<?xml version="1.0" encoding="iso-8859-1"?>
<!-- Generator: Adobe Illustrator 19.0.0, SVG Export Plug-In . SVG Version: 6.00 Build 0)  -->
<svg version="1.1" id="Layer_1" xmlns="http://www.w3.org/2000/svg" xmlns:xlink="http://www.w3.org/1999/xlink" x="0px" y="0px"
	 viewBox="0 0 512 512" style="enable-background:new 0 0 512 512;" xml:space="preserve">
<path style="fill:#CFF09E;" d="M171.778,335.559c-42.949,0-77.767,36.261-77.767,80.991s34.818,80.991,77.767,80.991
	s77.767-36.261,77.767-80.991S214.728,335.559,171.778,335.559z M171.778,448.158c-16.762,0-30.349-14.152-30.349-31.608
	s13.588-31.608,30.349-31.608c16.762,0,30.349,14.152,30.349,31.608S188.54,448.158,171.778,448.158z"/>
<path style="fill:#507C5C;" d="M171.778,512c-50.852,0-92.225-42.819-92.225-95.451s41.372-95.45,92.225-95.45
	s92.225,42.818,92.225,95.45S222.632,512,171.778,512z M171.778,350.018c-34.909,0-63.308,29.847-63.308,66.533
	c0,36.687,28.4,66.534,63.308,66.534s63.308-29.847,63.308-66.534C235.087,379.865,206.687,350.018,171.778,350.018z
	 M171.778,462.617c-24.707,0-44.807-20.666-44.807-46.066c0-25.399,20.1-46.065,44.807-46.065s44.807,20.666,44.807,46.065
	C216.587,441.951,196.485,462.617,171.778,462.617z M171.778,399.401c-8.762,0-15.89,7.692-15.89,17.148
	c0,9.456,7.128,17.149,15.89,17.149s15.89-7.693,15.89-17.149C187.668,407.093,180.54,399.401,171.778,399.401z"/>
<path style="fill:#CFF09E;" d="M340.219,335.559c-42.949,0-77.767,36.261-77.767,80.991s34.818,80.991,77.767,80.991
	s77.767-36.261,77.767-80.991S383.169,335.559,340.219,335.559z M340.219,448.158c-16.762,0-30.349-14.152-30.349-31.608
	s13.588-31.608,30.349-31.608c16.762,0,30.349,14.152,30.349,31.608S356.98,448.158,340.219,448.158z"/>
<g>
	<path style="fill:#507C5C;" d="M340.218,512c-50.852,0-92.224-42.819-92.224-95.451s41.372-95.45,92.224-95.45
		c50.854,0,92.225,42.818,92.225,95.45S391.072,512,340.218,512z M340.218,350.018c-34.909,0-63.307,29.847-63.307,66.533
		c0,36.687,28.4,66.534,63.307,66.534s63.308-29.847,63.308-66.534C403.526,379.865,375.127,350.018,340.218,350.018z
		 M340.218,462.617c-24.707,0-44.807-20.666-44.807-46.066c0-25.399,20.1-46.065,44.807-46.065s44.807,20.666,44.807,46.065
		C385.026,441.951,364.925,462.617,340.218,462.617z M340.218,399.401c-8.762,0-15.89,7.692-15.89,17.148
		c0,9.456,7.13,17.149,15.89,17.149s15.89-7.693,15.89-17.149C356.108,407.093,348.98,399.401,340.218,399.401z"/>
	<path style="fill:#507C5C;" d="M256.639,389.988L256.639,389.988c-0.213,0-0.427-0.001-0.639-0.006
		c-8.617,0.184-16.963-2.991-23.401-8.841c-0.596-0.541-1.145-1.131-1.643-1.764L76.934,183.471
		c-0.862-1.096-1.862-2.248-2.922-3.466l-1.336-1.544c-6.473-7.555-9.476-17.592-8.249-27.561L77.805,30.843
		c0.007-0.071,0.016-0.142,0.026-0.211C80.072,12.881,94.431,0,111.972,0c10.3,0,19.966,4.751,26.517,13.034
		c0.497,0.629,0.941,1.297,1.327,2L255.998,226.15L372.18,15.034c0.386-0.701,0.83-1.371,1.327-1.998
		C380.06,4.751,389.725,0,400.026,0c17.541,0,31.9,12.881,34.143,30.631c0.01,0.071,0.017,0.142,0.026,0.211l13.379,120.061
		c1.226,9.968-1.777,20.003-8.25,27.557l-1.32,1.527c-1.064,1.225-2.07,2.38-2.938,3.483L281.043,379.377
		c-0.497,0.633-1.048,1.223-1.644,1.765C273.12,386.847,265.036,389.988,256.639,389.988z M256.05,361.063
		c0.147,0,0.296,0.003,0.444,0.007l0.145,0.001c0.691,0,1.658-0.153,2.652-0.814l153.041-194.66c1.309-1.664,2.6-3.149,3.847-4.585
		l1.191-1.378c1.175-1.371,1.738-3.328,1.498-5.225c-0.01-0.071-0.017-0.142-0.026-0.211L405.468,34.174
		c-0.561-4.147-3.68-5.257-5.442-5.257c-1.226,0-2.295,0.457-3.244,1.392l-128.115,232.8c-2.542,4.618-7.394,7.488-12.667,7.488
		c-5.272,0-10.125-2.869-12.667-7.488L115.218,30.31c-0.951-0.935-2.02-1.392-3.246-1.392c-1.764,0-4.881,1.11-5.444,5.257
		L93.155,154.198c-0.007,0.071-0.016,0.143-0.026,0.213c-0.24,1.898,0.321,3.852,1.502,5.23l1.207,1.395
		c1.242,1.429,2.526,2.906,3.827,4.562l153.043,194.66c0.993,0.659,1.961,0.814,2.65,0.814l0.145-0.001
		c0.165-0.004,0.33-0.009,0.494-0.007C256.015,361.063,256.033,361.063,256.05,361.063z"/>
	<path style="fill:#507C5C;" d="M255.998,305.16c-7.985,0-14.459-6.475-14.459-14.459v-34.563c0-7.984,6.473-14.459,14.459-14.459
		c7.984,0,14.459,6.475,14.459,14.459v34.563C270.457,298.685,263.984,305.16,255.998,305.16z"/>
</g>
<g>
</g>
<g>
</g>
<g>
</g>
<g>
</g>
<g>
</g>
<g>
</g>
<g>
</g>
<g>
</g>
<g>
</g>
<g>
</g>
<g>
</g>
<g>
</g>
<g>
</g>
<g>
</g>
<g>
</g>
</svg>
