<?xml version="1.0" encoding="iso-8859-1"?>
<!-- Generator: Adobe Illustrator 19.0.0, SVG Export Plug-In . SVG Version: 6.00 Build 0)  -->
<svg version="1.1" id="Layer_1" xmlns="http://www.w3.org/2000/svg" xmlns:xlink="http://www.w3.org/1999/xlink" x="0px" y="0px"
	 viewBox="0 0 512 512" style="enable-background:new 0 0 512 512;" xml:space="preserve">
<g>
	<path style="fill:#507C5C;" d="M383.849,512H128.151c-31.075,0-56.356-25.281-56.356-56.356V56.356
		C71.795,25.281,97.076,0,128.151,0H383.85c31.075,0,56.356,25.281,56.356,56.356v399.289C440.204,486.719,414.924,512,383.849,512z
		 M128.151,27.387c-15.973,0-28.969,12.995-28.969,28.969v399.289c0,15.973,12.995,28.969,28.969,28.969H383.85
		c15.973,0,28.969-12.995,28.969-28.969V56.356c0-15.973-12.995-28.969-28.969-28.969H128.151z"/>
	<path style="fill:#507C5C;" d="M337.397,457.226H174.603c-26.486,0-48.034-21.548-48.034-48.034V102.808
		c0-26.486,21.548-48.034,48.034-48.034h162.794c26.486,0,48.034,21.548,48.034,48.034c0,7.562-6.131,13.694-13.694,13.694
		s-13.693-6.132-13.693-13.694c0-11.385-9.262-20.647-20.647-20.647H174.603c-11.385,0-20.647,9.262-20.647,20.647v306.384
		c0,11.385,9.262,20.647,20.647,20.647h162.794c11.385,0,20.647-9.262,20.647-20.647V168.427c0-7.562,6.131-13.693,13.693-13.693
		s13.694,6.132,13.694,13.693v240.765C385.431,435.678,363.883,457.226,337.397,457.226z"/>
</g>
<path style="fill:#CFF09E;" d="M85.489,405.334v50.31c0,23.561,19.1,42.661,42.662,42.661h255.7c23.561,0,42.662-19.1,42.662-42.661
	v-50.31H85.489z"/>
<g>
	<path style="fill:#507C5C;" d="M383.849,511.999H128.151c-31.075,0-56.356-25.281-56.356-56.354v-50.309
		c0-7.562,6.131-13.694,13.693-13.694h341.023c7.563,0,13.693,6.132,13.693,13.694v50.309
		C440.204,486.719,414.924,511.999,383.849,511.999z M99.182,419.029v36.615c0,15.972,12.995,28.967,28.969,28.967H383.85
		c15.973,0,28.969-12.995,28.969-28.967v-36.615H99.182z"/>
	<path style="fill:#507C5C;" d="M280.648,464.144h-49.297c-7.563,0-13.693-6.132-13.693-13.694s6.131-13.694,13.693-13.694h49.297
		c7.563,0,13.694,6.132,13.694,13.694S288.211,464.144,280.648,464.144z"/>
</g>
<g>
</g>
<g>
</g>
<g>
</g>
<g>
</g>
<g>
</g>
<g>
</g>
<g>
</g>
<g>
</g>
<g>
</g>
<g>
</g>
<g>
</g>
<g>
</g>
<g>
</g>
<g>
</g>
<g>
</g>
</svg>
