<?xml version="1.0" encoding="iso-8859-1"?>
<!-- Generator: Adobe Illustrator 19.0.0, SVG Export Plug-In . SVG Version: 6.00 Build 0)  -->
<svg version="1.1" id="Layer_1" xmlns="http://www.w3.org/2000/svg" xmlns:xlink="http://www.w3.org/1999/xlink" x="0px" y="0px"
	 viewBox="0 0 512.002 512.002" style="enable-background:new 0 0 512.002 512.002;" xml:space="preserve">
<path style="fill:#CFF09E;" d="M13.795,330.941v24.439c0,26.762,21.695,48.458,48.458,48.458h387.494
	c26.762,0,48.458-21.695,48.458-48.458v-24.439H13.795L13.795,330.941z"/>
<g>
	<path style="fill:#507C5C;" d="M301.417,484.092h-90.835c-7.619,0-13.795-6.177-13.795-13.795v-71.153h27.59v57.358h63.245v-57.358
		h27.59v71.153C315.212,477.916,309.036,484.092,301.417,484.092z"/>
	<path style="fill:#507C5C;" d="M449.747,417.633H62.253C27.927,417.633,0,389.706,0,355.379V90.164
		C0,55.836,27.927,27.91,62.253,27.91h387.496c34.326,0,62.253,27.927,62.253,62.254v265.215
		C512,389.706,484.073,417.633,449.747,417.633z M62.253,55.499c-19.113,0-34.663,15.55-34.663,34.664v265.215
		c0,19.113,15.55,34.664,34.663,34.664h387.496c19.113,0,34.663-15.55,34.663-34.664V90.164c0-19.113-15.548-34.664-34.663-34.664
		C449.748,55.499,62.253,55.499,62.253,55.499z"/>
	<path style="fill:#507C5C;" d="M361.976,484.092H150.025c-7.619,0-13.795-6.177-13.795-13.795s6.176-13.795,13.795-13.795h211.95
		c7.618,0,13.795,6.177,13.795,13.795S369.594,484.092,361.976,484.092z"/>
	<path style="fill:#507C5C;" d="M497.515,345.195h-71.29c-7.618,0-13.795-6.177-13.795-13.795s6.177-13.795,13.795-13.795h71.291
		c7.618,0,13.795,6.177,13.795,13.795C511.312,339.018,505.134,345.195,497.515,345.195z"/>
	<path style="fill:#507C5C;" d="M358.297,345.195H14.485c-7.619,0-13.795-6.177-13.795-13.795s6.176-13.795,13.795-13.795h343.812
		c7.618,0,13.795,6.177,13.795,13.795S365.915,345.195,358.297,345.195z"/>
</g>
<path style="fill:#CFF09E;" d="M125.586,249.983v-53.167c0-15.148,12.28-27.429,27.429-27.429l0,0
	c15.148,0,27.429,12.28,27.429,27.429v53.167c0,15.148-12.28,27.429-27.429,27.429l0,0
	C137.866,277.413,125.586,265.133,125.586,249.983z"/>
<path style="fill:#507C5C;" d="M153.015,291.207c-22.731,0-41.224-18.492-41.224-41.224v-53.169
	c0-22.731,18.494-41.224,41.224-41.224s41.224,18.492,41.224,41.224v53.169C194.24,272.715,175.746,291.207,153.015,291.207z
	 M153.015,183.182c-7.518,0-13.634,6.117-13.634,13.634v53.169c0,7.517,6.117,13.634,13.634,13.634s13.634-6.117,13.634-13.634
	v-53.17C166.65,189.298,160.533,183.182,153.015,183.182z"/>
<path style="fill:#CFF09E;" d="M228.571,249.983v-93.067c0-15.148,12.28-27.429,27.429-27.429l0,0
	c15.148,0,27.429,12.28,27.429,27.429v93.067c0,15.148-12.28,27.429-27.429,27.429l0,0
	C240.852,277.413,228.571,265.133,228.571,249.983z"/>
<path style="fill:#507C5C;" d="M256,291.207c-22.731,0-41.224-18.492-41.224-41.224v-93.068c0-22.731,18.494-41.224,41.224-41.224
	s41.224,18.492,41.224,41.224v93.068C297.224,272.715,278.731,291.207,256,291.207z M256,143.283
	c-7.518,0-13.634,6.117-13.634,13.634v93.068c0,7.517,6.117,13.634,13.634,13.634s13.634-6.117,13.634-13.634v-93.068
	C269.634,149.398,263.517,143.283,256,143.283z"/>
<path style="fill:#CFF09E;" d="M331.557,249.983V117.017c0-15.148,12.28-27.429,27.429-27.429l0,0
	c15.148,0,27.429,12.28,27.429,27.429v132.966c0,15.148-12.28,27.429-27.429,27.429l0,0
	C343.837,277.413,331.557,265.133,331.557,249.983z"/>
<path style="fill:#507C5C;" d="M358.985,291.207c-22.731,0-41.224-18.492-41.224-41.224V117.017
	c0-22.731,18.492-41.224,41.224-41.224c22.731,0,41.225,18.492,41.225,41.224v132.968
	C400.209,272.715,381.716,291.207,358.985,291.207z M358.985,103.383c-7.517,0-13.634,6.117-13.634,13.634v132.968
	c0,7.517,6.117,13.634,13.634,13.634c7.518,0,13.635-6.117,13.635-13.634V117.017C372.619,109.499,366.504,103.383,358.985,103.383z
	"/>
<g>
</g>
<g>
</g>
<g>
</g>
<g>
</g>
<g>
</g>
<g>
</g>
<g>
</g>
<g>
</g>
<g>
</g>
<g>
</g>
<g>
</g>
<g>
</g>
<g>
</g>
<g>
</g>
<g>
</g>
</svg>
