<?xml version="1.0" encoding="iso-8859-1"?>
<!-- Generator: Adobe Illustrator 19.0.0, SVG Export Plug-In . SVG Version: 6.00 Build 0)  -->
<svg version="1.1" id="Layer_1" xmlns="http://www.w3.org/2000/svg" xmlns:xlink="http://www.w3.org/1999/xlink" x="0px" y="0px"
	 viewBox="0 0 512 512" style="enable-background:new 0 0 512 512;" xml:space="preserve">
<polyline style="fill:#CFF09E;" points="380.736,128.98 417.632,92.084 457.215,131.667 420.319,168.563 "/>
<g>
	<path style="fill:#507C5C;" d="M430.535,178.778l-20.433-20.433l26.68-26.679l-19.15-19.152l-26.68,26.68l-20.433-20.433
		l36.896-36.896c2.709-2.709,6.384-4.232,10.216-4.232s7.507,1.523,10.216,4.232l39.582,39.583c5.642,5.642,5.642,14.79,0,20.432
		L430.535,178.778z"/>
	<path style="fill:#507C5C;" d="M475.05,163.95c-3.697,0-7.396-1.41-10.216-4.232l-75.255-75.255c-5.642-5.642-5.642-14.79,0-20.433
		c5.642-5.642,14.79-5.642,20.433,0l75.255,75.255c5.642,5.642,5.642,14.79,0,20.433C482.446,162.54,478.747,163.95,475.05,163.95z"
		/>
</g>
<polyline style="fill:#CFF09E;" points="209.419,87.166 209.419,14.447 287.436,14.447 287.436,87.166 "/>
<g>
	<path style="fill:#507C5C;" d="M301.883,87.166h-28.895V28.895h-49.121v58.271h-28.895V14.447C194.972,6.468,201.44,0,209.419,0
		h78.016c7.979,0,14.447,6.468,14.447,14.447v72.719H301.883z"/>
	<path style="fill:#507C5C;" d="M248.428,512C123.85,512,22.501,410.65,22.501,286.074S123.852,60.146,248.428,60.146
		s225.926,101.35,225.926,225.926S373.005,512,248.428,512z M248.428,89.041c-108.643,0-197.031,88.388-197.031,197.031
		s88.388,197.031,197.031,197.031s197.031-88.388,197.031-197.031S357.071,89.041,248.428,89.041z"/>
	<path style="fill:#507C5C;" d="M248.428,442.347c-86.17,0-156.274-70.105-156.274-156.275c0-34.278,10.935-66.84,31.623-94.164
		c4.817-6.361,13.88-7.614,20.239-2.798c6.361,4.815,7.615,13.878,2.798,20.239c-16.856,22.264-25.764,48.793-25.764,76.722
		c0,70.238,57.143,127.38,127.379,127.38c70.238,0,127.38-57.143,127.38-127.38s-57.143-127.379-127.38-127.379
		c-18.061,0-35.518,3.717-51.885,11.049c-7.28,3.261-15.83,0.004-19.091-7.279c-3.262-7.282-0.003-15.83,7.279-19.091
		c20.107-9.008,41.538-13.575,63.697-13.575c86.17,0,156.275,70.105,156.275,156.274
		C404.703,372.243,334.598,442.347,248.428,442.347z"/>
	<path style="fill:#507C5C;" d="M322.591,28.895H174.266c-7.979,0-14.447-6.468-14.447-14.447S166.287,0,174.266,0h148.325
		c7.979,0,14.447,6.468,14.447,14.447S330.57,28.895,322.591,28.895z"/>
	<path style="fill:#507C5C;" d="M242.721,358.978c-24.042-0.802-43.675-13.222-43.675-26.044c0-6.812,6.01-16.828,13.624-16.828
		c8.414,0,15.226,11.821,30.052,14.424v-32.456c-18.432-7.013-40.069-15.626-40.069-41.271c0-25.443,18.832-37.664,40.069-40.67
		v-5.61c0-2.804,3.206-5.409,7.614-5.409c3.807,0,7.614,2.605,7.614,5.409v5.009c12.422,0.4,35.861,3.606,35.861,17.429
		c0,5.409-3.606,16.428-12.422,16.428c-6.611,0-10.418-6.412-23.441-7.413v29.25c18.231,6.812,39.467,16.227,39.467,43.274
		c0,24.842-16.028,39.869-39.467,43.675v5.809c0,2.804-3.807,5.409-7.614,5.409c-4.408,0-7.614-2.605-7.614-5.409L242.721,358.978
		L242.721,358.978z M244.723,266.42v-23.841c-9.015,1.803-12.822,6.412-12.822,11.22
		C231.901,259.608,237.111,263.214,244.723,266.42z M255.943,303.483v26.846c6.812-1.602,12.221-5.409,12.221-12.621
		C268.164,311.097,263.155,306.888,255.943,303.483z"/>
</g>
<g>
</g>
<g>
</g>
<g>
</g>
<g>
</g>
<g>
</g>
<g>
</g>
<g>
</g>
<g>
</g>
<g>
</g>
<g>
</g>
<g>
</g>
<g>
</g>
<g>
</g>
<g>
</g>
<g>
</g>
</svg>
