<?xml version="1.0" encoding="iso-8859-1"?>
<!-- Generator: Adobe Illustrator 19.0.0, SVG Export Plug-In . SVG Version: 6.00 Build 0)  -->
<svg version="1.1" id="Layer_1" xmlns="http://www.w3.org/2000/svg" xmlns:xlink="http://www.w3.org/1999/xlink" x="0px" y="0px"
	 viewBox="0 0 511.999 511.999" style="enable-background:new 0 0 511.999 511.999;" xml:space="preserve">
<g>
	<path style="fill:#507C5C;" d="M455.644,474.44H56.354C25.281,474.44,0,449.161,0,418.086V93.914
		c0-31.075,25.281-56.356,56.354-56.356h399.289c31.075,0,56.356,25.281,56.356,56.354v324.172
		C512,449.161,486.719,474.44,455.644,474.44z M56.354,64.946c-15.972,0-28.967,12.996-28.967,28.969v324.172
		c0,15.972,12.995,28.967,28.967,28.967h399.289c15.973,0,28.969-12.995,28.969-28.967V93.914c0-15.972-12.995-28.967-28.969-28.967
		H56.354V64.946z"/>
	<path style="fill:#507C5C;" d="M409.192,405.973H116.503c-26.487,0-48.035-21.548-48.035-48.034V154.064
		c0-26.486,21.548-48.034,48.034-48.034c7.563,0,13.693,6.132,13.693,13.694s-6.131,13.693-13.693,13.693
		c-11.385,0-20.647,9.262-20.647,20.647V357.94c0,11.385,9.262,20.647,20.647,20.647h292.689c4.608,0,14.199,0,18.672-2.009
		c1.148-0.515,1.975-0.887,1.975-4.943V140.368c0-4.056-0.827-4.428-1.975-4.943c-4.474-2.009-14.065-2.009-18.672-2.009H168.426
		c-7.563,0-13.693-6.132-13.693-13.694s6.131-13.693,13.693-13.693h240.766c9.709,0,20.825,0.341,29.893,4.413
		c11.698,5.254,18.141,15.883,18.141,29.926v231.267c0,14.044-6.443,24.673-18.141,29.926
		C430.017,405.632,418.901,405.973,409.192,405.973z"/>
</g>
<path style="fill:#CFF09E;" d="M405.334,460.747h50.31c23.561,0,42.661-19.1,42.661-42.662V93.914
	c0-23.561-19.1-42.662-42.661-42.662h-50.31V460.747z"/>
<g>
	<path style="fill:#507C5C;" d="M455.644,474.44h-50.309c-7.562,0-13.694-6.132-13.694-13.694V51.252
		c0-7.562,6.132-13.694,13.694-13.694h50.309c31.073,0,56.354,25.281,56.354,56.354v324.172
		C511.999,449.161,486.718,474.44,455.644,474.44z M419.028,447.053h36.615c15.972,0,28.967-12.995,28.967-28.967V93.914
		c0-15.972-12.995-28.967-28.967-28.967h-36.615V447.053z"/>
	<path style="fill:#507C5C;" d="M450.45,287.495c-7.562,0-13.694-6.132-13.694-13.693V238.2c0-7.562,6.132-13.693,13.694-13.693
		s13.694,6.132,13.694,13.693v35.603C464.144,281.363,458.012,287.495,450.45,287.495z"/>
</g>
<g>
</g>
<g>
</g>
<g>
</g>
<g>
</g>
<g>
</g>
<g>
</g>
<g>
</g>
<g>
</g>
<g>
</g>
<g>
</g>
<g>
</g>
<g>
</g>
<g>
</g>
<g>
</g>
<g>
</g>
</svg>
