<?xml version="1.0" encoding="iso-8859-1"?>
<!-- Generator: Adobe Illustrator 19.0.0, SVG Export Plug-In . SVG Version: 6.00 Build 0)  -->
<svg version="1.1" id="Layer_1" xmlns="http://www.w3.org/2000/svg" xmlns:xlink="http://www.w3.org/1999/xlink" x="0px" y="0px"
	 viewBox="0 0 512 512" style="enable-background:new 0 0 512 512;" xml:space="preserve">
<path style="fill:#507C5C;" d="M459.122,464.512H40.104C17.991,464.512,0,446.521,0,424.409V186.302
	c0-22.113,17.991-40.104,40.104-40.104s40.104,17.991,40.104,40.104v54.943l23.173,8.808c7.83,2.977,11.764,11.735,8.787,19.564
	c-2.977,7.828-11.738,11.764-19.565,8.788l-32.95-12.525c-5.886-2.238-9.777-7.879-9.777-14.177v-65.401
	c0-5.39-4.384-9.773-9.773-9.773s-9.773,4.384-9.773,9.773v238.106c0,5.39,4.384,9.773,9.773,9.773H459.12
	c5.353,0,9.736-4.353,9.771-9.701c0.085-12.91,0.194-33.152,0.315-55.237c0.138-25.413,0.29-53.263,0.431-75.188
	c0.053-8.374,6.902-15.117,15.263-15.068c8.376,0.053,15.122,6.887,15.068,15.261c-0.141,21.917-0.293,49.757-0.431,75.16
	c-0.121,22.096-0.231,42.351-0.315,55.269C499.082,446.643,481.091,464.512,459.122,464.512z"/>
<path style="fill:#CFF09E;" d="M329.246,62.653c-92.557,0-167.588,75.031-167.588,167.588s75.031,167.588,167.588,167.588
	s167.588-75.031,167.588-167.588S421.803,62.653,329.246,62.653z M329.246,281.995c-28.584,0-51.755-23.171-51.755-51.755
	s23.171-51.755,51.755-51.755s51.755,23.171,51.755,51.755S357.83,281.995,329.246,281.995z"/>
<g>
	<path style="fill:#507C5C;" d="M329.246,412.993c-100.77,0-182.752-81.983-182.752-182.752
		c0-100.77,81.983-182.754,182.752-182.754C430.017,47.488,512,129.471,512,230.241C512,331.01,430.017,412.993,329.246,412.993z
		 M329.246,77.819c-84.046,0-152.421,68.377-152.421,152.423S245.2,382.664,329.246,382.664s152.423-68.375,152.423-152.421
		S413.292,77.819,329.246,77.819z M329.246,297.162c-36.901,0-66.919-30.02-66.919-66.921s30.02-66.921,66.919-66.921
		s66.921,30.02,66.921,66.921S366.147,297.162,329.246,297.162z M329.246,193.652c-20.175,0-36.588,16.414-36.588,36.59
		s16.414,36.59,36.588,36.59c20.176,0,36.59-16.414,36.59-36.59S349.423,193.652,329.246,193.652z"/>
	<path style="fill:#507C5C;" d="M196.425,347.583c-4.612,0-9.166-2.096-12.145-6.069L3.033,99.794
		c-5.024-6.702-3.666-16.207,3.035-21.232c6.699-5.024,16.207-3.666,21.232,3.036l181.248,241.72
		c5.024,6.702,3.666,16.207-3.035,21.232C202.784,346.594,199.592,347.583,196.425,347.583z"/>
</g>
<g>
</g>
<g>
</g>
<g>
</g>
<g>
</g>
<g>
</g>
<g>
</g>
<g>
</g>
<g>
</g>
<g>
</g>
<g>
</g>
<g>
</g>
<g>
</g>
<g>
</g>
<g>
</g>
<g>
</g>
</svg>
