<?xml version="1.0" encoding="iso-8859-1"?>
<!-- Generator: Adobe Illustrator 19.0.0, SVG Export Plug-In . SVG Version: 6.00 Build 0)  -->
<svg version="1.1" id="Layer_1" xmlns="http://www.w3.org/2000/svg" xmlns:xlink="http://www.w3.org/1999/xlink" x="0px" y="0px"
	 viewBox="0 0 512 512" style="enable-background:new 0 0 512 512;" xml:space="preserve">
<path style="fill:#507C5C;" d="M248.868,512C112.169,512,0.959,400.788,0.959,264.091c0-46.037,12.715-90.986,36.771-129.983
	c4.49-7.282,14.035-9.548,21.322-5.053c7.282,4.493,9.544,14.039,5.053,21.322c-21.037,34.104-32.157,73.426-32.157,113.714
	c0,119.61,97.31,216.92,216.92,216.92s216.92-97.31,216.92-216.92s-97.31-216.92-216.92-216.92
	c-47.121,0-91.929,14.848-129.582,42.939c-6.856,5.116-16.567,3.706-21.683-3.153c-5.118-6.859-3.706-16.567,3.153-21.684
	c43.043-32.115,94.261-49.091,148.112-49.091c136.699,0,247.909,111.212,247.909,247.909S385.567,512,248.868,512z"/>
<path style="fill:#CFF09E;" d="M248.87,419.034c-85.437,0-154.943-69.507-154.943-154.943s69.506-154.943,154.943-154.943
	s154.943,69.507,154.943,154.943S334.306,419.034,248.87,419.034z"/>
<path style="fill:#507C5C;" d="M248.868,434.528c-93.979,0-170.437-76.458-170.437-170.437S154.889,93.654,248.868,93.654
	s170.437,76.458,170.437,170.437S342.849,434.528,248.868,434.528z M248.868,124.642c-76.892,0-139.449,62.557-139.449,139.449
	S171.976,403.54,248.868,403.54s139.449-62.557,139.449-139.449S325.76,124.642,248.868,124.642z"/>
<path style="fill:#FFFFFF;" d="M248.87,341.562c-42.718,0-77.472-34.754-77.472-77.472s34.754-77.472,77.472-77.472
	s77.472,34.754,77.472,77.472S291.588,341.562,248.87,341.562z"/>
<g>
	<path style="fill:#507C5C;" d="M248.868,357.057c-51.261,0-92.966-41.704-92.966-92.966s41.704-92.966,92.966-92.966
		s92.966,41.704,92.966,92.966S300.13,357.057,248.868,357.057z M248.868,202.114c-34.174,0-61.977,27.803-61.977,61.977
		s27.803,61.977,61.977,61.977s61.977-27.803,61.977-61.977S283.043,202.114,248.868,202.114z"/>
	<path style="fill:#507C5C;" d="M253.075,273.46c-3.967,0-7.93-1.512-10.956-4.538c-6.051-6.051-6.051-15.862,0-21.914
		l195.02-195.02c6.052-6.051,15.86-6.051,21.914,0c6.051,6.051,6.051,15.862,0,21.914l-195.022,195.02
		C261.005,271.948,257.04,273.46,253.075,273.46z"/>
	<path style="fill:#507C5C;" d="M443.557,82.976c-4.073,0-8.026-1.607-10.956-4.538c-3.581-3.581-5.186-8.685-4.298-13.671
		l9.252-51.985c1.498-8.426,9.537-14.038,17.97-12.54c8.426,1.5,14.039,9.544,12.541,17.969l-5.363,30.126l30.127-5.361
		c8.437-1.503,16.47,4.115,17.97,12.54c1.498,8.426-4.115,16.47-12.541,17.969l-51.986,9.252
		C445.367,82.897,444.459,82.976,443.557,82.976z"/>
	<path style="fill:#507C5C;" d="M239.425,294.514c-6.02,0-11.866-2.377-16.195-6.707c-5.287-5.287-7.659-12.837-6.35-20.198
		l7.392-41.545c1.5-8.426,9.54-14.042,17.97-12.54c8.426,1.498,14.039,9.544,12.541,17.969l-5.361,30.126l30.124-5.361
		c8.427-1.5,16.47,4.115,17.97,12.54c1.498,8.426-4.115,16.47-12.541,17.969l-41.545,7.392
		C242.096,294.398,240.756,294.514,239.425,294.514z"/>
</g>
<g>
</g>
<g>
</g>
<g>
</g>
<g>
</g>
<g>
</g>
<g>
</g>
<g>
</g>
<g>
</g>
<g>
</g>
<g>
</g>
<g>
</g>
<g>
</g>
<g>
</g>
<g>
</g>
<g>
</g>
</svg>
