<?xml version="1.0" encoding="iso-8859-1"?>
<!-- Generator: Adobe Illustrator 19.0.0, SVG Export Plug-In . SVG Version: 6.00 Build 0)  -->
<svg version="1.1" id="Layer_1" xmlns="http://www.w3.org/2000/svg" xmlns:xlink="http://www.w3.org/1999/xlink" x="0px" y="0px"
	 viewBox="0 0 512 512" style="enable-background:new 0 0 512 512;" xml:space="preserve">
<path style="fill:#CFF09E;" d="M230.573,105.555h-85.756c-8.718,0-16.478-5.526-19.331-13.763l-17.338-50.069
	c-4.6-13.29,5.268-27.151,19.331-27.151h120.432c14.063,0,23.932,13.861,19.331,27.151l-17.338,50.069
	C247.051,100.029,239.291,105.555,230.573,105.555z"/>
<g>
	<path style="fill:#507C5C;" d="M230.573,120.127h-85.756c-14.917,0-28.22-9.472-33.1-23.567L94.379,46.49
		c-3.7-10.686-1.993-22.566,4.565-31.779C105.503,5.499,116.171,0,127.479,0h120.432c11.309,0,21.976,5.499,28.535,14.712
		s8.265,21.093,4.565,31.779L263.673,96.56C258.793,110.655,245.49,120.127,230.573,120.127z M127.479,29.144
		c-2.64,0-4.137,1.549-4.794,2.471c-0.657,0.922-1.631,2.844-0.766,5.339l17.338,50.069c0.82,2.368,3.054,3.959,5.561,3.959h85.756
		c2.506,0,4.74-1.591,5.561-3.959l17.338-50.069c0.864-2.495-0.109-4.415-0.766-5.339c-0.657-0.922-2.154-2.471-4.794-2.471
		C247.911,29.144,127.479,29.144,127.479,29.144z"/>
	<path style="fill:#507C5C;" d="M187.695,512c-7.414,0-14.83-2.32-21.017-6.961l-81.411-61.058
		c-10.655-7.99-15.814-21.099-13.462-34.209l22.818-127.178c1.422-7.923,9.003-13.192,16.917-11.77
		c7.921,1.421,13.191,8.995,11.77,16.917L100.492,414.92c-0.395,2.202,0.472,4.404,2.262,5.746l81.412,61.06
		c2.079,1.559,4.984,1.559,7.062,0l81.412-61.058c1.791-1.342,2.656-3.544,2.262-5.746l-41.081-228.977
		c-0.504-2.808-2.941-4.845-5.792-4.845h-80.66c-2.853,0-5.288,2.037-5.792,4.845l-5.778,32.207c-1.421,7.923-9,13.195-16.917,11.77
		c-7.921-1.421-13.191-8.995-11.77-16.917l5.778-32.206c2.999-16.713,17.498-28.842,34.477-28.842h80.66
		c16.978,0,31.478,12.13,34.479,28.841l41.081,228.977c2.352,13.109-2.805,26.218-13.46,34.209l-81.412,61.058
		C202.525,509.68,195.11,512,187.695,512z"/>
</g>
<path style="fill:#CFF09E;" d="M421.174,318.316L245.146,174.699c-2.7-2.2,0,0,1.556,8.67l25.577,129.485l68.232,86.126
	c3.018,3.701,7.754,5.552,12.481,4.876l53.816-7.688c5.992-0.855,10.699-5.564,11.556-11.556l7.688-53.816
	C426.726,326.069,424.876,321.333,421.174,318.316z"/>
<g>
	<path style="fill:#507C5C;" d="M351.064,418.564L351.064,418.564c-8.507,0-16.469-3.783-21.846-10.375
		c-0.044-0.054-0.086-0.106-0.128-0.16l-68.233-86.126c-1.44-1.817-2.425-3.95-2.874-6.225l-25.577-129.484
		c-0.016-0.085-0.032-0.168-0.047-0.251c-0.525-2.929-1.198-4.647-1.6-5.674c-2.109-5.39-1.701-10.289,1.215-14.56
		c2.715-3.977,7.26-6.375,12.076-6.375c5.31,0,8.683,2.751,10.305,4.074l176.031,143.62c7.611,6.206,11.478,16.105,10.09,25.832
		l-7.688,53.814c-1.76,12.324-11.596,22.16-23.92,23.92l-53.816,7.687C353.737,418.468,352.395,418.564,351.064,418.564z
		 M285.891,306.568l65.584,82.783l52.564-7.509l7.51-52.574L267.096,211.412L285.891,306.568z"/>
	<path style="fill:#507C5C;" d="M96.712,368.113c-4.691,0-9.295-2.26-12.109-6.445c-4.488-6.68-2.712-15.733,3.968-20.223
		l101.749-68.373c6.681-4.49,15.733-2.712,20.223,3.968c4.488,6.68,2.712,15.733-3.968,20.223l-101.749,68.373
		C102.332,367.31,99.506,368.113,96.712,368.113z"/>
	<path style="fill:#507C5C;" d="M103.41,448.252c-4.691,0-9.295-2.26-12.109-6.445c-4.488-6.68-2.712-15.733,3.968-20.223
		l95.052-63.873c6.681-4.49,15.733-2.712,20.223,3.968c4.488,6.68,2.712,15.733-3.968,20.223l-95.052,63.873
		C109.031,447.449,106.204,448.252,103.41,448.252z"/>
</g>
<g>
</g>
<g>
</g>
<g>
</g>
<g>
</g>
<g>
</g>
<g>
</g>
<g>
</g>
<g>
</g>
<g>
</g>
<g>
</g>
<g>
</g>
<g>
</g>
<g>
</g>
<g>
</g>
<g>
</g>
</svg>
