<?xml version="1.0" encoding="iso-8859-1"?>
<!-- Generator: Adobe Illustrator 19.0.0, SVG Export Plug-In . SVG Version: 6.00 Build 0)  -->
<svg version="1.1" id="Layer_1" xmlns="http://www.w3.org/2000/svg" xmlns:xlink="http://www.w3.org/1999/xlink" x="0px" y="0px"
	 viewBox="0 0 512 512" style="enable-background:new 0 0 512 512;" xml:space="preserve">
<path style="fill:#CFF09E;" d="M419.327,137.691c-0.111-0.75-0.291-1.499-0.552-2.24l-35.058-99.355
	c-2.208-6.261-9.074-9.545-15.335-7.335L59.666,137.691"/>
<g>
	<path style="fill:#507C5C;" d="M64.297,150.816l-9.261-26.245L363.753,15.637c13.489-4.758,28.33,2.346,33.088,15.829
		l35.058,99.355c0.547,1.55,0.948,3.173,1.194,4.826l-27.53,4.09c0.008,0.057,0.032,0.178,0.089,0.341l-34.426-97.564
		L64.297,150.816z"/>
	<path style="fill:#507C5C;" d="M420.032,497.842H56.278C25.248,497.842,0,472.596,0,441.563V180.056
		c0-31.032,25.248-56.278,56.278-56.278h363.753c31.032,0,56.278,25.248,56.278,56.278v261.508
		C476.31,472.596,451.064,497.842,420.032,497.842z M56.278,151.607c-15.686,0-28.447,12.762-28.447,28.448v261.508
		c0,15.686,12.761,28.447,28.447,28.447h363.753c15.686,0,28.447-12.761,28.447-28.447V180.056
		c0-15.685-12.761-28.447-28.447-28.447H56.278V151.607z"/>
	<path style="fill:#507C5C;" d="M331.382,431.081H104.868c-21.013,0-38.107-17.094-38.107-38.107V228.645
		c0-21.013,17.094-38.107,38.107-38.107h266.573c21.013,0,38.107,17.094,38.107,38.107v49.193c0,7.684-6.23,13.916-13.916,13.916
		s-13.916-6.232-13.916-13.916v-49.193c0-5.665-4.61-10.275-10.275-10.275H104.868c-5.665,0-10.275,4.61-10.275,10.275v164.328
		c0,5.665,4.61,10.275,10.275,10.275H331.38c7.686,0,13.916,6.232,13.916,13.916C345.297,424.849,339.068,431.081,331.382,431.081z"
		/>
</g>
<path style="fill:#CFF09E;" d="M471.693,371.451H284.127c-14.575,0-26.391-11.816-26.391-26.391v-68.501
	c0-14.575,11.816-26.391,26.391-26.391h187.566c14.575,0,26.391,11.816,26.391,26.391v68.501
	C498.084,359.635,486.268,371.451,471.693,371.451z"/>
<path style="fill:#507C5C;" d="M471.693,385.367H284.127c-22.225,0-40.307-18.081-40.307-40.307v-68.502
	c0-22.226,18.082-40.307,40.307-40.307h187.566c22.225,0,40.307,18.081,40.307,40.307v68.502
	C512,367.286,493.918,385.367,471.693,385.367z M284.127,264.084c-6.879,0-12.476,5.596-12.476,12.476v68.502
	c0,6.879,5.596,12.476,12.476,12.476h187.566c6.879,0,12.476-5.596,12.476-12.476V276.56c0-6.879-5.596-12.476-12.476-12.476
	L284.127,264.084L284.127,264.084z"/>
<circle style="fill:#CFF09E;" cx="322.39" cy="310.81" r="19.14"/>
<path style="fill:#507C5C;" d="M322.386,343.864c-18.226,0-33.054-14.827-33.054-33.054s14.829-33.056,33.054-33.056
	c18.226,0,33.054,14.829,33.054,33.056S340.612,343.864,322.386,343.864z M322.386,305.586c-2.879,0-5.223,2.343-5.223,5.224
	c0,2.879,2.343,5.223,5.223,5.223c2.879,0,5.223-2.343,5.223-5.223C327.608,307.928,325.266,305.586,322.386,305.586z"/>
<g>
</g>
<g>
</g>
<g>
</g>
<g>
</g>
<g>
</g>
<g>
</g>
<g>
</g>
<g>
</g>
<g>
</g>
<g>
</g>
<g>
</g>
<g>
</g>
<g>
</g>
<g>
</g>
<g>
</g>
</svg>
